%TF.GenerationSoftware,KiCad,Pcbnew,5.1.10*%
%TF.CreationDate,2021-10-22T18:49:23+01:00*%
%TF.ProjectId,GAL Programmer,47414c20-5072-46f6-9772-616d6d65722e,rev?*%
%TF.SameCoordinates,Original*%
%TF.FileFunction,Legend,Bot*%
%TF.FilePolarity,Positive*%
%FSLAX46Y46*%
G04 Gerber Fmt 4.6, Leading zero omitted, Abs format (unit mm)*
G04 Created by KiCad (PCBNEW 5.1.10) date 2021-10-22 18:49:23*
%MOMM*%
%LPD*%
G01*
G04 APERTURE LIST*
%ADD10C,0.200000*%
%ADD11C,0.010000*%
%ADD12O,1.600000X1.600000*%
%ADD13C,1.600000*%
%ADD14O,1.200000X2.000000*%
%ADD15C,1.524000*%
%ADD16O,1.440000X2.000000*%
%ADD17R,1.440000X2.000000*%
%ADD18R,1.600000X1.600000*%
%ADD19O,1.727200X2.032000*%
%ADD20C,4.064000*%
G04 APERTURE END LIST*
D10*
X112228380Y-74755952D02*
X112942666Y-74755952D01*
X113085523Y-74708333D01*
X113180761Y-74613095D01*
X113228380Y-74470238D01*
X113228380Y-74375000D01*
X113228380Y-75708333D02*
X113228380Y-75232142D01*
X112228380Y-75232142D01*
X113133142Y-76613095D02*
X113180761Y-76565476D01*
X113228380Y-76422619D01*
X113228380Y-76327380D01*
X113180761Y-76184523D01*
X113085523Y-76089285D01*
X112990285Y-76041666D01*
X112799809Y-75994047D01*
X112656952Y-75994047D01*
X112466476Y-76041666D01*
X112371238Y-76089285D01*
X112276000Y-76184523D01*
X112228380Y-76327380D01*
X112228380Y-76422619D01*
X112276000Y-76565476D01*
X112323619Y-76613095D01*
X112228380Y-77327380D02*
X112942666Y-77327380D01*
X113085523Y-77279761D01*
X113180761Y-77184523D01*
X113228380Y-77041666D01*
X113228380Y-76946428D01*
X113228380Y-78279761D02*
X113228380Y-77803571D01*
X112228380Y-77803571D01*
X113133142Y-79184523D02*
X113180761Y-79136904D01*
X113228380Y-78994047D01*
X113228380Y-78898809D01*
X113180761Y-78755952D01*
X113085523Y-78660714D01*
X112990285Y-78613095D01*
X112799809Y-78565476D01*
X112656952Y-78565476D01*
X112466476Y-78613095D01*
X112371238Y-78660714D01*
X112276000Y-78755952D01*
X112228380Y-78898809D01*
X112228380Y-78994047D01*
X112276000Y-79136904D01*
X112323619Y-79184523D01*
X112228380Y-79898809D02*
X112942666Y-79898809D01*
X113085523Y-79851190D01*
X113180761Y-79755952D01*
X113228380Y-79613095D01*
X113228380Y-79517857D01*
X113228380Y-80851190D02*
X113228380Y-80375000D01*
X112228380Y-80375000D01*
X113133142Y-81755952D02*
X113180761Y-81708333D01*
X113228380Y-81565476D01*
X113228380Y-81470238D01*
X113180761Y-81327380D01*
X113085523Y-81232142D01*
X112990285Y-81184523D01*
X112799809Y-81136904D01*
X112656952Y-81136904D01*
X112466476Y-81184523D01*
X112371238Y-81232142D01*
X112276000Y-81327380D01*
X112228380Y-81470238D01*
X112228380Y-81565476D01*
X112276000Y-81708333D01*
X112323619Y-81755952D01*
X112228380Y-82470238D02*
X112942666Y-82470238D01*
X113085523Y-82422619D01*
X113180761Y-82327380D01*
X113228380Y-82184523D01*
X113228380Y-82089285D01*
X113228380Y-83422619D02*
X113228380Y-82946428D01*
X112228380Y-82946428D01*
X113133142Y-84327380D02*
X113180761Y-84279761D01*
X113228380Y-84136904D01*
X113228380Y-84041666D01*
X113180761Y-83898809D01*
X113085523Y-83803571D01*
X112990285Y-83755952D01*
X112799809Y-83708333D01*
X112656952Y-83708333D01*
X112466476Y-83755952D01*
X112371238Y-83803571D01*
X112276000Y-83898809D01*
X112228380Y-84041666D01*
X112228380Y-84136904D01*
X112276000Y-84279761D01*
X112323619Y-84327380D01*
D11*
%TO.C,REF\u002A\u002A*%
G36*
X111977660Y-106302911D02*
G01*
X111977707Y-106652460D01*
X111977714Y-106815170D01*
X111977715Y-109419571D01*
X112131238Y-109419571D01*
X112318063Y-109435957D01*
X112490367Y-109485412D01*
X112649175Y-109568380D01*
X112795510Y-109685305D01*
X112835032Y-109724864D01*
X112947138Y-109867170D01*
X113028899Y-110024078D01*
X113080353Y-110190928D01*
X113101537Y-110363061D01*
X113092487Y-110535815D01*
X113053242Y-110704530D01*
X112983838Y-110864546D01*
X112884311Y-111011202D01*
X112824265Y-111077068D01*
X112677043Y-111199808D01*
X112515147Y-111289812D01*
X112340427Y-111346294D01*
X112154735Y-111368471D01*
X112136467Y-111368766D01*
X111977720Y-111369928D01*
X111977717Y-111439700D01*
X111986118Y-111501595D01*
X112006556Y-111558135D01*
X112008667Y-111561872D01*
X112015293Y-111574642D01*
X112020454Y-111586368D01*
X112025651Y-111597094D01*
X112032390Y-111606861D01*
X112042171Y-111615712D01*
X112056500Y-111623689D01*
X112076878Y-111630835D01*
X112104808Y-111637192D01*
X112141795Y-111642802D01*
X112189340Y-111647707D01*
X112248947Y-111651951D01*
X112322119Y-111655576D01*
X112410359Y-111658623D01*
X112515170Y-111661136D01*
X112638055Y-111663156D01*
X112780517Y-111664726D01*
X112944060Y-111665888D01*
X113130186Y-111666686D01*
X113340398Y-111667160D01*
X113576200Y-111667354D01*
X113839094Y-111667310D01*
X114130584Y-111667070D01*
X114452172Y-111666677D01*
X114805362Y-111666173D01*
X115191657Y-111665600D01*
X115612560Y-111665001D01*
X115663840Y-111664932D01*
X116087426Y-111664395D01*
X116476230Y-111663939D01*
X116831753Y-111663516D01*
X117155498Y-111663079D01*
X117448966Y-111662578D01*
X117713661Y-111661965D01*
X117951085Y-111661192D01*
X118162740Y-111660211D01*
X118350129Y-111658974D01*
X118514754Y-111657432D01*
X118658117Y-111655537D01*
X118781720Y-111653241D01*
X118887067Y-111650496D01*
X118975659Y-111647253D01*
X119049000Y-111643464D01*
X119108590Y-111639081D01*
X119155933Y-111634055D01*
X119192531Y-111628339D01*
X119219886Y-111621884D01*
X119239502Y-111614641D01*
X119252879Y-111606563D01*
X119261521Y-111597602D01*
X119266930Y-111587708D01*
X119270608Y-111576835D01*
X119274058Y-111564933D01*
X119278782Y-111551954D01*
X119280220Y-111548783D01*
X119283451Y-111538819D01*
X119286420Y-111522141D01*
X119289137Y-111497293D01*
X119291613Y-111462820D01*
X119293858Y-111417264D01*
X119295883Y-111359170D01*
X119297698Y-111287081D01*
X119299315Y-111199542D01*
X119300743Y-111095095D01*
X119301993Y-110972285D01*
X119303076Y-110829655D01*
X119304002Y-110665749D01*
X119304782Y-110479110D01*
X119305426Y-110268284D01*
X119305946Y-110031812D01*
X119306351Y-109768239D01*
X119306652Y-109476110D01*
X119306860Y-109153966D01*
X119306985Y-108800353D01*
X119307038Y-108413814D01*
X119307029Y-107992892D01*
X119307016Y-107856544D01*
X119306947Y-107426284D01*
X119306834Y-107030836D01*
X119306665Y-106668727D01*
X119306430Y-106338483D01*
X119306116Y-106038629D01*
X119305713Y-105767692D01*
X119305207Y-105524200D01*
X119304589Y-105306677D01*
X119303846Y-105113650D01*
X119302968Y-104943646D01*
X119301941Y-104795190D01*
X119300756Y-104666810D01*
X119299400Y-104557031D01*
X119297862Y-104464380D01*
X119296130Y-104387383D01*
X119294194Y-104324566D01*
X119292040Y-104274456D01*
X119289659Y-104235579D01*
X119287037Y-104206462D01*
X119284165Y-104185629D01*
X119281030Y-104171609D01*
X119278159Y-104163966D01*
X119272430Y-104150382D01*
X119268206Y-104137910D01*
X119263985Y-104126502D01*
X119258268Y-104116111D01*
X119249555Y-104106691D01*
X119236345Y-104098192D01*
X119217137Y-104090570D01*
X119190433Y-104083775D01*
X119154730Y-104077762D01*
X119108530Y-104072483D01*
X119050332Y-104067890D01*
X118978635Y-104063936D01*
X118891940Y-104060575D01*
X118788746Y-104057759D01*
X118667553Y-104055440D01*
X118526860Y-104053572D01*
X118472857Y-104053084D01*
X118472857Y-104537296D01*
X118472857Y-106248744D01*
X118422964Y-106215813D01*
X118371693Y-106183053D01*
X118322869Y-106155311D01*
X118273076Y-106132193D01*
X118218898Y-106113303D01*
X118156916Y-106098249D01*
X118083715Y-106086633D01*
X117995878Y-106078064D01*
X117889988Y-106072144D01*
X117762628Y-106068481D01*
X117610381Y-106066679D01*
X117429832Y-106066344D01*
X117217562Y-106067081D01*
X117138755Y-106067499D01*
X116293911Y-106072214D01*
X117022557Y-106607428D01*
X117229265Y-106759054D01*
X117409260Y-106890419D01*
X117564925Y-107002943D01*
X117698647Y-107098043D01*
X117812809Y-107177138D01*
X117909797Y-107241647D01*
X117991994Y-107292988D01*
X118061786Y-107332580D01*
X118121558Y-107361840D01*
X118173693Y-107382188D01*
X118220576Y-107395042D01*
X118264593Y-107401819D01*
X118308127Y-107403940D01*
X118353564Y-107402821D01*
X118359275Y-107402536D01*
X118472933Y-107396643D01*
X118472857Y-109272229D01*
X118332189Y-109132722D01*
X118293715Y-109094865D01*
X118256279Y-109058953D01*
X118217814Y-109023407D01*
X118176258Y-108986653D01*
X118129545Y-108947114D01*
X118075610Y-108903214D01*
X118012390Y-108853377D01*
X117937818Y-108796028D01*
X117849832Y-108729589D01*
X117746365Y-108652485D01*
X117625354Y-108563139D01*
X117484734Y-108459976D01*
X117322440Y-108341420D01*
X117136407Y-108205895D01*
X116924571Y-108051823D01*
X116750804Y-107925538D01*
X116532501Y-107767046D01*
X116341629Y-107628784D01*
X116176374Y-107509501D01*
X116034926Y-107407943D01*
X115915471Y-107322859D01*
X115816198Y-107252995D01*
X115735295Y-107197100D01*
X115670949Y-107153920D01*
X115621347Y-107122203D01*
X115584679Y-107100698D01*
X115559132Y-107088150D01*
X115542893Y-107083308D01*
X115534355Y-107084763D01*
X115511635Y-107102401D01*
X115463543Y-107140534D01*
X115392938Y-107196862D01*
X115302678Y-107269084D01*
X115195621Y-107354899D01*
X115074627Y-107452006D01*
X114942554Y-107558104D01*
X114802260Y-107670891D01*
X114656603Y-107788068D01*
X114508444Y-107907333D01*
X114427000Y-107972933D01*
X114427000Y-109601686D01*
X114549465Y-109669379D01*
X114671929Y-109737071D01*
X118227929Y-109737071D01*
X118350393Y-109669379D01*
X118472857Y-109601686D01*
X118472857Y-110402441D01*
X118472802Y-110593602D01*
X118472551Y-110751499D01*
X118471979Y-110879152D01*
X118470959Y-110979581D01*
X118469365Y-111055807D01*
X118467070Y-111110852D01*
X118463950Y-111147736D01*
X118459877Y-111169479D01*
X118454725Y-111179102D01*
X118448367Y-111179627D01*
X118440679Y-111174074D01*
X118440615Y-111174016D01*
X118407524Y-111151140D01*
X118353719Y-111120849D01*
X118300008Y-111094097D01*
X118191643Y-111043357D01*
X116309322Y-111038182D01*
X114427000Y-111033007D01*
X114427000Y-109601686D01*
X114427000Y-107972933D01*
X114360639Y-108026385D01*
X114216047Y-108142923D01*
X114077528Y-108254646D01*
X113947939Y-108359254D01*
X113830140Y-108454444D01*
X113726988Y-108537917D01*
X113641343Y-108607371D01*
X113576062Y-108660506D01*
X113538000Y-108691715D01*
X113395670Y-108812903D01*
X113267230Y-108929493D01*
X113156886Y-109037397D01*
X113068841Y-109132530D01*
X113014862Y-109200043D01*
X112957429Y-109279873D01*
X112957429Y-107443892D01*
X113065165Y-107444408D01*
X113144372Y-107439276D01*
X113217805Y-107419985D01*
X113287415Y-107390123D01*
X113326741Y-107370712D01*
X113365707Y-107349841D01*
X113406901Y-107325604D01*
X113452908Y-107296094D01*
X113506317Y-107259406D01*
X113569714Y-107213632D01*
X113645685Y-107156865D01*
X113736817Y-107087200D01*
X113845698Y-107002730D01*
X113974914Y-106901547D01*
X114127052Y-106781747D01*
X114304698Y-106641421D01*
X114324742Y-106625571D01*
X115024508Y-106072214D01*
X114249504Y-106066857D01*
X114017368Y-106065779D01*
X113820846Y-106066008D01*
X113659292Y-106067557D01*
X113532056Y-106070437D01*
X113438492Y-106074659D01*
X113377952Y-106080234D01*
X113366468Y-106082107D01*
X113245499Y-106111505D01*
X113136446Y-106150022D01*
X113048763Y-106193974D01*
X113011574Y-106220379D01*
X112957429Y-106265940D01*
X112957429Y-105401470D01*
X112957605Y-105195255D01*
X112958179Y-105022812D01*
X112959217Y-104881627D01*
X112960787Y-104769188D01*
X112962954Y-104682983D01*
X112965788Y-104620498D01*
X112969353Y-104579221D01*
X112973718Y-104556640D01*
X112978949Y-104550241D01*
X112980107Y-104550683D01*
X113007769Y-104569009D01*
X113051615Y-104599604D01*
X113073791Y-104615433D01*
X113095920Y-104631798D01*
X113115709Y-104646508D01*
X113135106Y-104659656D01*
X113156058Y-104671333D01*
X113180512Y-104681632D01*
X113210416Y-104690646D01*
X113247717Y-104698468D01*
X113294363Y-104705191D01*
X113352301Y-104710906D01*
X113423479Y-104715707D01*
X113509844Y-104719685D01*
X113613344Y-104722935D01*
X113735925Y-104725548D01*
X113879537Y-104727617D01*
X114046125Y-104729234D01*
X114237637Y-104730493D01*
X114456022Y-104731485D01*
X114703226Y-104732304D01*
X114981196Y-104733042D01*
X115291881Y-104733791D01*
X115577300Y-104734492D01*
X115895492Y-104735153D01*
X116199077Y-104735497D01*
X116486115Y-104735532D01*
X116754669Y-104735268D01*
X117002798Y-104734715D01*
X117228563Y-104733880D01*
X117430026Y-104732773D01*
X117605246Y-104731404D01*
X117752286Y-104729781D01*
X117869206Y-104727913D01*
X117954067Y-104725811D01*
X118004929Y-104723482D01*
X118010304Y-104723041D01*
X118133613Y-104706992D01*
X118232644Y-104681936D01*
X118319070Y-104643779D01*
X118404565Y-104588428D01*
X118413893Y-104581504D01*
X118472857Y-104537296D01*
X118472857Y-104053084D01*
X118365168Y-104052108D01*
X118180976Y-104050999D01*
X117972784Y-104050199D01*
X117739091Y-104049661D01*
X117478398Y-104049338D01*
X117189204Y-104049183D01*
X116870009Y-104049146D01*
X116519313Y-104049183D01*
X116135614Y-104049245D01*
X115717414Y-104049285D01*
X115634393Y-104049286D01*
X115211789Y-104049309D01*
X114823981Y-104049388D01*
X114469480Y-104049533D01*
X114146797Y-104049756D01*
X113854442Y-104050069D01*
X113590927Y-104050483D01*
X113354762Y-104051009D01*
X113144458Y-104051660D01*
X112958526Y-104052447D01*
X112795475Y-104053381D01*
X112653818Y-104054474D01*
X112532064Y-104055737D01*
X112428725Y-104057183D01*
X112342311Y-104058821D01*
X112271333Y-104060666D01*
X112214301Y-104062726D01*
X112169727Y-104065015D01*
X112136121Y-104067544D01*
X112111993Y-104070324D01*
X112095856Y-104073367D01*
X112086218Y-104076684D01*
X112085978Y-104076807D01*
X112071255Y-104083640D01*
X112057926Y-104089330D01*
X112045922Y-104095626D01*
X112035173Y-104104272D01*
X112025611Y-104117014D01*
X112017167Y-104135600D01*
X112009771Y-104161774D01*
X112003354Y-104197284D01*
X111997848Y-104243875D01*
X111993183Y-104303293D01*
X111989291Y-104377285D01*
X111986102Y-104467597D01*
X111983547Y-104575975D01*
X111981558Y-104704165D01*
X111980065Y-104853913D01*
X111978998Y-105026966D01*
X111978291Y-105225069D01*
X111977872Y-105449969D01*
X111977673Y-105703412D01*
X111977626Y-105987144D01*
X111977660Y-106302911D01*
G37*
X111977660Y-106302911D02*
X111977707Y-106652460D01*
X111977714Y-106815170D01*
X111977715Y-109419571D01*
X112131238Y-109419571D01*
X112318063Y-109435957D01*
X112490367Y-109485412D01*
X112649175Y-109568380D01*
X112795510Y-109685305D01*
X112835032Y-109724864D01*
X112947138Y-109867170D01*
X113028899Y-110024078D01*
X113080353Y-110190928D01*
X113101537Y-110363061D01*
X113092487Y-110535815D01*
X113053242Y-110704530D01*
X112983838Y-110864546D01*
X112884311Y-111011202D01*
X112824265Y-111077068D01*
X112677043Y-111199808D01*
X112515147Y-111289812D01*
X112340427Y-111346294D01*
X112154735Y-111368471D01*
X112136467Y-111368766D01*
X111977720Y-111369928D01*
X111977717Y-111439700D01*
X111986118Y-111501595D01*
X112006556Y-111558135D01*
X112008667Y-111561872D01*
X112015293Y-111574642D01*
X112020454Y-111586368D01*
X112025651Y-111597094D01*
X112032390Y-111606861D01*
X112042171Y-111615712D01*
X112056500Y-111623689D01*
X112076878Y-111630835D01*
X112104808Y-111637192D01*
X112141795Y-111642802D01*
X112189340Y-111647707D01*
X112248947Y-111651951D01*
X112322119Y-111655576D01*
X112410359Y-111658623D01*
X112515170Y-111661136D01*
X112638055Y-111663156D01*
X112780517Y-111664726D01*
X112944060Y-111665888D01*
X113130186Y-111666686D01*
X113340398Y-111667160D01*
X113576200Y-111667354D01*
X113839094Y-111667310D01*
X114130584Y-111667070D01*
X114452172Y-111666677D01*
X114805362Y-111666173D01*
X115191657Y-111665600D01*
X115612560Y-111665001D01*
X115663840Y-111664932D01*
X116087426Y-111664395D01*
X116476230Y-111663939D01*
X116831753Y-111663516D01*
X117155498Y-111663079D01*
X117448966Y-111662578D01*
X117713661Y-111661965D01*
X117951085Y-111661192D01*
X118162740Y-111660211D01*
X118350129Y-111658974D01*
X118514754Y-111657432D01*
X118658117Y-111655537D01*
X118781720Y-111653241D01*
X118887067Y-111650496D01*
X118975659Y-111647253D01*
X119049000Y-111643464D01*
X119108590Y-111639081D01*
X119155933Y-111634055D01*
X119192531Y-111628339D01*
X119219886Y-111621884D01*
X119239502Y-111614641D01*
X119252879Y-111606563D01*
X119261521Y-111597602D01*
X119266930Y-111587708D01*
X119270608Y-111576835D01*
X119274058Y-111564933D01*
X119278782Y-111551954D01*
X119280220Y-111548783D01*
X119283451Y-111538819D01*
X119286420Y-111522141D01*
X119289137Y-111497293D01*
X119291613Y-111462820D01*
X119293858Y-111417264D01*
X119295883Y-111359170D01*
X119297698Y-111287081D01*
X119299315Y-111199542D01*
X119300743Y-111095095D01*
X119301993Y-110972285D01*
X119303076Y-110829655D01*
X119304002Y-110665749D01*
X119304782Y-110479110D01*
X119305426Y-110268284D01*
X119305946Y-110031812D01*
X119306351Y-109768239D01*
X119306652Y-109476110D01*
X119306860Y-109153966D01*
X119306985Y-108800353D01*
X119307038Y-108413814D01*
X119307029Y-107992892D01*
X119307016Y-107856544D01*
X119306947Y-107426284D01*
X119306834Y-107030836D01*
X119306665Y-106668727D01*
X119306430Y-106338483D01*
X119306116Y-106038629D01*
X119305713Y-105767692D01*
X119305207Y-105524200D01*
X119304589Y-105306677D01*
X119303846Y-105113650D01*
X119302968Y-104943646D01*
X119301941Y-104795190D01*
X119300756Y-104666810D01*
X119299400Y-104557031D01*
X119297862Y-104464380D01*
X119296130Y-104387383D01*
X119294194Y-104324566D01*
X119292040Y-104274456D01*
X119289659Y-104235579D01*
X119287037Y-104206462D01*
X119284165Y-104185629D01*
X119281030Y-104171609D01*
X119278159Y-104163966D01*
X119272430Y-104150382D01*
X119268206Y-104137910D01*
X119263985Y-104126502D01*
X119258268Y-104116111D01*
X119249555Y-104106691D01*
X119236345Y-104098192D01*
X119217137Y-104090570D01*
X119190433Y-104083775D01*
X119154730Y-104077762D01*
X119108530Y-104072483D01*
X119050332Y-104067890D01*
X118978635Y-104063936D01*
X118891940Y-104060575D01*
X118788746Y-104057759D01*
X118667553Y-104055440D01*
X118526860Y-104053572D01*
X118472857Y-104053084D01*
X118472857Y-104537296D01*
X118472857Y-106248744D01*
X118422964Y-106215813D01*
X118371693Y-106183053D01*
X118322869Y-106155311D01*
X118273076Y-106132193D01*
X118218898Y-106113303D01*
X118156916Y-106098249D01*
X118083715Y-106086633D01*
X117995878Y-106078064D01*
X117889988Y-106072144D01*
X117762628Y-106068481D01*
X117610381Y-106066679D01*
X117429832Y-106066344D01*
X117217562Y-106067081D01*
X117138755Y-106067499D01*
X116293911Y-106072214D01*
X117022557Y-106607428D01*
X117229265Y-106759054D01*
X117409260Y-106890419D01*
X117564925Y-107002943D01*
X117698647Y-107098043D01*
X117812809Y-107177138D01*
X117909797Y-107241647D01*
X117991994Y-107292988D01*
X118061786Y-107332580D01*
X118121558Y-107361840D01*
X118173693Y-107382188D01*
X118220576Y-107395042D01*
X118264593Y-107401819D01*
X118308127Y-107403940D01*
X118353564Y-107402821D01*
X118359275Y-107402536D01*
X118472933Y-107396643D01*
X118472857Y-109272229D01*
X118332189Y-109132722D01*
X118293715Y-109094865D01*
X118256279Y-109058953D01*
X118217814Y-109023407D01*
X118176258Y-108986653D01*
X118129545Y-108947114D01*
X118075610Y-108903214D01*
X118012390Y-108853377D01*
X117937818Y-108796028D01*
X117849832Y-108729589D01*
X117746365Y-108652485D01*
X117625354Y-108563139D01*
X117484734Y-108459976D01*
X117322440Y-108341420D01*
X117136407Y-108205895D01*
X116924571Y-108051823D01*
X116750804Y-107925538D01*
X116532501Y-107767046D01*
X116341629Y-107628784D01*
X116176374Y-107509501D01*
X116034926Y-107407943D01*
X115915471Y-107322859D01*
X115816198Y-107252995D01*
X115735295Y-107197100D01*
X115670949Y-107153920D01*
X115621347Y-107122203D01*
X115584679Y-107100698D01*
X115559132Y-107088150D01*
X115542893Y-107083308D01*
X115534355Y-107084763D01*
X115511635Y-107102401D01*
X115463543Y-107140534D01*
X115392938Y-107196862D01*
X115302678Y-107269084D01*
X115195621Y-107354899D01*
X115074627Y-107452006D01*
X114942554Y-107558104D01*
X114802260Y-107670891D01*
X114656603Y-107788068D01*
X114508444Y-107907333D01*
X114427000Y-107972933D01*
X114427000Y-109601686D01*
X114549465Y-109669379D01*
X114671929Y-109737071D01*
X118227929Y-109737071D01*
X118350393Y-109669379D01*
X118472857Y-109601686D01*
X118472857Y-110402441D01*
X118472802Y-110593602D01*
X118472551Y-110751499D01*
X118471979Y-110879152D01*
X118470959Y-110979581D01*
X118469365Y-111055807D01*
X118467070Y-111110852D01*
X118463950Y-111147736D01*
X118459877Y-111169479D01*
X118454725Y-111179102D01*
X118448367Y-111179627D01*
X118440679Y-111174074D01*
X118440615Y-111174016D01*
X118407524Y-111151140D01*
X118353719Y-111120849D01*
X118300008Y-111094097D01*
X118191643Y-111043357D01*
X116309322Y-111038182D01*
X114427000Y-111033007D01*
X114427000Y-109601686D01*
X114427000Y-107972933D01*
X114360639Y-108026385D01*
X114216047Y-108142923D01*
X114077528Y-108254646D01*
X113947939Y-108359254D01*
X113830140Y-108454444D01*
X113726988Y-108537917D01*
X113641343Y-108607371D01*
X113576062Y-108660506D01*
X113538000Y-108691715D01*
X113395670Y-108812903D01*
X113267230Y-108929493D01*
X113156886Y-109037397D01*
X113068841Y-109132530D01*
X113014862Y-109200043D01*
X112957429Y-109279873D01*
X112957429Y-107443892D01*
X113065165Y-107444408D01*
X113144372Y-107439276D01*
X113217805Y-107419985D01*
X113287415Y-107390123D01*
X113326741Y-107370712D01*
X113365707Y-107349841D01*
X113406901Y-107325604D01*
X113452908Y-107296094D01*
X113506317Y-107259406D01*
X113569714Y-107213632D01*
X113645685Y-107156865D01*
X113736817Y-107087200D01*
X113845698Y-107002730D01*
X113974914Y-106901547D01*
X114127052Y-106781747D01*
X114304698Y-106641421D01*
X114324742Y-106625571D01*
X115024508Y-106072214D01*
X114249504Y-106066857D01*
X114017368Y-106065779D01*
X113820846Y-106066008D01*
X113659292Y-106067557D01*
X113532056Y-106070437D01*
X113438492Y-106074659D01*
X113377952Y-106080234D01*
X113366468Y-106082107D01*
X113245499Y-106111505D01*
X113136446Y-106150022D01*
X113048763Y-106193974D01*
X113011574Y-106220379D01*
X112957429Y-106265940D01*
X112957429Y-105401470D01*
X112957605Y-105195255D01*
X112958179Y-105022812D01*
X112959217Y-104881627D01*
X112960787Y-104769188D01*
X112962954Y-104682983D01*
X112965788Y-104620498D01*
X112969353Y-104579221D01*
X112973718Y-104556640D01*
X112978949Y-104550241D01*
X112980107Y-104550683D01*
X113007769Y-104569009D01*
X113051615Y-104599604D01*
X113073791Y-104615433D01*
X113095920Y-104631798D01*
X113115709Y-104646508D01*
X113135106Y-104659656D01*
X113156058Y-104671333D01*
X113180512Y-104681632D01*
X113210416Y-104690646D01*
X113247717Y-104698468D01*
X113294363Y-104705191D01*
X113352301Y-104710906D01*
X113423479Y-104715707D01*
X113509844Y-104719685D01*
X113613344Y-104722935D01*
X113735925Y-104725548D01*
X113879537Y-104727617D01*
X114046125Y-104729234D01*
X114237637Y-104730493D01*
X114456022Y-104731485D01*
X114703226Y-104732304D01*
X114981196Y-104733042D01*
X115291881Y-104733791D01*
X115577300Y-104734492D01*
X115895492Y-104735153D01*
X116199077Y-104735497D01*
X116486115Y-104735532D01*
X116754669Y-104735268D01*
X117002798Y-104734715D01*
X117228563Y-104733880D01*
X117430026Y-104732773D01*
X117605246Y-104731404D01*
X117752286Y-104729781D01*
X117869206Y-104727913D01*
X117954067Y-104725811D01*
X118004929Y-104723482D01*
X118010304Y-104723041D01*
X118133613Y-104706992D01*
X118232644Y-104681936D01*
X118319070Y-104643779D01*
X118404565Y-104588428D01*
X118413893Y-104581504D01*
X118472857Y-104537296D01*
X118472857Y-104053084D01*
X118365168Y-104052108D01*
X118180976Y-104050999D01*
X117972784Y-104050199D01*
X117739091Y-104049661D01*
X117478398Y-104049338D01*
X117189204Y-104049183D01*
X116870009Y-104049146D01*
X116519313Y-104049183D01*
X116135614Y-104049245D01*
X115717414Y-104049285D01*
X115634393Y-104049286D01*
X115211789Y-104049309D01*
X114823981Y-104049388D01*
X114469480Y-104049533D01*
X114146797Y-104049756D01*
X113854442Y-104050069D01*
X113590927Y-104050483D01*
X113354762Y-104051009D01*
X113144458Y-104051660D01*
X112958526Y-104052447D01*
X112795475Y-104053381D01*
X112653818Y-104054474D01*
X112532064Y-104055737D01*
X112428725Y-104057183D01*
X112342311Y-104058821D01*
X112271333Y-104060666D01*
X112214301Y-104062726D01*
X112169727Y-104065015D01*
X112136121Y-104067544D01*
X112111993Y-104070324D01*
X112095856Y-104073367D01*
X112086218Y-104076684D01*
X112085978Y-104076807D01*
X112071255Y-104083640D01*
X112057926Y-104089330D01*
X112045922Y-104095626D01*
X112035173Y-104104272D01*
X112025611Y-104117014D01*
X112017167Y-104135600D01*
X112009771Y-104161774D01*
X112003354Y-104197284D01*
X111997848Y-104243875D01*
X111993183Y-104303293D01*
X111989291Y-104377285D01*
X111986102Y-104467597D01*
X111983547Y-104575975D01*
X111981558Y-104704165D01*
X111980065Y-104853913D01*
X111978998Y-105026966D01*
X111978291Y-105225069D01*
X111977872Y-105449969D01*
X111977673Y-105703412D01*
X111977626Y-105987144D01*
X111977660Y-106302911D01*
G36*
X112885231Y-114754378D02*
G01*
X112906649Y-114950019D01*
X112944985Y-115139562D01*
X113002238Y-115330717D01*
X113080409Y-115531196D01*
X113181496Y-115748708D01*
X113201076Y-115787880D01*
X113245362Y-115877772D01*
X113285239Y-115962553D01*
X113316898Y-116033855D01*
X113336532Y-116083310D01*
X113339004Y-116090908D01*
X113360817Y-116163714D01*
X113834944Y-115837803D01*
X113950823Y-115758123D01*
X114056694Y-115685272D01*
X114148962Y-115621730D01*
X114224033Y-115569972D01*
X114278313Y-115532477D01*
X114308207Y-115511723D01*
X114312941Y-115508351D01*
X114303042Y-115494655D01*
X114273285Y-115460943D01*
X114229073Y-115413244D01*
X114204084Y-115386920D01*
X114085456Y-115237772D01*
X113995313Y-115070268D01*
X113945936Y-114925928D01*
X113930429Y-114839283D01*
X113920979Y-114730796D01*
X113917761Y-114613227D01*
X113920951Y-114499334D01*
X113930724Y-114401879D01*
X113938209Y-114362990D01*
X113998512Y-114187712D01*
X114090590Y-114029765D01*
X114214273Y-113889268D01*
X114369393Y-113766335D01*
X114555781Y-113661085D01*
X114773270Y-113573635D01*
X115021692Y-113504100D01*
X115234357Y-113462775D01*
X115328241Y-113451994D01*
X115449524Y-113444648D01*
X115589493Y-113440667D01*
X115739431Y-113439979D01*
X115890622Y-113442514D01*
X116034351Y-113448200D01*
X116161903Y-113456967D01*
X116264562Y-113468744D01*
X116280401Y-113471293D01*
X116535536Y-113527481D01*
X116761342Y-113604036D01*
X116958831Y-113701426D01*
X117129014Y-113820114D01*
X117221022Y-113904363D01*
X117345943Y-114055770D01*
X117438540Y-114221817D01*
X117498309Y-114399701D01*
X117524746Y-114586622D01*
X117517348Y-114779778D01*
X117475611Y-114976369D01*
X117434771Y-115092597D01*
X117352990Y-115253438D01*
X117235678Y-115419213D01*
X117156345Y-115512073D01*
X117110429Y-115564214D01*
X117076742Y-115605180D01*
X117060510Y-115628498D01*
X117060015Y-115631393D01*
X117076601Y-115641800D01*
X117120432Y-115668767D01*
X117187748Y-115709996D01*
X117274794Y-115763189D01*
X117377810Y-115826050D01*
X117493041Y-115896281D01*
X117557231Y-115935372D01*
X118047677Y-116233964D01*
X118231915Y-115861161D01*
X118298093Y-115726369D01*
X118350278Y-115617175D01*
X118391060Y-115526907D01*
X118423033Y-115448888D01*
X118448787Y-115376444D01*
X118470914Y-115302901D01*
X118492007Y-115221584D01*
X118510530Y-115143643D01*
X118524863Y-115074366D01*
X118535694Y-115001917D01*
X118543626Y-114919042D01*
X118549258Y-114818488D01*
X118553192Y-114693003D01*
X118554891Y-114608428D01*
X118556050Y-114487754D01*
X118555465Y-114372042D01*
X118553304Y-114268951D01*
X118549732Y-114186138D01*
X118544917Y-114131260D01*
X118544437Y-114128008D01*
X118482786Y-113843043D01*
X118389285Y-113575442D01*
X118263993Y-113325297D01*
X118106974Y-113092704D01*
X117918289Y-112877757D01*
X117698000Y-112680550D01*
X117502214Y-112537727D01*
X117245949Y-112385680D01*
X116975317Y-112262773D01*
X116688149Y-112168410D01*
X116382276Y-112101999D01*
X116055528Y-112062944D01*
X115723739Y-112050640D01*
X115402779Y-112060759D01*
X115106646Y-112092561D01*
X114830345Y-112147054D01*
X114568881Y-112225250D01*
X114317258Y-112328159D01*
X114291190Y-112340447D01*
X114047507Y-112475820D01*
X113815618Y-112642089D01*
X113600323Y-112834541D01*
X113406422Y-113048466D01*
X113238715Y-113279155D01*
X113115696Y-113494109D01*
X113019345Y-113711258D01*
X112949551Y-113928868D01*
X112904413Y-114155362D01*
X112882031Y-114399166D01*
X112878731Y-114544928D01*
X112885231Y-114754378D01*
G37*
X112885231Y-114754378D02*
X112906649Y-114950019D01*
X112944985Y-115139562D01*
X113002238Y-115330717D01*
X113080409Y-115531196D01*
X113181496Y-115748708D01*
X113201076Y-115787880D01*
X113245362Y-115877772D01*
X113285239Y-115962553D01*
X113316898Y-116033855D01*
X113336532Y-116083310D01*
X113339004Y-116090908D01*
X113360817Y-116163714D01*
X113834944Y-115837803D01*
X113950823Y-115758123D01*
X114056694Y-115685272D01*
X114148962Y-115621730D01*
X114224033Y-115569972D01*
X114278313Y-115532477D01*
X114308207Y-115511723D01*
X114312941Y-115508351D01*
X114303042Y-115494655D01*
X114273285Y-115460943D01*
X114229073Y-115413244D01*
X114204084Y-115386920D01*
X114085456Y-115237772D01*
X113995313Y-115070268D01*
X113945936Y-114925928D01*
X113930429Y-114839283D01*
X113920979Y-114730796D01*
X113917761Y-114613227D01*
X113920951Y-114499334D01*
X113930724Y-114401879D01*
X113938209Y-114362990D01*
X113998512Y-114187712D01*
X114090590Y-114029765D01*
X114214273Y-113889268D01*
X114369393Y-113766335D01*
X114555781Y-113661085D01*
X114773270Y-113573635D01*
X115021692Y-113504100D01*
X115234357Y-113462775D01*
X115328241Y-113451994D01*
X115449524Y-113444648D01*
X115589493Y-113440667D01*
X115739431Y-113439979D01*
X115890622Y-113442514D01*
X116034351Y-113448200D01*
X116161903Y-113456967D01*
X116264562Y-113468744D01*
X116280401Y-113471293D01*
X116535536Y-113527481D01*
X116761342Y-113604036D01*
X116958831Y-113701426D01*
X117129014Y-113820114D01*
X117221022Y-113904363D01*
X117345943Y-114055770D01*
X117438540Y-114221817D01*
X117498309Y-114399701D01*
X117524746Y-114586622D01*
X117517348Y-114779778D01*
X117475611Y-114976369D01*
X117434771Y-115092597D01*
X117352990Y-115253438D01*
X117235678Y-115419213D01*
X117156345Y-115512073D01*
X117110429Y-115564214D01*
X117076742Y-115605180D01*
X117060510Y-115628498D01*
X117060015Y-115631393D01*
X117076601Y-115641800D01*
X117120432Y-115668767D01*
X117187748Y-115709996D01*
X117274794Y-115763189D01*
X117377810Y-115826050D01*
X117493041Y-115896281D01*
X117557231Y-115935372D01*
X118047677Y-116233964D01*
X118231915Y-115861161D01*
X118298093Y-115726369D01*
X118350278Y-115617175D01*
X118391060Y-115526907D01*
X118423033Y-115448888D01*
X118448787Y-115376444D01*
X118470914Y-115302901D01*
X118492007Y-115221584D01*
X118510530Y-115143643D01*
X118524863Y-115074366D01*
X118535694Y-115001917D01*
X118543626Y-114919042D01*
X118549258Y-114818488D01*
X118553192Y-114693003D01*
X118554891Y-114608428D01*
X118556050Y-114487754D01*
X118555465Y-114372042D01*
X118553304Y-114268951D01*
X118549732Y-114186138D01*
X118544917Y-114131260D01*
X118544437Y-114128008D01*
X118482786Y-113843043D01*
X118389285Y-113575442D01*
X118263993Y-113325297D01*
X118106974Y-113092704D01*
X117918289Y-112877757D01*
X117698000Y-112680550D01*
X117502214Y-112537727D01*
X117245949Y-112385680D01*
X116975317Y-112262773D01*
X116688149Y-112168410D01*
X116382276Y-112101999D01*
X116055528Y-112062944D01*
X115723739Y-112050640D01*
X115402779Y-112060759D01*
X115106646Y-112092561D01*
X114830345Y-112147054D01*
X114568881Y-112225250D01*
X114317258Y-112328159D01*
X114291190Y-112340447D01*
X114047507Y-112475820D01*
X113815618Y-112642089D01*
X113600323Y-112834541D01*
X113406422Y-113048466D01*
X113238715Y-113279155D01*
X113115696Y-113494109D01*
X113019345Y-113711258D01*
X112949551Y-113928868D01*
X112904413Y-114155362D01*
X112882031Y-114399166D01*
X112878731Y-114544928D01*
X112885231Y-114754378D01*
G36*
X114343730Y-118358632D02*
G01*
X114350535Y-118448523D01*
X114384753Y-118705715D01*
X114439331Y-118933485D01*
X114515020Y-119132943D01*
X114612570Y-119305197D01*
X114732732Y-119451359D01*
X114876258Y-119572536D01*
X115043898Y-119669839D01*
X115225286Y-119740891D01*
X115283146Y-119758927D01*
X115337329Y-119774632D01*
X115390752Y-119788192D01*
X115446333Y-119799792D01*
X115506988Y-119809617D01*
X115575635Y-119817853D01*
X115655190Y-119824684D01*
X115748572Y-119830295D01*
X115858696Y-119834872D01*
X115988481Y-119838600D01*
X116140842Y-119841665D01*
X116318698Y-119844250D01*
X116524965Y-119846542D01*
X116762561Y-119848725D01*
X116948857Y-119850286D01*
X118227929Y-119860785D01*
X118351018Y-119928821D01*
X118410317Y-119961038D01*
X118456377Y-119985012D01*
X118480893Y-119996450D01*
X118482553Y-119996857D01*
X118484454Y-119979375D01*
X118486205Y-119929574D01*
X118487758Y-119851421D01*
X118489062Y-119748882D01*
X118490070Y-119625922D01*
X118490731Y-119486510D01*
X118490997Y-119334611D01*
X118491000Y-119316500D01*
X118491000Y-118636143D01*
X118336786Y-118636143D01*
X118267094Y-118634982D01*
X118213794Y-118631887D01*
X118185217Y-118627432D01*
X118182572Y-118625463D01*
X118193653Y-118607455D01*
X118222736Y-118570393D01*
X118263579Y-118522222D01*
X118264524Y-118521141D01*
X118329971Y-118433235D01*
X118395688Y-118322217D01*
X118455219Y-118200631D01*
X118502109Y-118081021D01*
X118518133Y-118028357D01*
X118538485Y-117923551D01*
X118551472Y-117794950D01*
X118556909Y-117654325D01*
X118554611Y-117513448D01*
X118544392Y-117384093D01*
X118529689Y-117293571D01*
X118464499Y-117071580D01*
X118371594Y-116871729D01*
X118252126Y-116695319D01*
X118107247Y-116543650D01*
X117938110Y-116418024D01*
X117745867Y-116319741D01*
X117629214Y-116277341D01*
X117515833Y-116250768D01*
X117379722Y-116233158D01*
X117233437Y-116225010D01*
X117212151Y-116225278D01*
X117212151Y-117452321D01*
X117320850Y-117462496D01*
X117411185Y-117496378D01*
X117494995Y-117559000D01*
X117519571Y-117583052D01*
X117586011Y-117668551D01*
X117628574Y-117767373D01*
X117649177Y-117885768D01*
X117650694Y-118010445D01*
X117640677Y-118128698D01*
X117621085Y-118219239D01*
X117606370Y-118258560D01*
X117566265Y-118329432D01*
X117509863Y-118404525D01*
X117446561Y-118473038D01*
X117385755Y-118524172D01*
X117363449Y-118537750D01*
X117332212Y-118548305D01*
X117282507Y-118555810D01*
X117209587Y-118560613D01*
X117108703Y-118563065D01*
X117012689Y-118563571D01*
X116900750Y-118563228D01*
X116819809Y-118561843D01*
X116764585Y-118558881D01*
X116729794Y-118553808D01*
X116710154Y-118546090D01*
X116700380Y-118535192D01*
X116698824Y-118531821D01*
X116694029Y-118502529D01*
X116690108Y-118444756D01*
X116687414Y-118366304D01*
X116686299Y-118274974D01*
X116686298Y-118255143D01*
X116688246Y-118133063D01*
X116694041Y-118038749D01*
X116704475Y-117963807D01*
X116719714Y-117901903D01*
X116777784Y-117748349D01*
X116849179Y-117627932D01*
X116935039Y-117539610D01*
X117036507Y-117482339D01*
X117154725Y-117455078D01*
X117212151Y-117452321D01*
X117212151Y-116225278D01*
X117089533Y-116226823D01*
X116960565Y-116239096D01*
X116908460Y-116248670D01*
X116714997Y-116309801D01*
X116536993Y-116402757D01*
X116376155Y-116525783D01*
X116234190Y-116677124D01*
X116112806Y-116855025D01*
X116013709Y-117057732D01*
X115953533Y-117230071D01*
X115921919Y-117345253D01*
X115897354Y-117455423D01*
X115879039Y-117567719D01*
X115866178Y-117689275D01*
X115857972Y-117827229D01*
X115853624Y-117988715D01*
X115852400Y-118134715D01*
X115851215Y-118567645D01*
X115721080Y-118559351D01*
X115579883Y-118535801D01*
X115458518Y-118485703D01*
X115360017Y-118411191D01*
X115287409Y-118314399D01*
X115251979Y-118229171D01*
X115229650Y-118107056D01*
X115226443Y-117961683D01*
X115241177Y-117799867D01*
X115272670Y-117628422D01*
X115319740Y-117454163D01*
X115381203Y-117283904D01*
X115437417Y-117160176D01*
X115466283Y-117100647D01*
X115486443Y-117055242D01*
X115494310Y-117032150D01*
X115494058Y-117030897D01*
X115476437Y-117022929D01*
X115429733Y-117003031D01*
X115358418Y-116973077D01*
X115266969Y-116934939D01*
X115159859Y-116890488D01*
X115050549Y-116845305D01*
X114612740Y-116664667D01*
X114591636Y-116793155D01*
X114581047Y-116848846D01*
X114563263Y-116932564D01*
X114539898Y-117037139D01*
X114512565Y-117155399D01*
X114482881Y-117280172D01*
X114470818Y-117329857D01*
X114420962Y-117544807D01*
X114383584Y-117732995D01*
X114357927Y-117901446D01*
X114343235Y-118057186D01*
X114338755Y-118207240D01*
X114343730Y-118358632D01*
G37*
X114343730Y-118358632D02*
X114350535Y-118448523D01*
X114384753Y-118705715D01*
X114439331Y-118933485D01*
X114515020Y-119132943D01*
X114612570Y-119305197D01*
X114732732Y-119451359D01*
X114876258Y-119572536D01*
X115043898Y-119669839D01*
X115225286Y-119740891D01*
X115283146Y-119758927D01*
X115337329Y-119774632D01*
X115390752Y-119788192D01*
X115446333Y-119799792D01*
X115506988Y-119809617D01*
X115575635Y-119817853D01*
X115655190Y-119824684D01*
X115748572Y-119830295D01*
X115858696Y-119834872D01*
X115988481Y-119838600D01*
X116140842Y-119841665D01*
X116318698Y-119844250D01*
X116524965Y-119846542D01*
X116762561Y-119848725D01*
X116948857Y-119850286D01*
X118227929Y-119860785D01*
X118351018Y-119928821D01*
X118410317Y-119961038D01*
X118456377Y-119985012D01*
X118480893Y-119996450D01*
X118482553Y-119996857D01*
X118484454Y-119979375D01*
X118486205Y-119929574D01*
X118487758Y-119851421D01*
X118489062Y-119748882D01*
X118490070Y-119625922D01*
X118490731Y-119486510D01*
X118490997Y-119334611D01*
X118491000Y-119316500D01*
X118491000Y-118636143D01*
X118336786Y-118636143D01*
X118267094Y-118634982D01*
X118213794Y-118631887D01*
X118185217Y-118627432D01*
X118182572Y-118625463D01*
X118193653Y-118607455D01*
X118222736Y-118570393D01*
X118263579Y-118522222D01*
X118264524Y-118521141D01*
X118329971Y-118433235D01*
X118395688Y-118322217D01*
X118455219Y-118200631D01*
X118502109Y-118081021D01*
X118518133Y-118028357D01*
X118538485Y-117923551D01*
X118551472Y-117794950D01*
X118556909Y-117654325D01*
X118554611Y-117513448D01*
X118544392Y-117384093D01*
X118529689Y-117293571D01*
X118464499Y-117071580D01*
X118371594Y-116871729D01*
X118252126Y-116695319D01*
X118107247Y-116543650D01*
X117938110Y-116418024D01*
X117745867Y-116319741D01*
X117629214Y-116277341D01*
X117515833Y-116250768D01*
X117379722Y-116233158D01*
X117233437Y-116225010D01*
X117212151Y-116225278D01*
X117212151Y-117452321D01*
X117320850Y-117462496D01*
X117411185Y-117496378D01*
X117494995Y-117559000D01*
X117519571Y-117583052D01*
X117586011Y-117668551D01*
X117628574Y-117767373D01*
X117649177Y-117885768D01*
X117650694Y-118010445D01*
X117640677Y-118128698D01*
X117621085Y-118219239D01*
X117606370Y-118258560D01*
X117566265Y-118329432D01*
X117509863Y-118404525D01*
X117446561Y-118473038D01*
X117385755Y-118524172D01*
X117363449Y-118537750D01*
X117332212Y-118548305D01*
X117282507Y-118555810D01*
X117209587Y-118560613D01*
X117108703Y-118563065D01*
X117012689Y-118563571D01*
X116900750Y-118563228D01*
X116819809Y-118561843D01*
X116764585Y-118558881D01*
X116729794Y-118553808D01*
X116710154Y-118546090D01*
X116700380Y-118535192D01*
X116698824Y-118531821D01*
X116694029Y-118502529D01*
X116690108Y-118444756D01*
X116687414Y-118366304D01*
X116686299Y-118274974D01*
X116686298Y-118255143D01*
X116688246Y-118133063D01*
X116694041Y-118038749D01*
X116704475Y-117963807D01*
X116719714Y-117901903D01*
X116777784Y-117748349D01*
X116849179Y-117627932D01*
X116935039Y-117539610D01*
X117036507Y-117482339D01*
X117154725Y-117455078D01*
X117212151Y-117452321D01*
X117212151Y-116225278D01*
X117089533Y-116226823D01*
X116960565Y-116239096D01*
X116908460Y-116248670D01*
X116714997Y-116309801D01*
X116536993Y-116402757D01*
X116376155Y-116525783D01*
X116234190Y-116677124D01*
X116112806Y-116855025D01*
X116013709Y-117057732D01*
X115953533Y-117230071D01*
X115921919Y-117345253D01*
X115897354Y-117455423D01*
X115879039Y-117567719D01*
X115866178Y-117689275D01*
X115857972Y-117827229D01*
X115853624Y-117988715D01*
X115852400Y-118134715D01*
X115851215Y-118567645D01*
X115721080Y-118559351D01*
X115579883Y-118535801D01*
X115458518Y-118485703D01*
X115360017Y-118411191D01*
X115287409Y-118314399D01*
X115251979Y-118229171D01*
X115229650Y-118107056D01*
X115226443Y-117961683D01*
X115241177Y-117799867D01*
X115272670Y-117628422D01*
X115319740Y-117454163D01*
X115381203Y-117283904D01*
X115437417Y-117160176D01*
X115466283Y-117100647D01*
X115486443Y-117055242D01*
X115494310Y-117032150D01*
X115494058Y-117030897D01*
X115476437Y-117022929D01*
X115429733Y-117003031D01*
X115358418Y-116973077D01*
X115266969Y-116934939D01*
X115159859Y-116890488D01*
X115050549Y-116845305D01*
X114612740Y-116664667D01*
X114591636Y-116793155D01*
X114581047Y-116848846D01*
X114563263Y-116932564D01*
X114539898Y-117037139D01*
X114512565Y-117155399D01*
X114482881Y-117280172D01*
X114470818Y-117329857D01*
X114420962Y-117544807D01*
X114383584Y-117732995D01*
X114357927Y-117901446D01*
X114343235Y-118057186D01*
X114338755Y-118207240D01*
X114343730Y-118358632D01*
G36*
X112616089Y-123214571D02*
G01*
X112616723Y-123368876D01*
X112617042Y-123421321D01*
X112621786Y-124142500D01*
X115388572Y-124151571D01*
X115763756Y-124152769D01*
X116104417Y-124153832D01*
X116412318Y-124154827D01*
X116689221Y-124155823D01*
X116936888Y-124156888D01*
X117157081Y-124158091D01*
X117351562Y-124159499D01*
X117522094Y-124161182D01*
X117670440Y-124163206D01*
X117798361Y-124165641D01*
X117907620Y-124168554D01*
X117999979Y-124172015D01*
X118077200Y-124176090D01*
X118141046Y-124180849D01*
X118193278Y-124186360D01*
X118235660Y-124192691D01*
X118269953Y-124199910D01*
X118297920Y-124208085D01*
X118321324Y-124217285D01*
X118341925Y-124227577D01*
X118361487Y-124239031D01*
X118381772Y-124251715D01*
X118404543Y-124265695D01*
X118409393Y-124268561D01*
X118491433Y-124316640D01*
X118481929Y-122926928D01*
X118329295Y-122917857D01*
X118256045Y-122912918D01*
X118213696Y-122907771D01*
X118196892Y-122900786D01*
X118200277Y-122890337D01*
X118209960Y-122881571D01*
X118245229Y-122843388D01*
X118290563Y-122781155D01*
X118340546Y-122703641D01*
X118389761Y-122619613D01*
X118432791Y-122537839D01*
X118461101Y-122475052D01*
X118507624Y-122327954D01*
X118540579Y-122159180D01*
X118558707Y-121981191D01*
X118560750Y-121806447D01*
X118545447Y-121647407D01*
X118545009Y-121644788D01*
X118490402Y-121427168D01*
X118403401Y-121223455D01*
X118285876Y-121035613D01*
X118139697Y-120865607D01*
X117966734Y-120715402D01*
X117768857Y-120586964D01*
X117547936Y-120482257D01*
X117384286Y-120425246D01*
X117247375Y-120387651D01*
X117114798Y-120359771D01*
X116978502Y-120340753D01*
X116830433Y-120329745D01*
X116662537Y-120325895D01*
X116525440Y-120327600D01*
X116525440Y-121666359D01*
X116755329Y-121672694D01*
X116953111Y-121692679D01*
X117120539Y-121726927D01*
X117259369Y-121776055D01*
X117371358Y-121840676D01*
X117458259Y-121921405D01*
X117519692Y-122014591D01*
X117542626Y-122063080D01*
X117556375Y-122105134D01*
X117562666Y-122152020D01*
X117563222Y-122215004D01*
X117560773Y-122282857D01*
X117549004Y-122416295D01*
X117525955Y-122521832D01*
X117514410Y-122555000D01*
X117480311Y-122630735D01*
X117437491Y-122710614D01*
X117416057Y-122745500D01*
X117356556Y-122836214D01*
X115470584Y-122836214D01*
X115410771Y-122736428D01*
X115343185Y-122597267D01*
X115303214Y-122455087D01*
X115290622Y-122315090D01*
X115305173Y-122182474D01*
X115346632Y-122062440D01*
X115414763Y-121960188D01*
X115447466Y-121927195D01*
X115554619Y-121847667D01*
X115684327Y-121783299D01*
X115838814Y-121733553D01*
X116020302Y-121697891D01*
X116231015Y-121675775D01*
X116473175Y-121666667D01*
X116525440Y-121666359D01*
X116525440Y-120327600D01*
X116468374Y-120328310D01*
X116169713Y-120343605D01*
X115900325Y-120374358D01*
X115656285Y-120421381D01*
X115433670Y-120485482D01*
X115228556Y-120567472D01*
X115167746Y-120596730D01*
X114969440Y-120714581D01*
X114793212Y-120856996D01*
X114641908Y-121020629D01*
X114518371Y-121202131D01*
X114425447Y-121398153D01*
X114387115Y-121515655D01*
X114364359Y-121631054D01*
X114350820Y-121769907D01*
X114346492Y-121920574D01*
X114351368Y-122071413D01*
X114365444Y-122210785D01*
X114387525Y-122322691D01*
X114430828Y-122455884D01*
X114486511Y-122584979D01*
X114548936Y-122697928D01*
X114591303Y-122758043D01*
X114622807Y-122799510D01*
X114641990Y-122828545D01*
X114644714Y-122835150D01*
X114627163Y-122837198D01*
X114576875Y-122839107D01*
X114497400Y-122840836D01*
X114392286Y-122842341D01*
X114265083Y-122843581D01*
X114119339Y-122844513D01*
X113958603Y-122845095D01*
X113794884Y-122845286D01*
X113585188Y-122845179D01*
X113408396Y-122844658D01*
X113261126Y-122843416D01*
X113139997Y-122841148D01*
X113041627Y-122837550D01*
X112962634Y-122832317D01*
X112899638Y-122825144D01*
X112849255Y-122815726D01*
X112808105Y-122803758D01*
X112772806Y-122788935D01*
X112739977Y-122770952D01*
X112706235Y-122749505D01*
X112702057Y-122746745D01*
X112658356Y-122719083D01*
X112628305Y-122702382D01*
X112621967Y-122700143D01*
X112619967Y-122717643D01*
X112618340Y-122767574D01*
X112617112Y-122846085D01*
X112616311Y-122949323D01*
X112615961Y-123073436D01*
X112616089Y-123214571D01*
G37*
X112616089Y-123214571D02*
X112616723Y-123368876D01*
X112617042Y-123421321D01*
X112621786Y-124142500D01*
X115388572Y-124151571D01*
X115763756Y-124152769D01*
X116104417Y-124153832D01*
X116412318Y-124154827D01*
X116689221Y-124155823D01*
X116936888Y-124156888D01*
X117157081Y-124158091D01*
X117351562Y-124159499D01*
X117522094Y-124161182D01*
X117670440Y-124163206D01*
X117798361Y-124165641D01*
X117907620Y-124168554D01*
X117999979Y-124172015D01*
X118077200Y-124176090D01*
X118141046Y-124180849D01*
X118193278Y-124186360D01*
X118235660Y-124192691D01*
X118269953Y-124199910D01*
X118297920Y-124208085D01*
X118321324Y-124217285D01*
X118341925Y-124227577D01*
X118361487Y-124239031D01*
X118381772Y-124251715D01*
X118404543Y-124265695D01*
X118409393Y-124268561D01*
X118491433Y-124316640D01*
X118481929Y-122926928D01*
X118329295Y-122917857D01*
X118256045Y-122912918D01*
X118213696Y-122907771D01*
X118196892Y-122900786D01*
X118200277Y-122890337D01*
X118209960Y-122881571D01*
X118245229Y-122843388D01*
X118290563Y-122781155D01*
X118340546Y-122703641D01*
X118389761Y-122619613D01*
X118432791Y-122537839D01*
X118461101Y-122475052D01*
X118507624Y-122327954D01*
X118540579Y-122159180D01*
X118558707Y-121981191D01*
X118560750Y-121806447D01*
X118545447Y-121647407D01*
X118545009Y-121644788D01*
X118490402Y-121427168D01*
X118403401Y-121223455D01*
X118285876Y-121035613D01*
X118139697Y-120865607D01*
X117966734Y-120715402D01*
X117768857Y-120586964D01*
X117547936Y-120482257D01*
X117384286Y-120425246D01*
X117247375Y-120387651D01*
X117114798Y-120359771D01*
X116978502Y-120340753D01*
X116830433Y-120329745D01*
X116662537Y-120325895D01*
X116525440Y-120327600D01*
X116525440Y-121666359D01*
X116755329Y-121672694D01*
X116953111Y-121692679D01*
X117120539Y-121726927D01*
X117259369Y-121776055D01*
X117371358Y-121840676D01*
X117458259Y-121921405D01*
X117519692Y-122014591D01*
X117542626Y-122063080D01*
X117556375Y-122105134D01*
X117562666Y-122152020D01*
X117563222Y-122215004D01*
X117560773Y-122282857D01*
X117549004Y-122416295D01*
X117525955Y-122521832D01*
X117514410Y-122555000D01*
X117480311Y-122630735D01*
X117437491Y-122710614D01*
X117416057Y-122745500D01*
X117356556Y-122836214D01*
X115470584Y-122836214D01*
X115410771Y-122736428D01*
X115343185Y-122597267D01*
X115303214Y-122455087D01*
X115290622Y-122315090D01*
X115305173Y-122182474D01*
X115346632Y-122062440D01*
X115414763Y-121960188D01*
X115447466Y-121927195D01*
X115554619Y-121847667D01*
X115684327Y-121783299D01*
X115838814Y-121733553D01*
X116020302Y-121697891D01*
X116231015Y-121675775D01*
X116473175Y-121666667D01*
X116525440Y-121666359D01*
X116525440Y-120327600D01*
X116468374Y-120328310D01*
X116169713Y-120343605D01*
X115900325Y-120374358D01*
X115656285Y-120421381D01*
X115433670Y-120485482D01*
X115228556Y-120567472D01*
X115167746Y-120596730D01*
X114969440Y-120714581D01*
X114793212Y-120856996D01*
X114641908Y-121020629D01*
X114518371Y-121202131D01*
X114425447Y-121398153D01*
X114387115Y-121515655D01*
X114364359Y-121631054D01*
X114350820Y-121769907D01*
X114346492Y-121920574D01*
X114351368Y-122071413D01*
X114365444Y-122210785D01*
X114387525Y-122322691D01*
X114430828Y-122455884D01*
X114486511Y-122584979D01*
X114548936Y-122697928D01*
X114591303Y-122758043D01*
X114622807Y-122799510D01*
X114641990Y-122828545D01*
X114644714Y-122835150D01*
X114627163Y-122837198D01*
X114576875Y-122839107D01*
X114497400Y-122840836D01*
X114392286Y-122842341D01*
X114265083Y-122843581D01*
X114119339Y-122844513D01*
X113958603Y-122845095D01*
X113794884Y-122845286D01*
X113585188Y-122845179D01*
X113408396Y-122844658D01*
X113261126Y-122843416D01*
X113139997Y-122841148D01*
X113041627Y-122837550D01*
X112962634Y-122832317D01*
X112899638Y-122825144D01*
X112849255Y-122815726D01*
X112808105Y-122803758D01*
X112772806Y-122788935D01*
X112739977Y-122770952D01*
X112706235Y-122749505D01*
X112702057Y-122746745D01*
X112658356Y-122719083D01*
X112628305Y-122702382D01*
X112621967Y-122700143D01*
X112619967Y-122717643D01*
X112618340Y-122767574D01*
X112617112Y-122846085D01*
X112616311Y-122949323D01*
X112615961Y-123073436D01*
X112616089Y-123214571D01*
G36*
X111399933Y-110570682D02*
G01*
X111447172Y-110706929D01*
X111521527Y-110833779D01*
X111622987Y-110947067D01*
X111751543Y-111042628D01*
X111832572Y-111085554D01*
X111945908Y-111122705D01*
X112076751Y-111140712D01*
X112211265Y-111138717D01*
X112333158Y-111116577D01*
X112482107Y-111056064D01*
X112611309Y-110968314D01*
X112718223Y-110857788D01*
X112800306Y-110728946D01*
X112855016Y-110586247D01*
X112879810Y-110434151D01*
X112872147Y-110277119D01*
X112855772Y-110199714D01*
X112797089Y-110048859D01*
X112707543Y-109914875D01*
X112589893Y-109800994D01*
X112446902Y-109710448D01*
X112431286Y-109702788D01*
X112372686Y-109676306D01*
X112323334Y-109659678D01*
X112271270Y-109650650D01*
X112204539Y-109646968D01*
X112131929Y-109646357D01*
X112044691Y-109647367D01*
X111981624Y-109651928D01*
X111930636Y-109662334D01*
X111879633Y-109680879D01*
X111829313Y-109703770D01*
X111686470Y-109789154D01*
X111570810Y-109894301D01*
X111482325Y-110015045D01*
X111421005Y-110147221D01*
X111386839Y-110286663D01*
X111379818Y-110429205D01*
X111399933Y-110570682D01*
G37*
X111399933Y-110570682D02*
X111447172Y-110706929D01*
X111521527Y-110833779D01*
X111622987Y-110947067D01*
X111751543Y-111042628D01*
X111832572Y-111085554D01*
X111945908Y-111122705D01*
X112076751Y-111140712D01*
X112211265Y-111138717D01*
X112333158Y-111116577D01*
X112482107Y-111056064D01*
X112611309Y-110968314D01*
X112718223Y-110857788D01*
X112800306Y-110728946D01*
X112855016Y-110586247D01*
X112879810Y-110434151D01*
X112872147Y-110277119D01*
X112855772Y-110199714D01*
X112797089Y-110048859D01*
X112707543Y-109914875D01*
X112589893Y-109800994D01*
X112446902Y-109710448D01*
X112431286Y-109702788D01*
X112372686Y-109676306D01*
X112323334Y-109659678D01*
X112271270Y-109650650D01*
X112204539Y-109646968D01*
X112131929Y-109646357D01*
X112044691Y-109647367D01*
X111981624Y-109651928D01*
X111930636Y-109662334D01*
X111879633Y-109680879D01*
X111829313Y-109703770D01*
X111686470Y-109789154D01*
X111570810Y-109894301D01*
X111482325Y-110015045D01*
X111421005Y-110147221D01*
X111386839Y-110286663D01*
X111379818Y-110429205D01*
X111399933Y-110570682D01*
G36*
X119929688Y-122640859D02*
G01*
X119959301Y-122682635D01*
X119996192Y-122719525D01*
X120408162Y-122719525D01*
X120530486Y-122719429D01*
X120626398Y-122718972D01*
X120699544Y-122717903D01*
X120753570Y-122715971D01*
X120792123Y-122712923D01*
X120818848Y-122708509D01*
X120837394Y-122702476D01*
X120851405Y-122694574D01*
X120859733Y-122688375D01*
X120892449Y-122647461D01*
X120896000Y-122600482D01*
X120875937Y-122557544D01*
X120864092Y-122543356D01*
X120848358Y-122533872D01*
X120823022Y-122528151D01*
X120782370Y-122525253D01*
X120720688Y-122524238D01*
X120673038Y-122524141D01*
X120493535Y-122524141D01*
X120493535Y-121862839D01*
X120656833Y-121862839D01*
X120731505Y-121862155D01*
X120782824Y-121859419D01*
X120817477Y-121853604D01*
X120842155Y-121843684D01*
X120859733Y-121831689D01*
X120892357Y-121790546D01*
X120896220Y-121744017D01*
X120873032Y-121699473D01*
X120860876Y-121687312D01*
X120844761Y-121678723D01*
X120819660Y-121673058D01*
X120780544Y-121669669D01*
X120722386Y-121667908D01*
X120640158Y-121667128D01*
X120621286Y-121667036D01*
X120466357Y-121666392D01*
X120338674Y-121666060D01*
X120235427Y-121666168D01*
X120153803Y-121666845D01*
X120090992Y-121668218D01*
X120044181Y-121670416D01*
X120010559Y-121673566D01*
X119987315Y-121677798D01*
X119971636Y-121683238D01*
X119960711Y-121690015D01*
X119952470Y-121697514D01*
X119926107Y-121739933D01*
X119929688Y-121784172D01*
X119959301Y-121825948D01*
X119978407Y-121842853D01*
X119999511Y-121853629D01*
X120029568Y-121859641D01*
X120075533Y-121862256D01*
X120144360Y-121862839D01*
X120298150Y-121862839D01*
X120298150Y-122524141D01*
X120140339Y-122524141D01*
X120067636Y-122524816D01*
X120018545Y-122527526D01*
X119986636Y-122533301D01*
X119965478Y-122543169D01*
X119952470Y-122554200D01*
X119926107Y-122596619D01*
X119929688Y-122640859D01*
G37*
X119929688Y-122640859D02*
X119959301Y-122682635D01*
X119996192Y-122719525D01*
X120408162Y-122719525D01*
X120530486Y-122719429D01*
X120626398Y-122718972D01*
X120699544Y-122717903D01*
X120753570Y-122715971D01*
X120792123Y-122712923D01*
X120818848Y-122708509D01*
X120837394Y-122702476D01*
X120851405Y-122694574D01*
X120859733Y-122688375D01*
X120892449Y-122647461D01*
X120896000Y-122600482D01*
X120875937Y-122557544D01*
X120864092Y-122543356D01*
X120848358Y-122533872D01*
X120823022Y-122528151D01*
X120782370Y-122525253D01*
X120720688Y-122524238D01*
X120673038Y-122524141D01*
X120493535Y-122524141D01*
X120493535Y-121862839D01*
X120656833Y-121862839D01*
X120731505Y-121862155D01*
X120782824Y-121859419D01*
X120817477Y-121853604D01*
X120842155Y-121843684D01*
X120859733Y-121831689D01*
X120892357Y-121790546D01*
X120896220Y-121744017D01*
X120873032Y-121699473D01*
X120860876Y-121687312D01*
X120844761Y-121678723D01*
X120819660Y-121673058D01*
X120780544Y-121669669D01*
X120722386Y-121667908D01*
X120640158Y-121667128D01*
X120621286Y-121667036D01*
X120466357Y-121666392D01*
X120338674Y-121666060D01*
X120235427Y-121666168D01*
X120153803Y-121666845D01*
X120090992Y-121668218D01*
X120044181Y-121670416D01*
X120010559Y-121673566D01*
X119987315Y-121677798D01*
X119971636Y-121683238D01*
X119960711Y-121690015D01*
X119952470Y-121697514D01*
X119926107Y-121739933D01*
X119929688Y-121784172D01*
X119959301Y-121825948D01*
X119978407Y-121842853D01*
X119999511Y-121853629D01*
X120029568Y-121859641D01*
X120075533Y-121862256D01*
X120144360Y-121862839D01*
X120298150Y-121862839D01*
X120298150Y-122524141D01*
X120140339Y-122524141D01*
X120067636Y-122524816D01*
X120018545Y-122527526D01*
X119986636Y-122533301D01*
X119965478Y-122543169D01*
X119952470Y-122554200D01*
X119926107Y-122596619D01*
X119929688Y-122640859D01*
G36*
X119922539Y-120955677D02*
G01*
X119923043Y-121060465D01*
X119924096Y-121141799D01*
X119925876Y-121202980D01*
X119928557Y-121247311D01*
X119932314Y-121278094D01*
X119937325Y-121298631D01*
X119943763Y-121312225D01*
X119948712Y-121318803D01*
X119992029Y-121352944D01*
X120037003Y-121357074D01*
X120077860Y-121335976D01*
X120094186Y-121322179D01*
X120105318Y-121307332D01*
X120112250Y-121285815D01*
X120115977Y-121252008D01*
X120117494Y-121200292D01*
X120117794Y-121125047D01*
X120117795Y-121110269D01*
X120117795Y-120915975D01*
X120478505Y-120915975D01*
X120592201Y-120915847D01*
X120679685Y-120915266D01*
X120744802Y-120913936D01*
X120791398Y-120911560D01*
X120823319Y-120907844D01*
X120844412Y-120902492D01*
X120858523Y-120895207D01*
X120869274Y-120885916D01*
X120895696Y-120842071D01*
X120893614Y-120796300D01*
X120863469Y-120754790D01*
X120859733Y-120751741D01*
X120845610Y-120741812D01*
X120829086Y-120734248D01*
X120806146Y-120728729D01*
X120772773Y-120724933D01*
X120724955Y-120722542D01*
X120658674Y-120721234D01*
X120569918Y-120720691D01*
X120468963Y-120720591D01*
X120117795Y-120720591D01*
X120117795Y-120535050D01*
X120117256Y-120455427D01*
X120115157Y-120400304D01*
X120110771Y-120364132D01*
X120103376Y-120341362D01*
X120092245Y-120326447D01*
X120090310Y-120324636D01*
X120046057Y-120302858D01*
X119996029Y-120304784D01*
X119952470Y-120329821D01*
X119944020Y-120339504D01*
X119937321Y-120351988D01*
X119932169Y-120370603D01*
X119928361Y-120398677D01*
X119925697Y-120439541D01*
X119923972Y-120496522D01*
X119922984Y-120572952D01*
X119922532Y-120672157D01*
X119922412Y-120797469D01*
X119922410Y-120824133D01*
X119922539Y-120955677D01*
G37*
X119922539Y-120955677D02*
X119923043Y-121060465D01*
X119924096Y-121141799D01*
X119925876Y-121202980D01*
X119928557Y-121247311D01*
X119932314Y-121278094D01*
X119937325Y-121298631D01*
X119943763Y-121312225D01*
X119948712Y-121318803D01*
X119992029Y-121352944D01*
X120037003Y-121357074D01*
X120077860Y-121335976D01*
X120094186Y-121322179D01*
X120105318Y-121307332D01*
X120112250Y-121285815D01*
X120115977Y-121252008D01*
X120117494Y-121200292D01*
X120117794Y-121125047D01*
X120117795Y-121110269D01*
X120117795Y-120915975D01*
X120478505Y-120915975D01*
X120592201Y-120915847D01*
X120679685Y-120915266D01*
X120744802Y-120913936D01*
X120791398Y-120911560D01*
X120823319Y-120907844D01*
X120844412Y-120902492D01*
X120858523Y-120895207D01*
X120869274Y-120885916D01*
X120895696Y-120842071D01*
X120893614Y-120796300D01*
X120863469Y-120754790D01*
X120859733Y-120751741D01*
X120845610Y-120741812D01*
X120829086Y-120734248D01*
X120806146Y-120728729D01*
X120772773Y-120724933D01*
X120724955Y-120722542D01*
X120658674Y-120721234D01*
X120569918Y-120720691D01*
X120468963Y-120720591D01*
X120117795Y-120720591D01*
X120117795Y-120535050D01*
X120117256Y-120455427D01*
X120115157Y-120400304D01*
X120110771Y-120364132D01*
X120103376Y-120341362D01*
X120092245Y-120326447D01*
X120090310Y-120324636D01*
X120046057Y-120302858D01*
X119996029Y-120304784D01*
X119952470Y-120329821D01*
X119944020Y-120339504D01*
X119937321Y-120351988D01*
X119932169Y-120370603D01*
X119928361Y-120398677D01*
X119925697Y-120439541D01*
X119923972Y-120496522D01*
X119922984Y-120572952D01*
X119922532Y-120672157D01*
X119922412Y-120797469D01*
X119922410Y-120824133D01*
X119922539Y-120955677D01*
G36*
X119931477Y-119924604D02*
G01*
X119951142Y-119956174D01*
X119979873Y-119991656D01*
X120407966Y-119991656D01*
X120533190Y-119991543D01*
X120631847Y-119991059D01*
X120707430Y-119989986D01*
X120763433Y-119988108D01*
X120803347Y-119985206D01*
X120830666Y-119981063D01*
X120848881Y-119975462D01*
X120861486Y-119968185D01*
X120867696Y-119963024D01*
X120894980Y-119921168D01*
X120893867Y-119873505D01*
X120870602Y-119831753D01*
X120841871Y-119796271D01*
X119979873Y-119796271D01*
X119951142Y-119831753D01*
X119930242Y-119865998D01*
X119922410Y-119893963D01*
X119931477Y-119924604D01*
G37*
X119931477Y-119924604D02*
X119951142Y-119956174D01*
X119979873Y-119991656D01*
X120407966Y-119991656D01*
X120533190Y-119991543D01*
X120631847Y-119991059D01*
X120707430Y-119989986D01*
X120763433Y-119988108D01*
X120803347Y-119985206D01*
X120830666Y-119981063D01*
X120848881Y-119975462D01*
X120861486Y-119968185D01*
X120867696Y-119963024D01*
X120894980Y-119921168D01*
X120893867Y-119873505D01*
X120870602Y-119831753D01*
X120841871Y-119796271D01*
X119979873Y-119796271D01*
X119951142Y-119831753D01*
X119930242Y-119865998D01*
X119922410Y-119893963D01*
X119931477Y-119924604D01*
G36*
X119925030Y-119333547D02*
G01*
X119934350Y-119359628D01*
X119934806Y-119360634D01*
X119961834Y-119396052D01*
X119989636Y-119415566D01*
X120002672Y-119419384D01*
X120019992Y-119419195D01*
X120044667Y-119413822D01*
X120079764Y-119402088D01*
X120128353Y-119382813D01*
X120193502Y-119354822D01*
X120278281Y-119316936D01*
X120385759Y-119267978D01*
X120444503Y-119241031D01*
X120549373Y-119192370D01*
X120645814Y-119146690D01*
X120730298Y-119105734D01*
X120799300Y-119071246D01*
X120849294Y-119044969D01*
X120876754Y-119028646D01*
X120880547Y-119025416D01*
X120897280Y-118984089D01*
X120895039Y-118937409D01*
X120874687Y-118899970D01*
X120873032Y-118898444D01*
X120850486Y-118883551D01*
X120806571Y-118858569D01*
X120746940Y-118826579D01*
X120677246Y-118790660D01*
X120651563Y-118777752D01*
X120456397Y-118680314D01*
X120668407Y-118574106D01*
X120741661Y-118536197D01*
X120805190Y-118501027D01*
X120854131Y-118471468D01*
X120883622Y-118450394D01*
X120889876Y-118443252D01*
X120898345Y-118387738D01*
X120880547Y-118341929D01*
X120861525Y-118328454D01*
X120819249Y-118305136D01*
X120757880Y-118273877D01*
X120681576Y-118236580D01*
X120594499Y-118195146D01*
X120500807Y-118151478D01*
X120404661Y-118107478D01*
X120310221Y-118065048D01*
X120221645Y-118026090D01*
X120143096Y-117992507D01*
X120078731Y-117966201D01*
X120032711Y-117949074D01*
X120009197Y-117943029D01*
X120008345Y-117943091D01*
X119978756Y-117957800D01*
X119948620Y-117987202D01*
X119947308Y-117988933D01*
X119926882Y-118025070D01*
X119927080Y-118058494D01*
X119930931Y-118071022D01*
X119939253Y-118086287D01*
X119955625Y-118102498D01*
X119983442Y-118121599D01*
X120026100Y-118145535D01*
X120086995Y-118176251D01*
X120169525Y-118215691D01*
X120245707Y-118251258D01*
X120334014Y-118292177D01*
X120413426Y-118328844D01*
X120479796Y-118359354D01*
X120528975Y-118381802D01*
X120556813Y-118394283D01*
X120561168Y-118396103D01*
X120554049Y-118404290D01*
X120524241Y-118423105D01*
X120476096Y-118450046D01*
X120413963Y-118482608D01*
X120388328Y-118495566D01*
X120301765Y-118539460D01*
X120238725Y-118573311D01*
X120195542Y-118599897D01*
X120168552Y-118621995D01*
X120154088Y-118642384D01*
X120148487Y-118663840D01*
X120147854Y-118677823D01*
X120150040Y-118702488D01*
X120159079Y-118724102D01*
X120178697Y-118745578D01*
X120212617Y-118769830D01*
X120264562Y-118799770D01*
X120338258Y-118838313D01*
X120380180Y-118859578D01*
X120446994Y-118894072D01*
X120502401Y-118924156D01*
X120541727Y-118947177D01*
X120560296Y-118960480D01*
X120561069Y-118962289D01*
X120546455Y-118970880D01*
X120508507Y-118990114D01*
X120451196Y-119018065D01*
X120378496Y-119052807D01*
X120294376Y-119092413D01*
X120252594Y-119111896D01*
X120144763Y-119162580D01*
X120061790Y-119203393D01*
X120000966Y-119236454D01*
X119959585Y-119263881D01*
X119934940Y-119287792D01*
X119924324Y-119310308D01*
X119925030Y-119333547D01*
G37*
X119925030Y-119333547D02*
X119934350Y-119359628D01*
X119934806Y-119360634D01*
X119961834Y-119396052D01*
X119989636Y-119415566D01*
X120002672Y-119419384D01*
X120019992Y-119419195D01*
X120044667Y-119413822D01*
X120079764Y-119402088D01*
X120128353Y-119382813D01*
X120193502Y-119354822D01*
X120278281Y-119316936D01*
X120385759Y-119267978D01*
X120444503Y-119241031D01*
X120549373Y-119192370D01*
X120645814Y-119146690D01*
X120730298Y-119105734D01*
X120799300Y-119071246D01*
X120849294Y-119044969D01*
X120876754Y-119028646D01*
X120880547Y-119025416D01*
X120897280Y-118984089D01*
X120895039Y-118937409D01*
X120874687Y-118899970D01*
X120873032Y-118898444D01*
X120850486Y-118883551D01*
X120806571Y-118858569D01*
X120746940Y-118826579D01*
X120677246Y-118790660D01*
X120651563Y-118777752D01*
X120456397Y-118680314D01*
X120668407Y-118574106D01*
X120741661Y-118536197D01*
X120805190Y-118501027D01*
X120854131Y-118471468D01*
X120883622Y-118450394D01*
X120889876Y-118443252D01*
X120898345Y-118387738D01*
X120880547Y-118341929D01*
X120861525Y-118328454D01*
X120819249Y-118305136D01*
X120757880Y-118273877D01*
X120681576Y-118236580D01*
X120594499Y-118195146D01*
X120500807Y-118151478D01*
X120404661Y-118107478D01*
X120310221Y-118065048D01*
X120221645Y-118026090D01*
X120143096Y-117992507D01*
X120078731Y-117966201D01*
X120032711Y-117949074D01*
X120009197Y-117943029D01*
X120008345Y-117943091D01*
X119978756Y-117957800D01*
X119948620Y-117987202D01*
X119947308Y-117988933D01*
X119926882Y-118025070D01*
X119927080Y-118058494D01*
X119930931Y-118071022D01*
X119939253Y-118086287D01*
X119955625Y-118102498D01*
X119983442Y-118121599D01*
X120026100Y-118145535D01*
X120086995Y-118176251D01*
X120169525Y-118215691D01*
X120245707Y-118251258D01*
X120334014Y-118292177D01*
X120413426Y-118328844D01*
X120479796Y-118359354D01*
X120528975Y-118381802D01*
X120556813Y-118394283D01*
X120561168Y-118396103D01*
X120554049Y-118404290D01*
X120524241Y-118423105D01*
X120476096Y-118450046D01*
X120413963Y-118482608D01*
X120388328Y-118495566D01*
X120301765Y-118539460D01*
X120238725Y-118573311D01*
X120195542Y-118599897D01*
X120168552Y-118621995D01*
X120154088Y-118642384D01*
X120148487Y-118663840D01*
X120147854Y-118677823D01*
X120150040Y-118702488D01*
X120159079Y-118724102D01*
X120178697Y-118745578D01*
X120212617Y-118769830D01*
X120264562Y-118799770D01*
X120338258Y-118838313D01*
X120380180Y-118859578D01*
X120446994Y-118894072D01*
X120502401Y-118924156D01*
X120541727Y-118947177D01*
X120560296Y-118960480D01*
X120561069Y-118962289D01*
X120546455Y-118970880D01*
X120508507Y-118990114D01*
X120451196Y-119018065D01*
X120378496Y-119052807D01*
X120294376Y-119092413D01*
X120252594Y-119111896D01*
X120144763Y-119162580D01*
X120061790Y-119203393D01*
X120000966Y-119236454D01*
X119959585Y-119263881D01*
X119934940Y-119287792D01*
X119924324Y-119310308D01*
X119925030Y-119333547D01*
G36*
X119922687Y-115703783D02*
G01*
X119928493Y-115875501D01*
X119946101Y-116021555D01*
X119976563Y-116144353D01*
X120020935Y-116246303D01*
X120080271Y-116329814D01*
X120155624Y-116397293D01*
X120248050Y-116451149D01*
X120250304Y-116452208D01*
X120333024Y-116484349D01*
X120406284Y-116495801D01*
X120480012Y-116486520D01*
X120564135Y-116456461D01*
X120576937Y-116450761D01*
X120651862Y-116411885D01*
X120709757Y-116368195D01*
X120758972Y-116311806D01*
X120807857Y-116234838D01*
X120810409Y-116230366D01*
X120842595Y-116163363D01*
X120866632Y-116087631D01*
X120883351Y-115998304D01*
X120893579Y-115890515D01*
X120898146Y-115759398D01*
X120898543Y-115713072D01*
X120899334Y-115492476D01*
X120859733Y-115461326D01*
X120846711Y-115452086D01*
X120831504Y-115444878D01*
X120810466Y-115439450D01*
X120779950Y-115435551D01*
X120736311Y-115432929D01*
X120703949Y-115432074D01*
X120703949Y-115640591D01*
X120703949Y-115765582D01*
X120701810Y-115838723D01*
X120696181Y-115913807D01*
X120688243Y-115975430D01*
X120687575Y-115979149D01*
X120658212Y-116088599D01*
X120614097Y-116173494D01*
X120553183Y-116236518D01*
X120473424Y-116280360D01*
X120452284Y-116287983D01*
X120419362Y-116295456D01*
X120386836Y-116292221D01*
X120343564Y-116276479D01*
X120322307Y-116266990D01*
X120265820Y-116235917D01*
X120226191Y-116198479D01*
X120198594Y-116157287D01*
X120162682Y-116074776D01*
X120136668Y-115969179D01*
X120121688Y-115846164D01*
X120118392Y-115757070D01*
X120117795Y-115640591D01*
X120703949Y-115640591D01*
X120703949Y-115432074D01*
X120675900Y-115431332D01*
X120595072Y-115430510D01*
X120490181Y-115430210D01*
X120408162Y-115430176D01*
X119996192Y-115430176D01*
X119959301Y-115467067D01*
X119944348Y-115483440D01*
X119934108Y-115501143D01*
X119927701Y-115525865D01*
X119924247Y-115563294D01*
X119922867Y-115619119D01*
X119922681Y-115699028D01*
X119922687Y-115703783D01*
G37*
X119922687Y-115703783D02*
X119928493Y-115875501D01*
X119946101Y-116021555D01*
X119976563Y-116144353D01*
X120020935Y-116246303D01*
X120080271Y-116329814D01*
X120155624Y-116397293D01*
X120248050Y-116451149D01*
X120250304Y-116452208D01*
X120333024Y-116484349D01*
X120406284Y-116495801D01*
X120480012Y-116486520D01*
X120564135Y-116456461D01*
X120576937Y-116450761D01*
X120651862Y-116411885D01*
X120709757Y-116368195D01*
X120758972Y-116311806D01*
X120807857Y-116234838D01*
X120810409Y-116230366D01*
X120842595Y-116163363D01*
X120866632Y-116087631D01*
X120883351Y-115998304D01*
X120893579Y-115890515D01*
X120898146Y-115759398D01*
X120898543Y-115713072D01*
X120899334Y-115492476D01*
X120859733Y-115461326D01*
X120846711Y-115452086D01*
X120831504Y-115444878D01*
X120810466Y-115439450D01*
X120779950Y-115435551D01*
X120736311Y-115432929D01*
X120703949Y-115432074D01*
X120703949Y-115640591D01*
X120703949Y-115765582D01*
X120701810Y-115838723D01*
X120696181Y-115913807D01*
X120688243Y-115975430D01*
X120687575Y-115979149D01*
X120658212Y-116088599D01*
X120614097Y-116173494D01*
X120553183Y-116236518D01*
X120473424Y-116280360D01*
X120452284Y-116287983D01*
X120419362Y-116295456D01*
X120386836Y-116292221D01*
X120343564Y-116276479D01*
X120322307Y-116266990D01*
X120265820Y-116235917D01*
X120226191Y-116198479D01*
X120198594Y-116157287D01*
X120162682Y-116074776D01*
X120136668Y-115969179D01*
X120121688Y-115846164D01*
X120118392Y-115757070D01*
X120117795Y-115640591D01*
X120703949Y-115640591D01*
X120703949Y-115432074D01*
X120675900Y-115431332D01*
X120595072Y-115430510D01*
X120490181Y-115430210D01*
X120408162Y-115430176D01*
X119996192Y-115430176D01*
X119959301Y-115467067D01*
X119944348Y-115483440D01*
X119934108Y-115501143D01*
X119927701Y-115525865D01*
X119924247Y-115563294D01*
X119922867Y-115619119D01*
X119922681Y-115699028D01*
X119922687Y-115703783D01*
G36*
X119922667Y-114654716D02*
G01*
X119923884Y-114756377D01*
X119926730Y-114834282D01*
X119931874Y-114891581D01*
X119939984Y-114931427D01*
X119951731Y-114956968D01*
X119967782Y-114971357D01*
X119988808Y-114977745D01*
X120015476Y-114979281D01*
X120018626Y-114979289D01*
X120048790Y-114977955D01*
X120072103Y-114971651D01*
X120089506Y-114956922D01*
X120101940Y-114930315D01*
X120110345Y-114888374D01*
X120115665Y-114827646D01*
X120118839Y-114744676D01*
X120120809Y-114636011D01*
X120121245Y-114602705D01*
X120125310Y-114280413D01*
X120211730Y-114275906D01*
X120298150Y-114271398D01*
X120298150Y-114495263D01*
X120298473Y-114582721D01*
X120299837Y-114645169D01*
X120302839Y-114687654D01*
X120308073Y-114715223D01*
X120316135Y-114732922D01*
X120327620Y-114745797D01*
X120327711Y-114745880D01*
X120372471Y-114769230D01*
X120420847Y-114768386D01*
X120462086Y-114743879D01*
X120466325Y-114739029D01*
X120477249Y-114721815D01*
X120484849Y-114698226D01*
X120489697Y-114663007D01*
X120492366Y-114610900D01*
X120493428Y-114536650D01*
X120493535Y-114489162D01*
X120493535Y-114272898D01*
X120703949Y-114272898D01*
X120703949Y-114601220D01*
X120704139Y-114709618D01*
X120704914Y-114791935D01*
X120706584Y-114852149D01*
X120709458Y-114894235D01*
X120713847Y-114922171D01*
X120720059Y-114939934D01*
X120728404Y-114951500D01*
X120731434Y-114954415D01*
X120773434Y-114975936D01*
X120821214Y-114977510D01*
X120862642Y-114959855D01*
X120875937Y-114945885D01*
X120883256Y-114931354D01*
X120888919Y-114908838D01*
X120893123Y-114874776D01*
X120896068Y-114825607D01*
X120897951Y-114757768D01*
X120898970Y-114667698D01*
X120899325Y-114551837D01*
X120899334Y-114525643D01*
X120899256Y-114407839D01*
X120898831Y-114316396D01*
X120897766Y-114247614D01*
X120895769Y-114197796D01*
X120892550Y-114163240D01*
X120887816Y-114140250D01*
X120881277Y-114125126D01*
X120872641Y-114114169D01*
X120866440Y-114108158D01*
X120855457Y-114099110D01*
X120841852Y-114092042D01*
X120822056Y-114086709D01*
X120792502Y-114082868D01*
X120749621Y-114080275D01*
X120689845Y-114078687D01*
X120609607Y-114077861D01*
X120505339Y-114077552D01*
X120417580Y-114077514D01*
X120294608Y-114077608D01*
X120198069Y-114078057D01*
X120124339Y-114079108D01*
X120069790Y-114081010D01*
X120030799Y-114084009D01*
X120003739Y-114088355D01*
X119984984Y-114094294D01*
X119970910Y-114102075D01*
X119962011Y-114108664D01*
X119922410Y-114139814D01*
X119922410Y-114526148D01*
X119922667Y-114654716D01*
G37*
X119922667Y-114654716D02*
X119923884Y-114756377D01*
X119926730Y-114834282D01*
X119931874Y-114891581D01*
X119939984Y-114931427D01*
X119951731Y-114956968D01*
X119967782Y-114971357D01*
X119988808Y-114977745D01*
X120015476Y-114979281D01*
X120018626Y-114979289D01*
X120048790Y-114977955D01*
X120072103Y-114971651D01*
X120089506Y-114956922D01*
X120101940Y-114930315D01*
X120110345Y-114888374D01*
X120115665Y-114827646D01*
X120118839Y-114744676D01*
X120120809Y-114636011D01*
X120121245Y-114602705D01*
X120125310Y-114280413D01*
X120211730Y-114275906D01*
X120298150Y-114271398D01*
X120298150Y-114495263D01*
X120298473Y-114582721D01*
X120299837Y-114645169D01*
X120302839Y-114687654D01*
X120308073Y-114715223D01*
X120316135Y-114732922D01*
X120327620Y-114745797D01*
X120327711Y-114745880D01*
X120372471Y-114769230D01*
X120420847Y-114768386D01*
X120462086Y-114743879D01*
X120466325Y-114739029D01*
X120477249Y-114721815D01*
X120484849Y-114698226D01*
X120489697Y-114663007D01*
X120492366Y-114610900D01*
X120493428Y-114536650D01*
X120493535Y-114489162D01*
X120493535Y-114272898D01*
X120703949Y-114272898D01*
X120703949Y-114601220D01*
X120704139Y-114709618D01*
X120704914Y-114791935D01*
X120706584Y-114852149D01*
X120709458Y-114894235D01*
X120713847Y-114922171D01*
X120720059Y-114939934D01*
X120728404Y-114951500D01*
X120731434Y-114954415D01*
X120773434Y-114975936D01*
X120821214Y-114977510D01*
X120862642Y-114959855D01*
X120875937Y-114945885D01*
X120883256Y-114931354D01*
X120888919Y-114908838D01*
X120893123Y-114874776D01*
X120896068Y-114825607D01*
X120897951Y-114757768D01*
X120898970Y-114667698D01*
X120899325Y-114551837D01*
X120899334Y-114525643D01*
X120899256Y-114407839D01*
X120898831Y-114316396D01*
X120897766Y-114247614D01*
X120895769Y-114197796D01*
X120892550Y-114163240D01*
X120887816Y-114140250D01*
X120881277Y-114125126D01*
X120872641Y-114114169D01*
X120866440Y-114108158D01*
X120855457Y-114099110D01*
X120841852Y-114092042D01*
X120822056Y-114086709D01*
X120792502Y-114082868D01*
X120749621Y-114080275D01*
X120689845Y-114078687D01*
X120609607Y-114077861D01*
X120505339Y-114077552D01*
X120417580Y-114077514D01*
X120294608Y-114077608D01*
X120198069Y-114078057D01*
X120124339Y-114079108D01*
X120069790Y-114081010D01*
X120030799Y-114084009D01*
X120003739Y-114088355D01*
X119984984Y-114094294D01*
X119970910Y-114102075D01*
X119962011Y-114108664D01*
X119922410Y-114139814D01*
X119922410Y-114526148D01*
X119922667Y-114654716D01*
G36*
X119928244Y-112617126D02*
G01*
X119946649Y-112648501D01*
X119976749Y-112689524D01*
X120019960Y-112742322D01*
X120077702Y-112809021D01*
X120151392Y-112891747D01*
X120242448Y-112992626D01*
X120347138Y-113108105D01*
X120565207Y-113348579D01*
X120272508Y-113356094D01*
X120171754Y-113358807D01*
X120096722Y-113361424D01*
X120043084Y-113364526D01*
X120006510Y-113368690D01*
X119982671Y-113374495D01*
X119967238Y-113382522D01*
X119955882Y-113393349D01*
X119951110Y-113399090D01*
X119925877Y-113445063D01*
X119929566Y-113488809D01*
X119951123Y-113523511D01*
X119979835Y-113558993D01*
X120399150Y-113563406D01*
X120522471Y-113564627D01*
X120619348Y-113565249D01*
X120693394Y-113565056D01*
X120748221Y-113563832D01*
X120787443Y-113561362D01*
X120814673Y-113557432D01*
X120833523Y-113551826D01*
X120847605Y-113544328D01*
X120858899Y-113536013D01*
X120879846Y-113518024D01*
X120893731Y-113500125D01*
X120899060Y-113479834D01*
X120894340Y-113454668D01*
X120878077Y-113422146D01*
X120848777Y-113379783D01*
X120804946Y-113325098D01*
X120745091Y-113255609D01*
X120667718Y-113168831D01*
X120578814Y-113070531D01*
X120258435Y-112717336D01*
X120550177Y-112709821D01*
X120650747Y-112707103D01*
X120725604Y-112704479D01*
X120779084Y-112701367D01*
X120815526Y-112697184D01*
X120839268Y-112691349D01*
X120854646Y-112683280D01*
X120866000Y-112672395D01*
X120870626Y-112666825D01*
X120896042Y-112617590D01*
X120892209Y-112571069D01*
X120859733Y-112530557D01*
X120846667Y-112521290D01*
X120831409Y-112514067D01*
X120810296Y-112508634D01*
X120779669Y-112504738D01*
X120735866Y-112502125D01*
X120675227Y-112500539D01*
X120594091Y-112499728D01*
X120488797Y-112499438D01*
X120410872Y-112499407D01*
X120288988Y-112499505D01*
X120193503Y-112499967D01*
X120120755Y-112501049D01*
X120067083Y-112503003D01*
X120028827Y-112506084D01*
X120002327Y-112510546D01*
X119983920Y-112516643D01*
X119969948Y-112524629D01*
X119962011Y-112530557D01*
X119943212Y-112545584D01*
X119929017Y-112559628D01*
X119920846Y-112574816D01*
X119920116Y-112593273D01*
X119928244Y-112617126D01*
G37*
X119928244Y-112617126D02*
X119946649Y-112648501D01*
X119976749Y-112689524D01*
X120019960Y-112742322D01*
X120077702Y-112809021D01*
X120151392Y-112891747D01*
X120242448Y-112992626D01*
X120347138Y-113108105D01*
X120565207Y-113348579D01*
X120272508Y-113356094D01*
X120171754Y-113358807D01*
X120096722Y-113361424D01*
X120043084Y-113364526D01*
X120006510Y-113368690D01*
X119982671Y-113374495D01*
X119967238Y-113382522D01*
X119955882Y-113393349D01*
X119951110Y-113399090D01*
X119925877Y-113445063D01*
X119929566Y-113488809D01*
X119951123Y-113523511D01*
X119979835Y-113558993D01*
X120399150Y-113563406D01*
X120522471Y-113564627D01*
X120619348Y-113565249D01*
X120693394Y-113565056D01*
X120748221Y-113563832D01*
X120787443Y-113561362D01*
X120814673Y-113557432D01*
X120833523Y-113551826D01*
X120847605Y-113544328D01*
X120858899Y-113536013D01*
X120879846Y-113518024D01*
X120893731Y-113500125D01*
X120899060Y-113479834D01*
X120894340Y-113454668D01*
X120878077Y-113422146D01*
X120848777Y-113379783D01*
X120804946Y-113325098D01*
X120745091Y-113255609D01*
X120667718Y-113168831D01*
X120578814Y-113070531D01*
X120258435Y-112717336D01*
X120550177Y-112709821D01*
X120650747Y-112707103D01*
X120725604Y-112704479D01*
X120779084Y-112701367D01*
X120815526Y-112697184D01*
X120839268Y-112691349D01*
X120854646Y-112683280D01*
X120866000Y-112672395D01*
X120870626Y-112666825D01*
X120896042Y-112617590D01*
X120892209Y-112571069D01*
X120859733Y-112530557D01*
X120846667Y-112521290D01*
X120831409Y-112514067D01*
X120810296Y-112508634D01*
X120779669Y-112504738D01*
X120735866Y-112502125D01*
X120675227Y-112500539D01*
X120594091Y-112499728D01*
X120488797Y-112499438D01*
X120410872Y-112499407D01*
X120288988Y-112499505D01*
X120193503Y-112499967D01*
X120120755Y-112501049D01*
X120067083Y-112503003D01*
X120028827Y-112506084D01*
X120002327Y-112510546D01*
X119983920Y-112516643D01*
X119969948Y-112524629D01*
X119962011Y-112530557D01*
X119943212Y-112545584D01*
X119929017Y-112559628D01*
X119920846Y-112574816D01*
X119920116Y-112593273D01*
X119928244Y-112617126D01*
G36*
X119929776Y-111751784D02*
G01*
X119945082Y-111843005D01*
X119968875Y-111913064D01*
X120000204Y-111958642D01*
X120018078Y-111971062D01*
X120059649Y-111983692D01*
X120097256Y-111975193D01*
X120132919Y-111948361D01*
X120149603Y-111906670D01*
X120148248Y-111846176D01*
X120139209Y-111799387D01*
X120121987Y-111695418D01*
X120120351Y-111589166D01*
X120134329Y-111470237D01*
X120140252Y-111437386D01*
X120171431Y-111326801D01*
X120217810Y-111240287D01*
X120278599Y-111178793D01*
X120353008Y-111143268D01*
X120391478Y-111135921D01*
X120469527Y-111140730D01*
X120538581Y-111171780D01*
X120597293Y-111226240D01*
X120644317Y-111301282D01*
X120678307Y-111394076D01*
X120697918Y-111501794D01*
X120701805Y-111621605D01*
X120688620Y-111750681D01*
X120687376Y-111757969D01*
X120677814Y-111809308D01*
X120668578Y-111837774D01*
X120654873Y-111850112D01*
X120631906Y-111853068D01*
X120619743Y-111853135D01*
X120568683Y-111853135D01*
X120568683Y-111761969D01*
X120563168Y-111681464D01*
X120545594Y-111626525D01*
X120514417Y-111594560D01*
X120468094Y-111582974D01*
X120462048Y-111582833D01*
X120422453Y-111589611D01*
X120394181Y-111612855D01*
X120375471Y-111656116D01*
X120364564Y-111722945D01*
X120360554Y-111787676D01*
X120358253Y-111881759D01*
X120361764Y-111950002D01*
X120374719Y-111996545D01*
X120400750Y-112025528D01*
X120443491Y-112041091D01*
X120506574Y-112047375D01*
X120589428Y-112048520D01*
X120681910Y-112046644D01*
X120744818Y-112041000D01*
X120778403Y-112031564D01*
X120781033Y-112029733D01*
X120822998Y-111977921D01*
X120856232Y-111901956D01*
X120880023Y-111806654D01*
X120893663Y-111696830D01*
X120896442Y-111577300D01*
X120887649Y-111452880D01*
X120876849Y-111379703D01*
X120844362Y-111264926D01*
X120791250Y-111158250D01*
X120722319Y-111068935D01*
X120708542Y-111055360D01*
X120650622Y-111011254D01*
X120578840Y-110971457D01*
X120503583Y-110940619D01*
X120435241Y-110923389D01*
X120408993Y-110921312D01*
X120354241Y-110930153D01*
X120286119Y-110953651D01*
X120214414Y-110987297D01*
X120148913Y-111026582D01*
X120105162Y-111061291D01*
X120040083Y-111142443D01*
X119988285Y-111247348D01*
X119950938Y-111372246D01*
X119929217Y-111513379D01*
X119923909Y-111642721D01*
X119929776Y-111751784D01*
G37*
X119929776Y-111751784D02*
X119945082Y-111843005D01*
X119968875Y-111913064D01*
X120000204Y-111958642D01*
X120018078Y-111971062D01*
X120059649Y-111983692D01*
X120097256Y-111975193D01*
X120132919Y-111948361D01*
X120149603Y-111906670D01*
X120148248Y-111846176D01*
X120139209Y-111799387D01*
X120121987Y-111695418D01*
X120120351Y-111589166D01*
X120134329Y-111470237D01*
X120140252Y-111437386D01*
X120171431Y-111326801D01*
X120217810Y-111240287D01*
X120278599Y-111178793D01*
X120353008Y-111143268D01*
X120391478Y-111135921D01*
X120469527Y-111140730D01*
X120538581Y-111171780D01*
X120597293Y-111226240D01*
X120644317Y-111301282D01*
X120678307Y-111394076D01*
X120697918Y-111501794D01*
X120701805Y-111621605D01*
X120688620Y-111750681D01*
X120687376Y-111757969D01*
X120677814Y-111809308D01*
X120668578Y-111837774D01*
X120654873Y-111850112D01*
X120631906Y-111853068D01*
X120619743Y-111853135D01*
X120568683Y-111853135D01*
X120568683Y-111761969D01*
X120563168Y-111681464D01*
X120545594Y-111626525D01*
X120514417Y-111594560D01*
X120468094Y-111582974D01*
X120462048Y-111582833D01*
X120422453Y-111589611D01*
X120394181Y-111612855D01*
X120375471Y-111656116D01*
X120364564Y-111722945D01*
X120360554Y-111787676D01*
X120358253Y-111881759D01*
X120361764Y-111950002D01*
X120374719Y-111996545D01*
X120400750Y-112025528D01*
X120443491Y-112041091D01*
X120506574Y-112047375D01*
X120589428Y-112048520D01*
X120681910Y-112046644D01*
X120744818Y-112041000D01*
X120778403Y-112031564D01*
X120781033Y-112029733D01*
X120822998Y-111977921D01*
X120856232Y-111901956D01*
X120880023Y-111806654D01*
X120893663Y-111696830D01*
X120896442Y-111577300D01*
X120887649Y-111452880D01*
X120876849Y-111379703D01*
X120844362Y-111264926D01*
X120791250Y-111158250D01*
X120722319Y-111068935D01*
X120708542Y-111055360D01*
X120650622Y-111011254D01*
X120578840Y-110971457D01*
X120503583Y-110940619D01*
X120435241Y-110923389D01*
X120408993Y-110921312D01*
X120354241Y-110930153D01*
X120286119Y-110953651D01*
X120214414Y-110987297D01*
X120148913Y-111026582D01*
X120105162Y-111061291D01*
X120040083Y-111142443D01*
X119988285Y-111247348D01*
X119950938Y-111372246D01*
X119929217Y-111513379D01*
X119923909Y-111642721D01*
X119929776Y-111751784D01*
G36*
X119952470Y-110455383D02*
G01*
X119962552Y-110464145D01*
X119975559Y-110471018D01*
X119994975Y-110476231D01*
X120024284Y-110480012D01*
X120066971Y-110482590D01*
X120126519Y-110484193D01*
X120206414Y-110485051D01*
X120310140Y-110485390D01*
X120410872Y-110485443D01*
X120535816Y-110485350D01*
X120634185Y-110484919D01*
X120709465Y-110483923D01*
X120765138Y-110482131D01*
X120804690Y-110479317D01*
X120831605Y-110475250D01*
X120849367Y-110469704D01*
X120861461Y-110462449D01*
X120869274Y-110455383D01*
X120895476Y-110411444D01*
X120893125Y-110364626D01*
X120864548Y-110322737D01*
X120853391Y-110313112D01*
X120840447Y-110305591D01*
X120822136Y-110299912D01*
X120794882Y-110295819D01*
X120755104Y-110293051D01*
X120699226Y-110291350D01*
X120623668Y-110290457D01*
X120524852Y-110290113D01*
X120412978Y-110290058D01*
X119996192Y-110290058D01*
X119959301Y-110326949D01*
X119928264Y-110372421D01*
X119927145Y-110416530D01*
X119952470Y-110455383D01*
G37*
X119952470Y-110455383D02*
X119962552Y-110464145D01*
X119975559Y-110471018D01*
X119994975Y-110476231D01*
X120024284Y-110480012D01*
X120066971Y-110482590D01*
X120126519Y-110484193D01*
X120206414Y-110485051D01*
X120310140Y-110485390D01*
X120410872Y-110485443D01*
X120535816Y-110485350D01*
X120634185Y-110484919D01*
X120709465Y-110483923D01*
X120765138Y-110482131D01*
X120804690Y-110479317D01*
X120831605Y-110475250D01*
X120849367Y-110469704D01*
X120861461Y-110462449D01*
X120869274Y-110455383D01*
X120895476Y-110411444D01*
X120893125Y-110364626D01*
X120864548Y-110322737D01*
X120853391Y-110313112D01*
X120840447Y-110305591D01*
X120822136Y-110299912D01*
X120794882Y-110295819D01*
X120755104Y-110293051D01*
X120699226Y-110291350D01*
X120623668Y-110290457D01*
X120524852Y-110290113D01*
X120412978Y-110290058D01*
X119996192Y-110290058D01*
X119959301Y-110326949D01*
X119928264Y-110372421D01*
X119927145Y-110416530D01*
X119952470Y-110455383D01*
G36*
X119924121Y-109433058D02*
G01*
X119931084Y-109532663D01*
X119941959Y-109625302D01*
X119956338Y-109705588D01*
X119973810Y-109768138D01*
X119993966Y-109807565D01*
X119999899Y-109813617D01*
X120045939Y-109834662D01*
X120093204Y-109828280D01*
X120133642Y-109795639D01*
X120134801Y-109794082D01*
X120147261Y-109774883D01*
X120153813Y-109754841D01*
X120154608Y-109726886D01*
X120149800Y-109683947D01*
X120139539Y-109618955D01*
X120138675Y-109613727D01*
X120126778Y-109516885D01*
X120120909Y-109412402D01*
X120120852Y-109307611D01*
X120126391Y-109209844D01*
X120137309Y-109126434D01*
X120153389Y-109064713D01*
X120155005Y-109060658D01*
X120180093Y-109015882D01*
X120205482Y-109000150D01*
X120230451Y-109012466D01*
X120254280Y-109051831D01*
X120276246Y-109117248D01*
X120295630Y-109207720D01*
X120304962Y-109268046D01*
X120322913Y-109393446D01*
X120339323Y-109493181D01*
X120355612Y-109571500D01*
X120373202Y-109632653D01*
X120393513Y-109680887D01*
X120417967Y-109720451D01*
X120447984Y-109755594D01*
X120477460Y-109783835D01*
X120518531Y-109817338D01*
X120553846Y-109833827D01*
X120597357Y-109838983D01*
X120613292Y-109839170D01*
X120666169Y-109835298D01*
X120705507Y-109819819D01*
X120740424Y-109793031D01*
X120793798Y-109738587D01*
X120834502Y-109677876D01*
X120863864Y-109606388D01*
X120883211Y-109519610D01*
X120893870Y-109413032D01*
X120897169Y-109282143D01*
X120897113Y-109260531D01*
X120895304Y-109173248D01*
X120891193Y-109086687D01*
X120885370Y-109010284D01*
X120878425Y-108953476D01*
X120877628Y-108948882D01*
X120864248Y-108892401D01*
X120847346Y-108844494D01*
X120831895Y-108817373D01*
X120791130Y-108792135D01*
X120743662Y-108790377D01*
X120701359Y-108812134D01*
X120696576Y-108817002D01*
X120682363Y-108837124D01*
X120676240Y-108862288D01*
X120677282Y-108901233D01*
X120682698Y-108948511D01*
X120687537Y-109001341D01*
X120691619Y-109075398D01*
X120694582Y-109161855D01*
X120696061Y-109251883D01*
X120696158Y-109275561D01*
X120695794Y-109365924D01*
X120694040Y-109432057D01*
X120690287Y-109479779D01*
X120683927Y-109514908D01*
X120674351Y-109543264D01*
X120666375Y-109560305D01*
X120644229Y-109597750D01*
X120624172Y-109621625D01*
X120618487Y-109625114D01*
X120595009Y-109617753D01*
X120572281Y-109582759D01*
X120551334Y-109522558D01*
X120533200Y-109439575D01*
X120529161Y-109415126D01*
X120509103Y-109287424D01*
X120492338Y-109185506D01*
X120477647Y-109105440D01*
X120463812Y-109043292D01*
X120449615Y-108995128D01*
X120433837Y-108957014D01*
X120415260Y-108925016D01*
X120392666Y-108895202D01*
X120364837Y-108863636D01*
X120355080Y-108853014D01*
X120318666Y-108815773D01*
X120289816Y-108796059D01*
X120256802Y-108788347D01*
X120215199Y-108787099D01*
X120133615Y-108800831D01*
X120064298Y-108841868D01*
X120007472Y-108909976D01*
X119963361Y-109004919D01*
X119943576Y-109072662D01*
X119930797Y-109146287D01*
X119923568Y-109234485D01*
X119921479Y-109331870D01*
X119924121Y-109433058D01*
G37*
X119924121Y-109433058D02*
X119931084Y-109532663D01*
X119941959Y-109625302D01*
X119956338Y-109705588D01*
X119973810Y-109768138D01*
X119993966Y-109807565D01*
X119999899Y-109813617D01*
X120045939Y-109834662D01*
X120093204Y-109828280D01*
X120133642Y-109795639D01*
X120134801Y-109794082D01*
X120147261Y-109774883D01*
X120153813Y-109754841D01*
X120154608Y-109726886D01*
X120149800Y-109683947D01*
X120139539Y-109618955D01*
X120138675Y-109613727D01*
X120126778Y-109516885D01*
X120120909Y-109412402D01*
X120120852Y-109307611D01*
X120126391Y-109209844D01*
X120137309Y-109126434D01*
X120153389Y-109064713D01*
X120155005Y-109060658D01*
X120180093Y-109015882D01*
X120205482Y-109000150D01*
X120230451Y-109012466D01*
X120254280Y-109051831D01*
X120276246Y-109117248D01*
X120295630Y-109207720D01*
X120304962Y-109268046D01*
X120322913Y-109393446D01*
X120339323Y-109493181D01*
X120355612Y-109571500D01*
X120373202Y-109632653D01*
X120393513Y-109680887D01*
X120417967Y-109720451D01*
X120447984Y-109755594D01*
X120477460Y-109783835D01*
X120518531Y-109817338D01*
X120553846Y-109833827D01*
X120597357Y-109838983D01*
X120613292Y-109839170D01*
X120666169Y-109835298D01*
X120705507Y-109819819D01*
X120740424Y-109793031D01*
X120793798Y-109738587D01*
X120834502Y-109677876D01*
X120863864Y-109606388D01*
X120883211Y-109519610D01*
X120893870Y-109413032D01*
X120897169Y-109282143D01*
X120897113Y-109260531D01*
X120895304Y-109173248D01*
X120891193Y-109086687D01*
X120885370Y-109010284D01*
X120878425Y-108953476D01*
X120877628Y-108948882D01*
X120864248Y-108892401D01*
X120847346Y-108844494D01*
X120831895Y-108817373D01*
X120791130Y-108792135D01*
X120743662Y-108790377D01*
X120701359Y-108812134D01*
X120696576Y-108817002D01*
X120682363Y-108837124D01*
X120676240Y-108862288D01*
X120677282Y-108901233D01*
X120682698Y-108948511D01*
X120687537Y-109001341D01*
X120691619Y-109075398D01*
X120694582Y-109161855D01*
X120696061Y-109251883D01*
X120696158Y-109275561D01*
X120695794Y-109365924D01*
X120694040Y-109432057D01*
X120690287Y-109479779D01*
X120683927Y-109514908D01*
X120674351Y-109543264D01*
X120666375Y-109560305D01*
X120644229Y-109597750D01*
X120624172Y-109621625D01*
X120618487Y-109625114D01*
X120595009Y-109617753D01*
X120572281Y-109582759D01*
X120551334Y-109522558D01*
X120533200Y-109439575D01*
X120529161Y-109415126D01*
X120509103Y-109287424D01*
X120492338Y-109185506D01*
X120477647Y-109105440D01*
X120463812Y-109043292D01*
X120449615Y-108995128D01*
X120433837Y-108957014D01*
X120415260Y-108925016D01*
X120392666Y-108895202D01*
X120364837Y-108863636D01*
X120355080Y-108853014D01*
X120318666Y-108815773D01*
X120289816Y-108796059D01*
X120256802Y-108788347D01*
X120215199Y-108787099D01*
X120133615Y-108800831D01*
X120064298Y-108841868D01*
X120007472Y-108909976D01*
X119963361Y-109004919D01*
X119943576Y-109072662D01*
X119930797Y-109146287D01*
X119923568Y-109234485D01*
X119921479Y-109331870D01*
X119924121Y-109433058D01*
G36*
X119922516Y-108073616D02*
G01*
X119923012Y-108166024D01*
X119924165Y-108235773D01*
X119926244Y-108286563D01*
X119929515Y-108322095D01*
X119934247Y-108346068D01*
X119940707Y-108362182D01*
X119949163Y-108374137D01*
X119953055Y-108378467D01*
X119994404Y-108404795D01*
X120041916Y-108409535D01*
X120084095Y-108392216D01*
X120092620Y-108384207D01*
X120100885Y-108371254D01*
X120107261Y-108350398D01*
X120112059Y-108317770D01*
X120115588Y-108269504D01*
X120118158Y-108201732D01*
X120120081Y-108110586D01*
X120121251Y-108027255D01*
X120125310Y-107697454D01*
X120298150Y-107688440D01*
X120298150Y-107912304D01*
X120298989Y-108009492D01*
X120302496Y-108080643D01*
X120310159Y-108129755D01*
X120323467Y-108160829D01*
X120343905Y-108177862D01*
X120372963Y-108184854D01*
X120399931Y-108185916D01*
X120433021Y-108182616D01*
X120457404Y-108170163D01*
X120474353Y-108144726D01*
X120485143Y-108102475D01*
X120491048Y-108039580D01*
X120493341Y-107952211D01*
X120493535Y-107904525D01*
X120493535Y-107689940D01*
X120703949Y-107689940D01*
X120703949Y-108020591D01*
X120704100Y-108128976D01*
X120704778Y-108211349D01*
X120706320Y-108271757D01*
X120709063Y-108314247D01*
X120713345Y-108342865D01*
X120719503Y-108361658D01*
X120727873Y-108374672D01*
X120734008Y-108381301D01*
X120769813Y-108404039D01*
X120801641Y-108411360D01*
X120840518Y-108400907D01*
X120869274Y-108381301D01*
X120878327Y-108370841D01*
X120885357Y-108357338D01*
X120890618Y-108337160D01*
X120894365Y-108306675D01*
X120896854Y-108262251D01*
X120898339Y-108200255D01*
X120899075Y-108117055D01*
X120899318Y-108009019D01*
X120899334Y-107952957D01*
X120899227Y-107832902D01*
X120898739Y-107739272D01*
X120897613Y-107668437D01*
X120895595Y-107616765D01*
X120892430Y-107580623D01*
X120887863Y-107556378D01*
X120881640Y-107540399D01*
X120873504Y-107529053D01*
X120869274Y-107524614D01*
X120859160Y-107515829D01*
X120846112Y-107508942D01*
X120826634Y-107503725D01*
X120797228Y-107499947D01*
X120754398Y-107497376D01*
X120694648Y-107495782D01*
X120614481Y-107494935D01*
X120510401Y-107494604D01*
X120413492Y-107494555D01*
X120289387Y-107494600D01*
X120191830Y-107494912D01*
X120117310Y-107495758D01*
X120062315Y-107497404D01*
X120023334Y-107500117D01*
X119996857Y-107504163D01*
X119979370Y-107509809D01*
X119967364Y-107517320D01*
X119957327Y-107526964D01*
X119955090Y-107529340D01*
X119945183Y-107540871D01*
X119937512Y-107554268D01*
X119931790Y-107573250D01*
X119927732Y-107601531D01*
X119925052Y-107642828D01*
X119923466Y-107700858D01*
X119922688Y-107779337D01*
X119922432Y-107881980D01*
X119922410Y-107954850D01*
X119922516Y-108073616D01*
G37*
X119922516Y-108073616D02*
X119923012Y-108166024D01*
X119924165Y-108235773D01*
X119926244Y-108286563D01*
X119929515Y-108322095D01*
X119934247Y-108346068D01*
X119940707Y-108362182D01*
X119949163Y-108374137D01*
X119953055Y-108378467D01*
X119994404Y-108404795D01*
X120041916Y-108409535D01*
X120084095Y-108392216D01*
X120092620Y-108384207D01*
X120100885Y-108371254D01*
X120107261Y-108350398D01*
X120112059Y-108317770D01*
X120115588Y-108269504D01*
X120118158Y-108201732D01*
X120120081Y-108110586D01*
X120121251Y-108027255D01*
X120125310Y-107697454D01*
X120298150Y-107688440D01*
X120298150Y-107912304D01*
X120298989Y-108009492D01*
X120302496Y-108080643D01*
X120310159Y-108129755D01*
X120323467Y-108160829D01*
X120343905Y-108177862D01*
X120372963Y-108184854D01*
X120399931Y-108185916D01*
X120433021Y-108182616D01*
X120457404Y-108170163D01*
X120474353Y-108144726D01*
X120485143Y-108102475D01*
X120491048Y-108039580D01*
X120493341Y-107952211D01*
X120493535Y-107904525D01*
X120493535Y-107689940D01*
X120703949Y-107689940D01*
X120703949Y-108020591D01*
X120704100Y-108128976D01*
X120704778Y-108211349D01*
X120706320Y-108271757D01*
X120709063Y-108314247D01*
X120713345Y-108342865D01*
X120719503Y-108361658D01*
X120727873Y-108374672D01*
X120734008Y-108381301D01*
X120769813Y-108404039D01*
X120801641Y-108411360D01*
X120840518Y-108400907D01*
X120869274Y-108381301D01*
X120878327Y-108370841D01*
X120885357Y-108357338D01*
X120890618Y-108337160D01*
X120894365Y-108306675D01*
X120896854Y-108262251D01*
X120898339Y-108200255D01*
X120899075Y-108117055D01*
X120899318Y-108009019D01*
X120899334Y-107952957D01*
X120899227Y-107832902D01*
X120898739Y-107739272D01*
X120897613Y-107668437D01*
X120895595Y-107616765D01*
X120892430Y-107580623D01*
X120887863Y-107556378D01*
X120881640Y-107540399D01*
X120873504Y-107529053D01*
X120869274Y-107524614D01*
X120859160Y-107515829D01*
X120846112Y-107508942D01*
X120826634Y-107503725D01*
X120797228Y-107499947D01*
X120754398Y-107497376D01*
X120694648Y-107495782D01*
X120614481Y-107494935D01*
X120510401Y-107494604D01*
X120413492Y-107494555D01*
X120289387Y-107494600D01*
X120191830Y-107494912D01*
X120117310Y-107495758D01*
X120062315Y-107497404D01*
X120023334Y-107500117D01*
X119996857Y-107504163D01*
X119979370Y-107509809D01*
X119967364Y-107517320D01*
X119957327Y-107526964D01*
X119955090Y-107529340D01*
X119945183Y-107540871D01*
X119937512Y-107554268D01*
X119931790Y-107573250D01*
X119927732Y-107601531D01*
X119925052Y-107642828D01*
X119923466Y-107700858D01*
X119922688Y-107779337D01*
X119922432Y-107881980D01*
X119922410Y-107954850D01*
X119922516Y-108073616D01*
G36*
X119922409Y-106198292D02*
G01*
X119922944Y-106250857D01*
X119926660Y-106404881D01*
X119937699Y-106533875D01*
X119957246Y-106642237D01*
X119986483Y-106734362D01*
X120026597Y-106814647D01*
X120078769Y-106887488D01*
X120101433Y-106913505D01*
X120154462Y-106956663D01*
X120226421Y-106995579D01*
X120306184Y-107025573D01*
X120382625Y-107041965D01*
X120410872Y-107043668D01*
X120489174Y-107032995D01*
X120574705Y-107004393D01*
X120655663Y-106962989D01*
X120720246Y-106913905D01*
X120728038Y-106905933D01*
X120782808Y-106838400D01*
X120825563Y-106764448D01*
X120857423Y-106679812D01*
X120879508Y-106580229D01*
X120892938Y-106461434D01*
X120898834Y-106319166D01*
X120899334Y-106254000D01*
X120898935Y-106171145D01*
X120897266Y-106112877D01*
X120893622Y-106073730D01*
X120887293Y-106048237D01*
X120877574Y-106030932D01*
X120869274Y-106021656D01*
X120859192Y-106012894D01*
X120846185Y-106006021D01*
X120826769Y-106000808D01*
X120797460Y-105997027D01*
X120754773Y-105994449D01*
X120695225Y-105992846D01*
X120615330Y-105991989D01*
X120511605Y-105991649D01*
X120410872Y-105991597D01*
X120276519Y-105991266D01*
X120169192Y-105991338D01*
X120117795Y-105992616D01*
X120117795Y-106186981D01*
X120703949Y-106186981D01*
X120703835Y-106310975D01*
X120701696Y-106385585D01*
X120696183Y-106463728D01*
X120688472Y-106528926D01*
X120688155Y-106530910D01*
X120662678Y-106636283D01*
X120623000Y-106718014D01*
X120566538Y-106780184D01*
X120505406Y-106819686D01*
X120437593Y-106844026D01*
X120373919Y-106842139D01*
X120305665Y-106813891D01*
X120235056Y-106758638D01*
X120182735Y-106682073D01*
X120147763Y-106582551D01*
X120135386Y-106516039D01*
X120126694Y-106440539D01*
X120120404Y-106360521D01*
X120117788Y-106292462D01*
X120117776Y-106288431D01*
X120117795Y-106186981D01*
X120117795Y-105992616D01*
X120085881Y-105993410D01*
X120023579Y-105999085D01*
X119979275Y-106009959D01*
X119949960Y-106027632D01*
X119932625Y-106053703D01*
X119924261Y-106089771D01*
X119921859Y-106137434D01*
X119922409Y-106198292D01*
G37*
X119922409Y-106198292D02*
X119922944Y-106250857D01*
X119926660Y-106404881D01*
X119937699Y-106533875D01*
X119957246Y-106642237D01*
X119986483Y-106734362D01*
X120026597Y-106814647D01*
X120078769Y-106887488D01*
X120101433Y-106913505D01*
X120154462Y-106956663D01*
X120226421Y-106995579D01*
X120306184Y-107025573D01*
X120382625Y-107041965D01*
X120410872Y-107043668D01*
X120489174Y-107032995D01*
X120574705Y-107004393D01*
X120655663Y-106962989D01*
X120720246Y-106913905D01*
X120728038Y-106905933D01*
X120782808Y-106838400D01*
X120825563Y-106764448D01*
X120857423Y-106679812D01*
X120879508Y-106580229D01*
X120892938Y-106461434D01*
X120898834Y-106319166D01*
X120899334Y-106254000D01*
X120898935Y-106171145D01*
X120897266Y-106112877D01*
X120893622Y-106073730D01*
X120887293Y-106048237D01*
X120877574Y-106030932D01*
X120869274Y-106021656D01*
X120859192Y-106012894D01*
X120846185Y-106006021D01*
X120826769Y-106000808D01*
X120797460Y-105997027D01*
X120754773Y-105994449D01*
X120695225Y-105992846D01*
X120615330Y-105991989D01*
X120511605Y-105991649D01*
X120410872Y-105991597D01*
X120276519Y-105991266D01*
X120169192Y-105991338D01*
X120117795Y-105992616D01*
X120117795Y-106186981D01*
X120703949Y-106186981D01*
X120703835Y-106310975D01*
X120701696Y-106385585D01*
X120696183Y-106463728D01*
X120688472Y-106528926D01*
X120688155Y-106530910D01*
X120662678Y-106636283D01*
X120623000Y-106718014D01*
X120566538Y-106780184D01*
X120505406Y-106819686D01*
X120437593Y-106844026D01*
X120373919Y-106842139D01*
X120305665Y-106813891D01*
X120235056Y-106758638D01*
X120182735Y-106682073D01*
X120147763Y-106582551D01*
X120135386Y-106516039D01*
X120126694Y-106440539D01*
X120120404Y-106360521D01*
X120117788Y-106292462D01*
X120117776Y-106288431D01*
X120117795Y-106186981D01*
X120117795Y-105992616D01*
X120085881Y-105993410D01*
X120023579Y-105999085D01*
X119979275Y-106009959D01*
X119949960Y-106027632D01*
X119932625Y-106053703D01*
X119924261Y-106089771D01*
X119921859Y-106137434D01*
X119922409Y-106198292D01*
%TD*%
%LPC*%
D12*
%TO.C,R9*%
X129160000Y-99631500D03*
D13*
X136780000Y-99631500D03*
%TD*%
D12*
%TO.C,R10*%
X150432000Y-99631500D03*
D13*
X142812000Y-99631500D03*
%TD*%
D14*
%TO.C,U1*%
X171131200Y-114902900D03*
X171131200Y-84422900D03*
X163511200Y-114902900D03*
X163511200Y-84422900D03*
D15*
X173671200Y-84422900D03*
%TD*%
D16*
%TO.C,U3*%
X150388000Y-106553000D03*
X150388000Y-114173000D03*
X147848000Y-106553000D03*
X147848000Y-114173000D03*
X145308000Y-106553000D03*
X145308000Y-114173000D03*
X142768000Y-106553000D03*
X142768000Y-114173000D03*
X140228000Y-106553000D03*
X140228000Y-114173000D03*
X137688000Y-106553000D03*
X137688000Y-114173000D03*
X135148000Y-106553000D03*
X135148000Y-114173000D03*
X132608000Y-106553000D03*
X132608000Y-114173000D03*
X130068000Y-106553000D03*
X130068000Y-114173000D03*
X127528000Y-106553000D03*
D17*
X127528000Y-114173000D03*
%TD*%
D16*
%TO.C,U2*%
X150368000Y-85217000D03*
X150368000Y-92837000D03*
X147828000Y-85217000D03*
X147828000Y-92837000D03*
X145288000Y-85217000D03*
X145288000Y-92837000D03*
X142748000Y-85217000D03*
X142748000Y-92837000D03*
X140208000Y-85217000D03*
X140208000Y-92837000D03*
X137668000Y-85217000D03*
X137668000Y-92837000D03*
X135128000Y-85217000D03*
X135128000Y-92837000D03*
X132588000Y-85217000D03*
X132588000Y-92837000D03*
X130048000Y-85217000D03*
X130048000Y-92837000D03*
X127508000Y-85217000D03*
X127508000Y-92837000D03*
X124968000Y-85217000D03*
X124968000Y-92837000D03*
X122428000Y-85217000D03*
D17*
X122428000Y-92837000D03*
%TD*%
D12*
%TO.C,R8*%
X163576000Y-111125000D03*
D13*
X171196000Y-111125000D03*
%TD*%
D12*
%TO.C,R7*%
X163576000Y-107823000D03*
D13*
X171196000Y-107823000D03*
%TD*%
D12*
%TO.C,R6*%
X163576000Y-104521000D03*
D13*
X171196000Y-104521000D03*
%TD*%
D12*
%TO.C,R5*%
X163576000Y-101219000D03*
D13*
X171196000Y-101219000D03*
%TD*%
D12*
%TO.C,R4*%
X163576000Y-97917000D03*
D13*
X171196000Y-97917000D03*
%TD*%
D12*
%TO.C,R3*%
X163576000Y-94615000D03*
D13*
X171196000Y-94615000D03*
%TD*%
D12*
%TO.C,R2*%
X163576000Y-91313000D03*
D13*
X171196000Y-91313000D03*
%TD*%
D12*
%TO.C,R1*%
X171196000Y-88011000D03*
D13*
X163576000Y-88011000D03*
%TD*%
%TO.C,C3*%
X134834000Y-122809000D03*
D18*
X132334000Y-122809000D03*
%TD*%
D13*
%TO.C,C2*%
X160338000Y-90511000D03*
X160338000Y-88011000D03*
%TD*%
%TO.C,C1*%
X160338000Y-111847000D03*
X160338000Y-109347000D03*
%TD*%
D19*
%TO.C,P1*%
X156718000Y-123825000D03*
X154178000Y-123825000D03*
X151638000Y-123825000D03*
X149098000Y-123825000D03*
X146558000Y-123825000D03*
X144018000Y-123825000D03*
X141478000Y-123825000D03*
X138938000Y-123825000D03*
%TD*%
%TO.C,P2*%
X161798000Y-123825000D03*
X164338000Y-123825000D03*
X166878000Y-123825000D03*
X169418000Y-123825000D03*
X171958000Y-123825000D03*
X174498000Y-123825000D03*
%TD*%
%TO.C,P3*%
X129794000Y-75565000D03*
X132334000Y-75565000D03*
X134874000Y-75565000D03*
X137414000Y-75565000D03*
X139954000Y-75565000D03*
X142494000Y-75565000D03*
X145034000Y-75565000D03*
X147574000Y-75565000D03*
X150114000Y-75565000D03*
X152654000Y-75565000D03*
%TD*%
%TO.C,P4*%
X156718000Y-75565000D03*
X159258000Y-75565000D03*
X161798000Y-75565000D03*
X164338000Y-75565000D03*
X166878000Y-75565000D03*
X169418000Y-75565000D03*
X171958000Y-75565000D03*
X174498000Y-75565000D03*
%TD*%
D20*
%TO.C,P5*%
X124968000Y-123825000D03*
%TD*%
%TO.C,P6*%
X177038000Y-118745000D03*
%TD*%
%TO.C,P7*%
X126238000Y-75565000D03*
%TD*%
%TO.C,P8*%
X177038000Y-90805000D03*
%TD*%
M02*
