%TF.GenerationSoftware,KiCad,Pcbnew,5.1.10*%
%TF.CreationDate,2021-10-22T18:49:23+01:00*%
%TF.ProjectId,GAL Programmer,47414c20-5072-46f6-9772-616d6d65722e,rev?*%
%TF.SameCoordinates,Original*%
%TF.FileFunction,Copper,L2,Bot*%
%TF.FilePolarity,Positive*%
%FSLAX46Y46*%
G04 Gerber Fmt 4.6, Leading zero omitted, Abs format (unit mm)*
G04 Created by KiCad (PCBNEW 5.1.10) date 2021-10-22 18:49:23*
%MOMM*%
%LPD*%
G01*
G04 APERTURE LIST*
%TA.AperFunction,ComponentPad*%
%ADD10O,1.600000X1.600000*%
%TD*%
%TA.AperFunction,ComponentPad*%
%ADD11C,1.600000*%
%TD*%
%TA.AperFunction,ComponentPad*%
%ADD12O,1.200000X2.000000*%
%TD*%
%TA.AperFunction,ComponentPad*%
%ADD13C,1.524000*%
%TD*%
%TA.AperFunction,ComponentPad*%
%ADD14O,1.440000X2.000000*%
%TD*%
%TA.AperFunction,ComponentPad*%
%ADD15R,1.440000X2.000000*%
%TD*%
%TA.AperFunction,ComponentPad*%
%ADD16R,1.600000X1.600000*%
%TD*%
%TA.AperFunction,ComponentPad*%
%ADD17O,1.727200X2.032000*%
%TD*%
%TA.AperFunction,ComponentPad*%
%ADD18C,4.064000*%
%TD*%
%TA.AperFunction,ViaPad*%
%ADD19C,0.600000*%
%TD*%
%TA.AperFunction,Conductor*%
%ADD20C,0.500000*%
%TD*%
%TA.AperFunction,Conductor*%
%ADD21C,0.250000*%
%TD*%
%TA.AperFunction,Conductor*%
%ADD22C,0.254000*%
%TD*%
%TA.AperFunction,Conductor*%
%ADD23C,0.100000*%
%TD*%
G04 APERTURE END LIST*
D10*
%TO.P,R9,2*%
%TO.N,Net-(R9-Pad2)*%
X129160000Y-99631500D03*
D11*
%TO.P,R9,1*%
%TO.N,GND*%
X136780000Y-99631500D03*
%TD*%
D10*
%TO.P,R10,2*%
%TO.N,Net-(R10-Pad2)*%
X150432000Y-99631500D03*
D11*
%TO.P,R10,1*%
%TO.N,GND*%
X142812000Y-99631500D03*
%TD*%
D12*
%TO.P,U1,4*%
%TO.N,GND*%
X171131200Y-114902900D03*
%TO.P,U1,2*%
X171131200Y-84422900D03*
%TO.P,U1,3*%
%TO.N,/Edit*%
X163511200Y-114902900D03*
%TO.P,U1,1*%
%TO.N,+5V*%
X163511200Y-84422900D03*
D13*
%TO.P,U1,5*%
%TO.N,/VPP_EN*%
X173671200Y-84422900D03*
%TD*%
D14*
%TO.P,U3,11*%
%TO.N,/STROBE*%
X150388000Y-106553000D03*
%TO.P,U3,10*%
%TO.N,GND*%
X150388000Y-114173000D03*
%TO.P,U3,12*%
%TO.N,/SDOUT*%
X147848000Y-106553000D03*
%TO.P,U3,9*%
%TO.N,/SDIN*%
X147848000Y-114173000D03*
%TO.P,U3,13*%
%TO.N,Net-(R10-Pad2)*%
X145308000Y-106553000D03*
%TO.P,U3,8*%
%TO.N,/SCLK*%
X145308000Y-114173000D03*
%TO.P,U3,14*%
%TO.N,Net-(R9-Pad2)*%
X142768000Y-106553000D03*
%TO.P,U3,7*%
%TO.N,/RA5*%
X142768000Y-114173000D03*
%TO.P,U3,15*%
%TO.N,Net-(R8-Pad2)*%
X140228000Y-106553000D03*
%TO.P,U3,6*%
%TO.N,/RA4*%
X140228000Y-114173000D03*
%TO.P,U3,16*%
%TO.N,Net-(R7-Pad2)*%
X137688000Y-106553000D03*
%TO.P,U3,5*%
%TO.N,/RA3*%
X137688000Y-114173000D03*
%TO.P,U3,17*%
%TO.N,Net-(R6-Pad2)*%
X135148000Y-106553000D03*
%TO.P,U3,4*%
%TO.N,/RA2*%
X135148000Y-114173000D03*
%TO.P,U3,18*%
%TO.N,/RA0*%
X132608000Y-106553000D03*
%TO.P,U3,3*%
%TO.N,/RA1*%
X132608000Y-114173000D03*
%TO.P,U3,19*%
%TO.N,/PV*%
X130068000Y-106553000D03*
%TO.P,U3,2*%
%TO.N,/Edit*%
X130068000Y-114173000D03*
%TO.P,U3,20*%
%TO.N,VCC*%
X127528000Y-106553000D03*
D15*
%TO.P,U3,1*%
%TO.N,GND*%
X127528000Y-114173000D03*
%TD*%
D14*
%TO.P,U2,13*%
%TO.N,/STROBE*%
X150368000Y-85217000D03*
%TO.P,U2,12*%
%TO.N,GND*%
X150368000Y-92837000D03*
%TO.P,U2,14*%
%TO.N,/SDOUT*%
X147828000Y-85217000D03*
%TO.P,U2,11*%
%TO.N,/SDIN*%
X147828000Y-92837000D03*
%TO.P,U2,15*%
%TO.N,Net-(R10-Pad2)*%
X145288000Y-85217000D03*
%TO.P,U2,10*%
%TO.N,/SCLK*%
X145288000Y-92837000D03*
%TO.P,U2,16*%
%TO.N,Net-(R9-Pad2)*%
X142748000Y-85217000D03*
%TO.P,U2,9*%
%TO.N,/RA5*%
X142748000Y-92837000D03*
%TO.P,U2,17*%
%TO.N,Net-(R8-Pad2)*%
X140208000Y-85217000D03*
%TO.P,U2,8*%
%TO.N,/RA4*%
X140208000Y-92837000D03*
%TO.P,U2,18*%
%TO.N,Net-(R7-Pad2)*%
X137668000Y-85217000D03*
%TO.P,U2,7*%
%TO.N,/RA3*%
X137668000Y-92837000D03*
%TO.P,U2,19*%
%TO.N,Net-(R6-Pad2)*%
X135128000Y-85217000D03*
%TO.P,U2,6*%
%TO.N,/RA2*%
X135128000Y-92837000D03*
%TO.P,U2,20*%
%TO.N,Net-(R5-Pad2)*%
X132588000Y-85217000D03*
%TO.P,U2,5*%
%TO.N,/RA1*%
X132588000Y-92837000D03*
%TO.P,U2,21*%
%TO.N,Net-(R4-Pad2)*%
X130048000Y-85217000D03*
%TO.P,U2,4*%
%TO.N,/RA0*%
X130048000Y-92837000D03*
%TO.P,U2,22*%
%TO.N,Net-(R3-Pad2)*%
X127508000Y-85217000D03*
%TO.P,U2,3*%
%TO.N,/PV*%
X127508000Y-92837000D03*
%TO.P,U2,23*%
%TO.N,Net-(R2-Pad2)*%
X124968000Y-85217000D03*
%TO.P,U2,2*%
%TO.N,/Edit*%
X124968000Y-92837000D03*
%TO.P,U2,24*%
%TO.N,VCC*%
X122428000Y-85217000D03*
D15*
%TO.P,U2,1*%
%TO.N,GND*%
X122428000Y-92837000D03*
%TD*%
D10*
%TO.P,R8,2*%
%TO.N,Net-(R8-Pad2)*%
X163576000Y-111125000D03*
D11*
%TO.P,R8,1*%
%TO.N,GND*%
X171196000Y-111125000D03*
%TD*%
D10*
%TO.P,R7,2*%
%TO.N,Net-(R7-Pad2)*%
X163576000Y-107823000D03*
D11*
%TO.P,R7,1*%
%TO.N,GND*%
X171196000Y-107823000D03*
%TD*%
D10*
%TO.P,R6,2*%
%TO.N,Net-(R6-Pad2)*%
X163576000Y-104521000D03*
D11*
%TO.P,R6,1*%
%TO.N,GND*%
X171196000Y-104521000D03*
%TD*%
D10*
%TO.P,R5,2*%
%TO.N,Net-(R5-Pad2)*%
X163576000Y-101219000D03*
D11*
%TO.P,R5,1*%
%TO.N,GND*%
X171196000Y-101219000D03*
%TD*%
D10*
%TO.P,R4,2*%
%TO.N,Net-(R4-Pad2)*%
X163576000Y-97917000D03*
D11*
%TO.P,R4,1*%
%TO.N,GND*%
X171196000Y-97917000D03*
%TD*%
D10*
%TO.P,R3,2*%
%TO.N,Net-(R3-Pad2)*%
X163576000Y-94615000D03*
D11*
%TO.P,R3,1*%
%TO.N,GND*%
X171196000Y-94615000D03*
%TD*%
D10*
%TO.P,R2,2*%
%TO.N,Net-(R2-Pad2)*%
X163576000Y-91313000D03*
D11*
%TO.P,R2,1*%
%TO.N,GND*%
X171196000Y-91313000D03*
%TD*%
D10*
%TO.P,R1,2*%
%TO.N,GND*%
X171196000Y-88011000D03*
D11*
%TO.P,R1,1*%
%TO.N,/VPP_EN*%
X163576000Y-88011000D03*
%TD*%
%TO.P,C3,2*%
%TO.N,GND*%
X134834000Y-122809000D03*
D16*
%TO.P,C3,1*%
%TO.N,VCC*%
X132334000Y-122809000D03*
%TD*%
D11*
%TO.P,C2,2*%
%TO.N,GND*%
X160338000Y-90511000D03*
%TO.P,C2,1*%
%TO.N,VCC*%
X160338000Y-88011000D03*
%TD*%
%TO.P,C1,2*%
%TO.N,GND*%
X160338000Y-111847000D03*
%TO.P,C1,1*%
%TO.N,VCC*%
X160338000Y-109347000D03*
%TD*%
D17*
%TO.P,P1,8*%
%TO.N,Net-(P1-Pad8)*%
X156718000Y-123825000D03*
%TO.P,P1,7*%
%TO.N,GND*%
X154178000Y-123825000D03*
%TO.P,P1,6*%
X151638000Y-123825000D03*
%TO.P,P1,5*%
%TO.N,+5V*%
X149098000Y-123825000D03*
%TO.P,P1,4*%
%TO.N,Net-(P1-Pad4)*%
X146558000Y-123825000D03*
%TO.P,P1,3*%
%TO.N,Net-(P1-Pad3)*%
X144018000Y-123825000D03*
%TO.P,P1,2*%
%TO.N,Net-(P1-Pad2)*%
X141478000Y-123825000D03*
%TO.P,P1,1*%
%TO.N,Net-(P1-Pad1)*%
X138938000Y-123825000D03*
%TD*%
%TO.P,P2,1*%
%TO.N,Net-(P2-Pad1)*%
X161798000Y-123825000D03*
%TO.P,P2,2*%
%TO.N,Net-(P2-Pad2)*%
X164338000Y-123825000D03*
%TO.P,P2,3*%
%TO.N,Net-(P2-Pad3)*%
X166878000Y-123825000D03*
%TO.P,P2,4*%
%TO.N,Net-(P2-Pad4)*%
X169418000Y-123825000D03*
%TO.P,P2,5*%
%TO.N,Net-(P2-Pad5)*%
X171958000Y-123825000D03*
%TO.P,P2,6*%
%TO.N,Net-(P2-Pad6)*%
X174498000Y-123825000D03*
%TD*%
%TO.P,P3,1*%
%TO.N,Net-(P3-Pad1)*%
X129794000Y-75565000D03*
%TO.P,P3,2*%
%TO.N,Net-(P3-Pad2)*%
X132334000Y-75565000D03*
%TO.P,P3,3*%
%TO.N,Net-(P3-Pad3)*%
X134874000Y-75565000D03*
%TO.P,P3,4*%
%TO.N,GND*%
X137414000Y-75565000D03*
%TO.P,P3,5*%
%TO.N,/STROBE*%
X139954000Y-75565000D03*
%TO.P,P3,6*%
%TO.N,/SDOUT*%
X142494000Y-75565000D03*
%TO.P,P3,7*%
%TO.N,/VPP_EN*%
X145034000Y-75565000D03*
%TO.P,P3,8*%
%TO.N,/RA0*%
X147574000Y-75565000D03*
%TO.P,P3,9*%
%TO.N,/PV*%
X150114000Y-75565000D03*
%TO.P,P3,10*%
%TO.N,/SDIN*%
X152654000Y-75565000D03*
%TD*%
%TO.P,P4,1*%
%TO.N,/SCLK*%
X156718000Y-75565000D03*
%TO.P,P4,2*%
%TO.N,/RA5*%
X159258000Y-75565000D03*
%TO.P,P4,3*%
%TO.N,/RA4*%
X161798000Y-75565000D03*
%TO.P,P4,4*%
%TO.N,/RA3*%
X164338000Y-75565000D03*
%TO.P,P4,5*%
%TO.N,/RA2*%
X166878000Y-75565000D03*
%TO.P,P4,6*%
%TO.N,/RA1*%
X169418000Y-75565000D03*
%TO.P,P4,7*%
%TO.N,Net-(P4-Pad7)*%
X171958000Y-75565000D03*
%TO.P,P4,8*%
%TO.N,Net-(P4-Pad8)*%
X174498000Y-75565000D03*
%TD*%
D18*
%TO.P,P5,1*%
%TO.N,Net-(P5-Pad1)*%
X124968000Y-123825000D03*
%TD*%
%TO.P,P6,1*%
%TO.N,Net-(P6-Pad1)*%
X177038000Y-118745000D03*
%TD*%
%TO.P,P7,1*%
%TO.N,Net-(P7-Pad1)*%
X126238000Y-75565000D03*
%TD*%
%TO.P,P8,1*%
%TO.N,Net-(P8-Pad1)*%
X177038000Y-90805000D03*
%TD*%
D19*
%TO.N,/SDOUT*%
X144874600Y-94376500D03*
X143504300Y-89540700D03*
%TO.N,/VPP_EN*%
X151803400Y-83305900D03*
%TO.N,/SDIN*%
X151269800Y-110594700D03*
X149167700Y-89659600D03*
%TO.N,/SCLK*%
X147762500Y-110955300D03*
X151557400Y-98379400D03*
%TO.N,/RA5*%
X147586800Y-89617500D03*
X143995800Y-110995600D03*
%TO.N,/RA4*%
X141328400Y-110995600D03*
X150324300Y-89659600D03*
%TO.N,/RA3*%
X139128100Y-102892500D03*
X152870800Y-89617500D03*
X138011500Y-110995600D03*
%TO.N,/RA2*%
X133165100Y-89644500D03*
%TO.N,Net-(R2-Pad2)*%
X159317800Y-87020500D03*
%TO.N,Net-(R6-Pad2)*%
X135947000Y-91393200D03*
X134798700Y-89659600D03*
%TO.N,Net-(R7-Pad2)*%
X136622700Y-89619400D03*
%TO.N,Net-(R8-Pad2)*%
X138473100Y-91393200D03*
X138473100Y-89628600D03*
%TO.N,Net-(R9-Pad2)*%
X142623500Y-103706700D03*
X140045400Y-89617500D03*
%TO.N,Net-(R10-Pad2)*%
X154548700Y-89611100D03*
X154589500Y-85913500D03*
%TD*%
D20*
%TO.N,+5V*%
X163511200Y-84422900D02*
X163511200Y-85973200D01*
X149098000Y-123825000D02*
X150700000Y-125427000D01*
X150700000Y-125427000D02*
X157279500Y-125427000D01*
X157279500Y-125427000D02*
X164979600Y-117726900D01*
X164979600Y-117726900D02*
X164979600Y-87441600D01*
X164979600Y-87441600D02*
X163511200Y-85973200D01*
%TO.N,GND*%
X125645500Y-90511000D02*
X121157700Y-86023200D01*
X121157700Y-86023200D02*
X121157700Y-84410800D01*
X121157700Y-84410800D02*
X127331000Y-78237500D01*
X127331000Y-78237500D02*
X134741500Y-78237500D01*
X134741500Y-78237500D02*
X137414000Y-75565000D01*
X125645500Y-90511000D02*
X124754000Y-90511000D01*
X124754000Y-90511000D02*
X122428000Y-92837000D01*
X152694000Y-90511000D02*
X125645500Y-90511000D01*
X151551000Y-113010000D02*
X151638000Y-113097000D01*
X151638000Y-113097000D02*
X151638000Y-123825000D01*
X151551000Y-113010000D02*
X150388000Y-114173000D01*
X152714000Y-111847000D02*
X151551000Y-113010000D01*
X171196000Y-111125000D02*
X171196000Y-107823000D01*
X171196000Y-88011000D02*
X171196000Y-86660700D01*
X171196000Y-86660700D02*
X171131200Y-86595900D01*
X171131200Y-86595900D02*
X171131200Y-84422900D01*
X171196000Y-88011000D02*
X171196000Y-91313000D01*
X127528000Y-114173000D02*
X127528000Y-115723300D01*
X152714000Y-111847000D02*
X129854000Y-111847000D01*
X129854000Y-111847000D02*
X127528000Y-114173000D01*
X171196000Y-104521000D02*
X171196000Y-107823000D01*
X171196000Y-101219000D02*
X171196000Y-104521000D01*
X171196000Y-97917000D02*
X171196000Y-101219000D01*
X171196000Y-94615000D02*
X171196000Y-97917000D01*
X134834000Y-122809000D02*
X127748300Y-115723300D01*
X127748300Y-115723300D02*
X127528000Y-115723300D01*
X160338000Y-111847000D02*
X152714000Y-111847000D01*
X160338000Y-90511000D02*
X152694000Y-90511000D01*
X160338000Y-111847000D02*
X152714000Y-111847000D01*
X160338000Y-90511000D02*
X152694000Y-90511000D01*
X152694000Y-90511000D02*
X150368000Y-92837000D01*
%TO.N,VCC*%
X132334000Y-122809000D02*
X132334000Y-121458700D01*
X127528000Y-106553000D02*
X126257700Y-106553000D01*
X126257700Y-106553000D02*
X126257700Y-115635600D01*
X126257700Y-115635600D02*
X132080800Y-121458700D01*
X132080800Y-121458700D02*
X132334000Y-121458700D01*
X160338000Y-88011000D02*
X161694700Y-89367700D01*
X161694700Y-89367700D02*
X161694700Y-107990300D01*
X161694700Y-107990300D02*
X160338000Y-109347000D01*
D21*
%TO.N,/STROBE*%
X150368000Y-85217000D02*
X150368000Y-83891700D01*
X139954000Y-75565000D02*
X141142900Y-75565000D01*
X141142900Y-75565000D02*
X141142900Y-75044900D01*
X141142900Y-75044900D02*
X141993500Y-74194300D01*
X141993500Y-74194300D02*
X143021200Y-74194300D01*
X143021200Y-74194300D02*
X143764000Y-74937100D01*
X143764000Y-74937100D02*
X143764000Y-77287700D01*
X143764000Y-77287700D02*
X150368000Y-83891700D01*
%TO.N,/SDOUT*%
X142494000Y-76906300D02*
X147828000Y-82240300D01*
X147828000Y-82240300D02*
X147828000Y-85217000D01*
X147828000Y-85217000D02*
X146782700Y-85217000D01*
X146782700Y-85217000D02*
X146782700Y-86262300D01*
X146782700Y-86262300D02*
X143504300Y-89540700D01*
X144874600Y-94376500D02*
X145190700Y-94692600D01*
X145190700Y-94692600D02*
X145190800Y-94692600D01*
X145190800Y-94692600D02*
X145190800Y-103895800D01*
X145190800Y-103895800D02*
X147848000Y-106553000D01*
X142494000Y-75565000D02*
X142494000Y-76906300D01*
%TO.N,/VPP_EN*%
X146222900Y-75565000D02*
X146222900Y-77725400D01*
X146222900Y-77725400D02*
X151803400Y-83305900D01*
X145034000Y-75565000D02*
X146222900Y-75565000D01*
%TO.N,/RA0*%
X132608000Y-106553000D02*
X131562700Y-106553000D01*
X130048000Y-92837000D02*
X131093300Y-92837000D01*
X131093300Y-92837000D02*
X131093300Y-105038300D01*
X131093300Y-105038300D02*
X131562700Y-105507700D01*
X131562700Y-105507700D02*
X131562700Y-106553000D01*
%TO.N,/PV*%
X130068000Y-106553000D02*
X130068000Y-105227700D01*
X127508000Y-92837000D02*
X128553300Y-92837000D01*
X128553300Y-92837000D02*
X128553300Y-93882300D01*
X128553300Y-93882300D02*
X130318800Y-95647800D01*
X130318800Y-95647800D02*
X130318800Y-104976900D01*
X130318800Y-104976900D02*
X130068000Y-105227700D01*
%TO.N,/SDIN*%
X147828000Y-92837000D02*
X148873300Y-92837000D01*
X148873300Y-92837000D02*
X148873300Y-93882300D01*
X148873300Y-93882300D02*
X152184400Y-97193400D01*
X152184400Y-97193400D02*
X152184400Y-109680100D01*
X152184400Y-109680100D02*
X151269800Y-110594700D01*
X149167700Y-89659600D02*
X152653900Y-86173400D01*
X152653900Y-86173400D02*
X152653900Y-84343100D01*
X152653900Y-84343100D02*
X152906400Y-84090600D01*
X152906400Y-84090600D02*
X152906400Y-77158700D01*
X152906400Y-77158700D02*
X152654000Y-76906300D01*
X152654000Y-75565000D02*
X152654000Y-76906300D01*
%TO.N,/SCLK*%
X151557400Y-98379400D02*
X151557400Y-107160400D01*
X151557400Y-107160400D02*
X147762500Y-110955300D01*
X146333300Y-92837000D02*
X146333300Y-93155300D01*
X146333300Y-93155300D02*
X151557400Y-98379400D01*
X145288000Y-92837000D02*
X146333300Y-92837000D01*
%TO.N,/RA5*%
X159258000Y-75565000D02*
X158069100Y-75565000D01*
X158069100Y-75565000D02*
X158069100Y-75044900D01*
X158069100Y-75044900D02*
X157218500Y-74194300D01*
X157218500Y-74194300D02*
X152136500Y-74194300D01*
X152136500Y-74194300D02*
X151459300Y-74871500D01*
X151459300Y-74871500D02*
X151459300Y-79290000D01*
X151459300Y-79290000D02*
X152428800Y-80259500D01*
X152428800Y-80259500D02*
X152428800Y-83706000D01*
X152428800Y-83706000D02*
X151449800Y-84685000D01*
X151449800Y-84685000D02*
X151449800Y-85928600D01*
X151449800Y-85928600D02*
X147760900Y-89617500D01*
X147760900Y-89617500D02*
X147586800Y-89617500D01*
X142748000Y-92837000D02*
X143793300Y-92837000D01*
X143793300Y-92837000D02*
X144037900Y-93081600D01*
X144037900Y-93081600D02*
X144037900Y-110953500D01*
X144037900Y-110953500D02*
X143995800Y-110995600D01*
%TO.N,/RA4*%
X140208000Y-92837000D02*
X141253300Y-92837000D01*
X141253300Y-92837000D02*
X141328400Y-92912100D01*
X141328400Y-92912100D02*
X141328400Y-110995600D01*
X161798000Y-76906300D02*
X153104200Y-85600100D01*
X153104200Y-85600100D02*
X153104200Y-86879700D01*
X153104200Y-86879700D02*
X150324300Y-89659600D01*
X161798000Y-75565000D02*
X161798000Y-76906300D01*
%TO.N,/RA3*%
X138742700Y-102892500D02*
X138742700Y-110264400D01*
X138742700Y-110264400D02*
X138011500Y-110995600D01*
X137668000Y-94162300D02*
X138742700Y-95237000D01*
X138742700Y-95237000D02*
X138742700Y-102892500D01*
X138742700Y-102892500D02*
X139128100Y-102892500D01*
X164338000Y-75565000D02*
X163149100Y-75565000D01*
X163149100Y-75565000D02*
X163149100Y-76388800D01*
X163149100Y-76388800D02*
X153946300Y-85591600D01*
X153946300Y-85591600D02*
X153946300Y-88542000D01*
X153946300Y-88542000D02*
X152870800Y-89617500D01*
X137668000Y-92837000D02*
X137668000Y-94162300D01*
%TO.N,/RA2*%
X166878000Y-75565000D02*
X165689100Y-75565000D01*
X165689100Y-75565000D02*
X165689100Y-75044900D01*
X165689100Y-75044900D02*
X164388100Y-73743900D01*
X164388100Y-73743900D02*
X139936500Y-73743900D01*
X139936500Y-73743900D02*
X138754700Y-74925700D01*
X138754700Y-74925700D02*
X138754700Y-77880200D01*
X138754700Y-77880200D02*
X133858000Y-82776900D01*
X133858000Y-82776900D02*
X133858000Y-88951600D01*
X133858000Y-88951600D02*
X133165100Y-89644500D01*
%TO.N,Net-(R2-Pad2)*%
X163576000Y-91313000D02*
X163576000Y-90187700D01*
X159317800Y-87020500D02*
X159602700Y-86735600D01*
X159602700Y-86735600D02*
X160854700Y-86735600D01*
X160854700Y-86735600D02*
X162450700Y-88331600D01*
X162450700Y-88331600D02*
X162450700Y-89062400D01*
X162450700Y-89062400D02*
X163576000Y-90187700D01*
%TO.N,Net-(R6-Pad2)*%
X134798700Y-89659600D02*
X134798700Y-86871600D01*
X134798700Y-86871600D02*
X135128000Y-86542300D01*
X135148000Y-106553000D02*
X135148000Y-97597000D01*
X135148000Y-97597000D02*
X136175900Y-96569100D01*
X136175900Y-96569100D02*
X136175900Y-91622100D01*
X136175900Y-91622100D02*
X135947000Y-91393200D01*
X135128000Y-85217000D02*
X135128000Y-86542300D01*
%TO.N,Net-(R7-Pad2)*%
X136622700Y-85217000D02*
X136622700Y-89619400D01*
X137668000Y-85217000D02*
X136622700Y-85217000D01*
%TO.N,Net-(R8-Pad2)*%
X138473100Y-91393200D02*
X138938000Y-91858100D01*
X138938000Y-91858100D02*
X138938000Y-94553400D01*
X138938000Y-94553400D02*
X140249500Y-95864900D01*
X140249500Y-95864900D02*
X140249500Y-105206200D01*
X140249500Y-105206200D02*
X140228000Y-105227700D01*
X140228000Y-106553000D02*
X140228000Y-105227700D01*
X139162700Y-85217000D02*
X139162700Y-88939000D01*
X139162700Y-88939000D02*
X138473100Y-89628600D01*
X140208000Y-85217000D02*
X139162700Y-85217000D01*
%TO.N,Net-(R9-Pad2)*%
X142623500Y-103706700D02*
X142768000Y-103851200D01*
X142768000Y-103851200D02*
X142768000Y-106553000D01*
X142748000Y-85217000D02*
X142748000Y-86914900D01*
X142748000Y-86914900D02*
X140045400Y-89617500D01*
%TO.N,Net-(R10-Pad2)*%
X154548700Y-89611100D02*
X154548700Y-85954300D01*
X154548700Y-85954300D02*
X154589500Y-85913500D01*
X145308000Y-106553000D02*
X146353300Y-106553000D01*
X150432000Y-99631500D02*
X150432000Y-100756800D01*
X150432000Y-100756800D02*
X149306700Y-101882100D01*
X149306700Y-101882100D02*
X149306700Y-106901500D01*
X149306700Y-106901500D02*
X148319000Y-107889200D01*
X148319000Y-107889200D02*
X147395500Y-107889200D01*
X147395500Y-107889200D02*
X146353300Y-106847000D01*
X146353300Y-106847000D02*
X146353300Y-106553000D01*
%TD*%
D22*
%TO.N,GND*%
X124166406Y-73864887D02*
X123874536Y-74301702D01*
X123673492Y-74787065D01*
X123571000Y-75302323D01*
X123571000Y-75827677D01*
X123673492Y-76342935D01*
X123874536Y-76828298D01*
X124166406Y-77265113D01*
X124537887Y-77636594D01*
X124974702Y-77928464D01*
X125460065Y-78129508D01*
X125975323Y-78232000D01*
X126500677Y-78232000D01*
X127015935Y-78129508D01*
X127501298Y-77928464D01*
X127938113Y-77636594D01*
X128309594Y-77265113D01*
X128601464Y-76828298D01*
X128657001Y-76694219D01*
X128729203Y-76782197D01*
X128957395Y-76969469D01*
X129217737Y-77108625D01*
X129500224Y-77194316D01*
X129794000Y-77223251D01*
X130087777Y-77194316D01*
X130370264Y-77108625D01*
X130630606Y-76969469D01*
X130858797Y-76782197D01*
X131046069Y-76554006D01*
X131064000Y-76520459D01*
X131081931Y-76554006D01*
X131269203Y-76782197D01*
X131497395Y-76969469D01*
X131757737Y-77108625D01*
X132040224Y-77194316D01*
X132334000Y-77223251D01*
X132627777Y-77194316D01*
X132910264Y-77108625D01*
X133170606Y-76969469D01*
X133398797Y-76782197D01*
X133586069Y-76554006D01*
X133604000Y-76520459D01*
X133621931Y-76554006D01*
X133809203Y-76782197D01*
X134037395Y-76969469D01*
X134297737Y-77108625D01*
X134580224Y-77194316D01*
X134874000Y-77223251D01*
X135167777Y-77194316D01*
X135450264Y-77108625D01*
X135710606Y-76969469D01*
X135938797Y-76782197D01*
X136126069Y-76554006D01*
X136147424Y-76514053D01*
X136295514Y-76716729D01*
X136511965Y-76915733D01*
X136763081Y-77068686D01*
X137039211Y-77169709D01*
X137054974Y-77172358D01*
X137287000Y-77051217D01*
X137287000Y-75692000D01*
X137267000Y-75692000D01*
X137267000Y-75438000D01*
X137287000Y-75438000D01*
X137287000Y-74078783D01*
X137054974Y-73957642D01*
X137039211Y-73960291D01*
X136763081Y-74061314D01*
X136511965Y-74214267D01*
X136295514Y-74413271D01*
X136147424Y-74615947D01*
X136126069Y-74575994D01*
X135938797Y-74347803D01*
X135710605Y-74160531D01*
X135450263Y-74021375D01*
X135167776Y-73935684D01*
X134874000Y-73906749D01*
X134580223Y-73935684D01*
X134297736Y-74021375D01*
X134037394Y-74160531D01*
X133809203Y-74347803D01*
X133621931Y-74575995D01*
X133604000Y-74609541D01*
X133586069Y-74575994D01*
X133398797Y-74347803D01*
X133170605Y-74160531D01*
X132910263Y-74021375D01*
X132627776Y-73935684D01*
X132334000Y-73906749D01*
X132040223Y-73935684D01*
X131757736Y-74021375D01*
X131497394Y-74160531D01*
X131269203Y-74347803D01*
X131081931Y-74575995D01*
X131064000Y-74609541D01*
X131046069Y-74575994D01*
X130858797Y-74347803D01*
X130630605Y-74160531D01*
X130370263Y-74021375D01*
X130087776Y-73935684D01*
X129794000Y-73906749D01*
X129500223Y-73935684D01*
X129217736Y-74021375D01*
X128957394Y-74160531D01*
X128729203Y-74347803D01*
X128657001Y-74435781D01*
X128601464Y-74301702D01*
X128309594Y-73864887D01*
X128179707Y-73735000D01*
X138870598Y-73735000D01*
X138355264Y-74250334D01*
X138316035Y-74214267D01*
X138064919Y-74061314D01*
X137788789Y-73960291D01*
X137773026Y-73957642D01*
X137541000Y-74078783D01*
X137541000Y-75438000D01*
X137561000Y-75438000D01*
X137561000Y-75692000D01*
X137541000Y-75692000D01*
X137541000Y-77051217D01*
X137773026Y-77172358D01*
X137788789Y-77169709D01*
X137994701Y-77094376D01*
X137994701Y-77565397D01*
X133347003Y-82213096D01*
X133317999Y-82236899D01*
X133262871Y-82304074D01*
X133223026Y-82352624D01*
X133194051Y-82406832D01*
X133152454Y-82484654D01*
X133108997Y-82627915D01*
X133098000Y-82739568D01*
X133098000Y-82739578D01*
X133094324Y-82776900D01*
X133098000Y-82814223D01*
X133098000Y-83675736D01*
X132853625Y-83601606D01*
X132588000Y-83575444D01*
X132322374Y-83601606D01*
X132066955Y-83679086D01*
X131831560Y-83804908D01*
X131625235Y-83974236D01*
X131455908Y-84180561D01*
X131330086Y-84415956D01*
X131318000Y-84455798D01*
X131305914Y-84415955D01*
X131180092Y-84180560D01*
X131010764Y-83974235D01*
X130804439Y-83804908D01*
X130569044Y-83679086D01*
X130313625Y-83601606D01*
X130048000Y-83575444D01*
X129782374Y-83601606D01*
X129526955Y-83679086D01*
X129291560Y-83804908D01*
X129085235Y-83974236D01*
X128915908Y-84180561D01*
X128790086Y-84415956D01*
X128778000Y-84455798D01*
X128765914Y-84415955D01*
X128640092Y-84180560D01*
X128470764Y-83974235D01*
X128264439Y-83804908D01*
X128029044Y-83679086D01*
X127773625Y-83601606D01*
X127508000Y-83575444D01*
X127242374Y-83601606D01*
X126986955Y-83679086D01*
X126751560Y-83804908D01*
X126545235Y-83974236D01*
X126375908Y-84180561D01*
X126250086Y-84415956D01*
X126238000Y-84455798D01*
X126225914Y-84415955D01*
X126100092Y-84180560D01*
X125930764Y-83974235D01*
X125724439Y-83804908D01*
X125489044Y-83679086D01*
X125233625Y-83601606D01*
X124968000Y-83575444D01*
X124702374Y-83601606D01*
X124446955Y-83679086D01*
X124211560Y-83804908D01*
X124005235Y-83974236D01*
X123835908Y-84180561D01*
X123710086Y-84415956D01*
X123698000Y-84455798D01*
X123685914Y-84415955D01*
X123560092Y-84180560D01*
X123390764Y-83974235D01*
X123184439Y-83804908D01*
X122949044Y-83679086D01*
X122693625Y-83601606D01*
X122428000Y-83575444D01*
X122162374Y-83601606D01*
X121906955Y-83679086D01*
X121671560Y-83804908D01*
X121465235Y-83974236D01*
X121295908Y-84180561D01*
X121170086Y-84415956D01*
X121092606Y-84671375D01*
X121073000Y-84870437D01*
X121073000Y-85563564D01*
X121092606Y-85762626D01*
X121170086Y-86018045D01*
X121295908Y-86253440D01*
X121465236Y-86459765D01*
X121671561Y-86629092D01*
X121906956Y-86754914D01*
X122162375Y-86832394D01*
X122428000Y-86858556D01*
X122693626Y-86832394D01*
X122949045Y-86754914D01*
X123184440Y-86629092D01*
X123390765Y-86459765D01*
X123560092Y-86253440D01*
X123685914Y-86018045D01*
X123698000Y-85978202D01*
X123710086Y-86018045D01*
X123835908Y-86253440D01*
X124005236Y-86459765D01*
X124211561Y-86629092D01*
X124446956Y-86754914D01*
X124702375Y-86832394D01*
X124968000Y-86858556D01*
X125233626Y-86832394D01*
X125489045Y-86754914D01*
X125724440Y-86629092D01*
X125930765Y-86459765D01*
X126100092Y-86253440D01*
X126225914Y-86018045D01*
X126238000Y-85978202D01*
X126250086Y-86018045D01*
X126375908Y-86253440D01*
X126545236Y-86459765D01*
X126751561Y-86629092D01*
X126986956Y-86754914D01*
X127242375Y-86832394D01*
X127508000Y-86858556D01*
X127773626Y-86832394D01*
X128029045Y-86754914D01*
X128264440Y-86629092D01*
X128470765Y-86459765D01*
X128640092Y-86253440D01*
X128765914Y-86018045D01*
X128778000Y-85978202D01*
X128790086Y-86018045D01*
X128915908Y-86253440D01*
X129085236Y-86459765D01*
X129291561Y-86629092D01*
X129526956Y-86754914D01*
X129782375Y-86832394D01*
X130048000Y-86858556D01*
X130313626Y-86832394D01*
X130569045Y-86754914D01*
X130804440Y-86629092D01*
X131010765Y-86459765D01*
X131180092Y-86253440D01*
X131305914Y-86018045D01*
X131318000Y-85978202D01*
X131330086Y-86018045D01*
X131455908Y-86253440D01*
X131625236Y-86459765D01*
X131831561Y-86629092D01*
X132066956Y-86754914D01*
X132322375Y-86832394D01*
X132588000Y-86858556D01*
X132853626Y-86832394D01*
X133098001Y-86758264D01*
X133098001Y-88636797D01*
X133013451Y-88721347D01*
X132892371Y-88745432D01*
X132722211Y-88815914D01*
X132569072Y-88918238D01*
X132438838Y-89048472D01*
X132336514Y-89201611D01*
X132266032Y-89371771D01*
X132230100Y-89552411D01*
X132230100Y-89736589D01*
X132266032Y-89917229D01*
X132336514Y-90087389D01*
X132438838Y-90240528D01*
X132569072Y-90370762D01*
X132722211Y-90473086D01*
X132892371Y-90543568D01*
X133073011Y-90579500D01*
X133257189Y-90579500D01*
X133437829Y-90543568D01*
X133607989Y-90473086D01*
X133761128Y-90370762D01*
X133891362Y-90240528D01*
X133976855Y-90112578D01*
X134072438Y-90255628D01*
X134202672Y-90385862D01*
X134355811Y-90488186D01*
X134525971Y-90558668D01*
X134706611Y-90594600D01*
X134890789Y-90594600D01*
X135071429Y-90558668D01*
X135241589Y-90488186D01*
X135394728Y-90385862D01*
X135524962Y-90255628D01*
X135627286Y-90102489D01*
X135697768Y-89932329D01*
X135714698Y-89847216D01*
X135723632Y-89892129D01*
X135794114Y-90062289D01*
X135896438Y-90215428D01*
X136026672Y-90345662D01*
X136179811Y-90447986D01*
X136349971Y-90518468D01*
X136530611Y-90554400D01*
X136714789Y-90554400D01*
X136895429Y-90518468D01*
X137065589Y-90447986D01*
X137218728Y-90345662D01*
X137348962Y-90215428D01*
X137451286Y-90062289D01*
X137521768Y-89892129D01*
X137546985Y-89765356D01*
X137574032Y-89901329D01*
X137644514Y-90071489D01*
X137746838Y-90224628D01*
X137877072Y-90354862D01*
X138030211Y-90457186D01*
X138159889Y-90510900D01*
X138030211Y-90564614D01*
X137877072Y-90666938D01*
X137746838Y-90797172D01*
X137644514Y-90950311D01*
X137574032Y-91120471D01*
X137556943Y-91206382D01*
X137402374Y-91221606D01*
X137146955Y-91299086D01*
X136911560Y-91424908D01*
X136910535Y-91425749D01*
X136882000Y-91331679D01*
X136882000Y-91301111D01*
X136846068Y-91120471D01*
X136775586Y-90950311D01*
X136673262Y-90797172D01*
X136543028Y-90666938D01*
X136389889Y-90564614D01*
X136219729Y-90494132D01*
X136039089Y-90458200D01*
X135854911Y-90458200D01*
X135674271Y-90494132D01*
X135504111Y-90564614D01*
X135350972Y-90666938D01*
X135220738Y-90797172D01*
X135118414Y-90950311D01*
X135047932Y-91120471D01*
X135031121Y-91204986D01*
X134862374Y-91221606D01*
X134606955Y-91299086D01*
X134371560Y-91424908D01*
X134165235Y-91594236D01*
X133995908Y-91800561D01*
X133870086Y-92035956D01*
X133858000Y-92075798D01*
X133845914Y-92035955D01*
X133720092Y-91800560D01*
X133550764Y-91594235D01*
X133344439Y-91424908D01*
X133109044Y-91299086D01*
X132853625Y-91221606D01*
X132588000Y-91195444D01*
X132322374Y-91221606D01*
X132066955Y-91299086D01*
X131831560Y-91424908D01*
X131625235Y-91594236D01*
X131455908Y-91800561D01*
X131330086Y-92035956D01*
X131318000Y-92075798D01*
X131305914Y-92035955D01*
X131180092Y-91800560D01*
X131010764Y-91594235D01*
X130804439Y-91424908D01*
X130569044Y-91299086D01*
X130313625Y-91221606D01*
X130048000Y-91195444D01*
X129782374Y-91221606D01*
X129526955Y-91299086D01*
X129291560Y-91424908D01*
X129085235Y-91594236D01*
X128915908Y-91800561D01*
X128790086Y-92035956D01*
X128778000Y-92075798D01*
X128765914Y-92035955D01*
X128640092Y-91800560D01*
X128470764Y-91594235D01*
X128264439Y-91424908D01*
X128029044Y-91299086D01*
X127773625Y-91221606D01*
X127508000Y-91195444D01*
X127242374Y-91221606D01*
X126986955Y-91299086D01*
X126751560Y-91424908D01*
X126545235Y-91594236D01*
X126375908Y-91800561D01*
X126250086Y-92035956D01*
X126238000Y-92075798D01*
X126225914Y-92035955D01*
X126100092Y-91800560D01*
X125930764Y-91594235D01*
X125724439Y-91424908D01*
X125489044Y-91299086D01*
X125233625Y-91221606D01*
X124968000Y-91195444D01*
X124702374Y-91221606D01*
X124446955Y-91299086D01*
X124211560Y-91424908D01*
X124005235Y-91594236D01*
X123835908Y-91800561D01*
X123785826Y-91894258D01*
X123786072Y-91837000D01*
X123773812Y-91712518D01*
X123737502Y-91592820D01*
X123678537Y-91482506D01*
X123599185Y-91385815D01*
X123502494Y-91306463D01*
X123392180Y-91247498D01*
X123272482Y-91211188D01*
X123148000Y-91198928D01*
X122713750Y-91202000D01*
X122555000Y-91360750D01*
X122555000Y-92710000D01*
X122575000Y-92710000D01*
X122575000Y-92964000D01*
X122555000Y-92964000D01*
X122555000Y-94313250D01*
X122713750Y-94472000D01*
X123148000Y-94475072D01*
X123272482Y-94462812D01*
X123392180Y-94426502D01*
X123502494Y-94367537D01*
X123599185Y-94288185D01*
X123678537Y-94191494D01*
X123737502Y-94081180D01*
X123773812Y-93961482D01*
X123786072Y-93837000D01*
X123785826Y-93779743D01*
X123835908Y-93873440D01*
X124005236Y-94079765D01*
X124211561Y-94249092D01*
X124446956Y-94374914D01*
X124702375Y-94452394D01*
X124968000Y-94478556D01*
X125233626Y-94452394D01*
X125489045Y-94374914D01*
X125724440Y-94249092D01*
X125930765Y-94079765D01*
X126100092Y-93873440D01*
X126225914Y-93638045D01*
X126238000Y-93598202D01*
X126250086Y-93638045D01*
X126375908Y-93873440D01*
X126545236Y-94079765D01*
X126751561Y-94249092D01*
X126986956Y-94374914D01*
X127242375Y-94452394D01*
X127508000Y-94478556D01*
X127773626Y-94452394D01*
X127985301Y-94388184D01*
X128013300Y-94422301D01*
X128042298Y-94446099D01*
X129558800Y-95962602D01*
X129558800Y-98247714D01*
X129301335Y-98196500D01*
X129018665Y-98196500D01*
X128741426Y-98251647D01*
X128480273Y-98359820D01*
X128245241Y-98516863D01*
X128045363Y-98716741D01*
X127888320Y-98951773D01*
X127780147Y-99212926D01*
X127725000Y-99490165D01*
X127725000Y-99772835D01*
X127780147Y-100050074D01*
X127888320Y-100311227D01*
X128045363Y-100546259D01*
X128245241Y-100746137D01*
X128480273Y-100903180D01*
X128741426Y-101011353D01*
X129018665Y-101066500D01*
X129301335Y-101066500D01*
X129558801Y-101015286D01*
X129558801Y-104662098D01*
X129556998Y-104663901D01*
X129528000Y-104687699D01*
X129504202Y-104716697D01*
X129504201Y-104716698D01*
X129433026Y-104803424D01*
X129362454Y-104935454D01*
X129338558Y-105014233D01*
X129318998Y-105078714D01*
X129312945Y-105140168D01*
X129311560Y-105140908D01*
X129105235Y-105310236D01*
X128935908Y-105516561D01*
X128810086Y-105751956D01*
X128798000Y-105791798D01*
X128785914Y-105751955D01*
X128660092Y-105516560D01*
X128490764Y-105310235D01*
X128284439Y-105140908D01*
X128049044Y-105015086D01*
X127793625Y-104937606D01*
X127528000Y-104911444D01*
X127262374Y-104937606D01*
X127006955Y-105015086D01*
X126771560Y-105140908D01*
X126565235Y-105310236D01*
X126395908Y-105516561D01*
X126314962Y-105668000D01*
X126301176Y-105668000D01*
X126257700Y-105663718D01*
X126214223Y-105668000D01*
X126084210Y-105680805D01*
X125917387Y-105731411D01*
X125763641Y-105813589D01*
X125628883Y-105924183D01*
X125518289Y-106058941D01*
X125436111Y-106212687D01*
X125385505Y-106379510D01*
X125368418Y-106553000D01*
X125372700Y-106596477D01*
X125372701Y-115592121D01*
X125368419Y-115635600D01*
X125385505Y-115809090D01*
X125436112Y-115975913D01*
X125518290Y-116129659D01*
X125601168Y-116230646D01*
X125601171Y-116230649D01*
X125628884Y-116264417D01*
X125662652Y-116292130D01*
X131013183Y-121642662D01*
X131003463Y-121654506D01*
X130944498Y-121764820D01*
X130908188Y-121884518D01*
X130895928Y-122009000D01*
X130895928Y-123609000D01*
X130908188Y-123733482D01*
X130944498Y-123853180D01*
X131003463Y-123963494D01*
X131082815Y-124060185D01*
X131179506Y-124139537D01*
X131289820Y-124198502D01*
X131409518Y-124234812D01*
X131534000Y-124247072D01*
X133134000Y-124247072D01*
X133258482Y-124234812D01*
X133378180Y-124198502D01*
X133488494Y-124139537D01*
X133585185Y-124060185D01*
X133664537Y-123963494D01*
X133723502Y-123853180D01*
X133739117Y-123801702D01*
X134020903Y-123801702D01*
X134092486Y-124045671D01*
X134347996Y-124166571D01*
X134622184Y-124235300D01*
X134904512Y-124249217D01*
X135184130Y-124207787D01*
X135450292Y-124112603D01*
X135575514Y-124045671D01*
X135647097Y-123801702D01*
X134834000Y-122988605D01*
X134020903Y-123801702D01*
X133739117Y-123801702D01*
X133759812Y-123733482D01*
X133772072Y-123609000D01*
X133772072Y-123601785D01*
X133841298Y-123622097D01*
X134654395Y-122809000D01*
X135013605Y-122809000D01*
X135826702Y-123622097D01*
X136070671Y-123550514D01*
X136191571Y-123295004D01*
X136260300Y-123020816D01*
X136274217Y-122738488D01*
X136232787Y-122458870D01*
X136137603Y-122192708D01*
X136070671Y-122067486D01*
X135826702Y-121995903D01*
X135013605Y-122809000D01*
X134654395Y-122809000D01*
X133841298Y-121995903D01*
X133772072Y-122016215D01*
X133772072Y-122009000D01*
X133759812Y-121884518D01*
X133739118Y-121816298D01*
X134020903Y-121816298D01*
X134834000Y-122629395D01*
X135647097Y-121816298D01*
X135575514Y-121572329D01*
X135320004Y-121451429D01*
X135045816Y-121382700D01*
X134763488Y-121368783D01*
X134483870Y-121410213D01*
X134217708Y-121505397D01*
X134092486Y-121572329D01*
X134020903Y-121816298D01*
X133739118Y-121816298D01*
X133723502Y-121764820D01*
X133664537Y-121654506D01*
X133585185Y-121557815D01*
X133488494Y-121478463D01*
X133378180Y-121419498D01*
X133258482Y-121383188D01*
X133215427Y-121378948D01*
X133206195Y-121285210D01*
X133155589Y-121118387D01*
X133073411Y-120964641D01*
X132962817Y-120829883D01*
X132828059Y-120719289D01*
X132674313Y-120637111D01*
X132507490Y-120586505D01*
X132455016Y-120581337D01*
X127655002Y-115781324D01*
X127655002Y-115649252D01*
X127813750Y-115808000D01*
X128248000Y-115811072D01*
X128372482Y-115798812D01*
X128492180Y-115762502D01*
X128602494Y-115703537D01*
X128699185Y-115624185D01*
X128778537Y-115527494D01*
X128837502Y-115417180D01*
X128873812Y-115297482D01*
X128886072Y-115173000D01*
X128885826Y-115115743D01*
X128935908Y-115209440D01*
X129105236Y-115415765D01*
X129311561Y-115585092D01*
X129546956Y-115710914D01*
X129802375Y-115788394D01*
X130068000Y-115814556D01*
X130333626Y-115788394D01*
X130589045Y-115710914D01*
X130824440Y-115585092D01*
X131030765Y-115415765D01*
X131200092Y-115209440D01*
X131325914Y-114974045D01*
X131338000Y-114934202D01*
X131350086Y-114974045D01*
X131475908Y-115209440D01*
X131645236Y-115415765D01*
X131851561Y-115585092D01*
X132086956Y-115710914D01*
X132342375Y-115788394D01*
X132608000Y-115814556D01*
X132873626Y-115788394D01*
X133129045Y-115710914D01*
X133364440Y-115585092D01*
X133570765Y-115415765D01*
X133740092Y-115209440D01*
X133865914Y-114974045D01*
X133878000Y-114934202D01*
X133890086Y-114974045D01*
X134015908Y-115209440D01*
X134185236Y-115415765D01*
X134391561Y-115585092D01*
X134626956Y-115710914D01*
X134882375Y-115788394D01*
X135148000Y-115814556D01*
X135413626Y-115788394D01*
X135669045Y-115710914D01*
X135904440Y-115585092D01*
X136110765Y-115415765D01*
X136280092Y-115209440D01*
X136405914Y-114974045D01*
X136418000Y-114934202D01*
X136430086Y-114974045D01*
X136555908Y-115209440D01*
X136725236Y-115415765D01*
X136931561Y-115585092D01*
X137166956Y-115710914D01*
X137422375Y-115788394D01*
X137688000Y-115814556D01*
X137953626Y-115788394D01*
X138209045Y-115710914D01*
X138444440Y-115585092D01*
X138650765Y-115415765D01*
X138820092Y-115209440D01*
X138945914Y-114974045D01*
X138958000Y-114934202D01*
X138970086Y-114974045D01*
X139095908Y-115209440D01*
X139265236Y-115415765D01*
X139471561Y-115585092D01*
X139706956Y-115710914D01*
X139962375Y-115788394D01*
X140228000Y-115814556D01*
X140493626Y-115788394D01*
X140749045Y-115710914D01*
X140984440Y-115585092D01*
X141190765Y-115415765D01*
X141360092Y-115209440D01*
X141485914Y-114974045D01*
X141498000Y-114934202D01*
X141510086Y-114974045D01*
X141635908Y-115209440D01*
X141805236Y-115415765D01*
X142011561Y-115585092D01*
X142246956Y-115710914D01*
X142502375Y-115788394D01*
X142768000Y-115814556D01*
X143033626Y-115788394D01*
X143289045Y-115710914D01*
X143524440Y-115585092D01*
X143730765Y-115415765D01*
X143900092Y-115209440D01*
X144025914Y-114974045D01*
X144038000Y-114934202D01*
X144050086Y-114974045D01*
X144175908Y-115209440D01*
X144345236Y-115415765D01*
X144551561Y-115585092D01*
X144786956Y-115710914D01*
X145042375Y-115788394D01*
X145308000Y-115814556D01*
X145573626Y-115788394D01*
X145829045Y-115710914D01*
X146064440Y-115585092D01*
X146270765Y-115415765D01*
X146440092Y-115209440D01*
X146565914Y-114974045D01*
X146578000Y-114934202D01*
X146590086Y-114974045D01*
X146715908Y-115209440D01*
X146885236Y-115415765D01*
X147091561Y-115585092D01*
X147326956Y-115710914D01*
X147582375Y-115788394D01*
X147848000Y-115814556D01*
X148113626Y-115788394D01*
X148369045Y-115710914D01*
X148604440Y-115585092D01*
X148810765Y-115415765D01*
X148980092Y-115209440D01*
X149105914Y-114974045D01*
X149119505Y-114929241D01*
X149184744Y-115088869D01*
X149331916Y-115311395D01*
X149519673Y-115500933D01*
X149740799Y-115650199D01*
X149986797Y-115753458D01*
X150051528Y-115765559D01*
X150261000Y-115642489D01*
X150261000Y-114300000D01*
X150515000Y-114300000D01*
X150515000Y-115642489D01*
X150724472Y-115765559D01*
X150789203Y-115753458D01*
X151035201Y-115650199D01*
X151256327Y-115500933D01*
X151444084Y-115311395D01*
X151591256Y-115088869D01*
X151692188Y-114841907D01*
X151743000Y-114580000D01*
X151743000Y-114300000D01*
X150515000Y-114300000D01*
X150261000Y-114300000D01*
X150241000Y-114300000D01*
X150241000Y-114046000D01*
X150261000Y-114046000D01*
X150261000Y-112703511D01*
X150515000Y-112703511D01*
X150515000Y-114046000D01*
X151743000Y-114046000D01*
X151743000Y-113766000D01*
X151692188Y-113504093D01*
X151591256Y-113257131D01*
X151444084Y-113034605D01*
X151256327Y-112845067D01*
X151248380Y-112839702D01*
X159524903Y-112839702D01*
X159596486Y-113083671D01*
X159851996Y-113204571D01*
X160126184Y-113273300D01*
X160408512Y-113287217D01*
X160688130Y-113245787D01*
X160954292Y-113150603D01*
X161079514Y-113083671D01*
X161151097Y-112839702D01*
X160338000Y-112026605D01*
X159524903Y-112839702D01*
X151248380Y-112839702D01*
X151035201Y-112695801D01*
X150789203Y-112592542D01*
X150724472Y-112580441D01*
X150515000Y-112703511D01*
X150261000Y-112703511D01*
X150051528Y-112580441D01*
X149986797Y-112592542D01*
X149740799Y-112695801D01*
X149519673Y-112845067D01*
X149331916Y-113034605D01*
X149184744Y-113257131D01*
X149119505Y-113416759D01*
X149105914Y-113371955D01*
X148980092Y-113136560D01*
X148810764Y-112930235D01*
X148604439Y-112760908D01*
X148369044Y-112635086D01*
X148113625Y-112557606D01*
X147848000Y-112531444D01*
X147582374Y-112557606D01*
X147326955Y-112635086D01*
X147091560Y-112760908D01*
X146885235Y-112930236D01*
X146715908Y-113136561D01*
X146590086Y-113371956D01*
X146578000Y-113411798D01*
X146565914Y-113371955D01*
X146440092Y-113136560D01*
X146270764Y-112930235D01*
X146064439Y-112760908D01*
X145829044Y-112635086D01*
X145573625Y-112557606D01*
X145308000Y-112531444D01*
X145042374Y-112557606D01*
X144786955Y-112635086D01*
X144551560Y-112760908D01*
X144345235Y-112930236D01*
X144175908Y-113136561D01*
X144050086Y-113371956D01*
X144038000Y-113411798D01*
X144025914Y-113371955D01*
X143900092Y-113136560D01*
X143730764Y-112930235D01*
X143524439Y-112760908D01*
X143289044Y-112635086D01*
X143033625Y-112557606D01*
X142768000Y-112531444D01*
X142502374Y-112557606D01*
X142246955Y-112635086D01*
X142011560Y-112760908D01*
X141805235Y-112930236D01*
X141635908Y-113136561D01*
X141510086Y-113371956D01*
X141498000Y-113411798D01*
X141485914Y-113371955D01*
X141360092Y-113136560D01*
X141190764Y-112930235D01*
X140984439Y-112760908D01*
X140749044Y-112635086D01*
X140493625Y-112557606D01*
X140228000Y-112531444D01*
X139962374Y-112557606D01*
X139706955Y-112635086D01*
X139471560Y-112760908D01*
X139265235Y-112930236D01*
X139095908Y-113136561D01*
X138970086Y-113371956D01*
X138958000Y-113411798D01*
X138945914Y-113371955D01*
X138820092Y-113136560D01*
X138650764Y-112930235D01*
X138444439Y-112760908D01*
X138209044Y-112635086D01*
X137953625Y-112557606D01*
X137688000Y-112531444D01*
X137422374Y-112557606D01*
X137166955Y-112635086D01*
X136931560Y-112760908D01*
X136725235Y-112930236D01*
X136555908Y-113136561D01*
X136430086Y-113371956D01*
X136418000Y-113411798D01*
X136405914Y-113371955D01*
X136280092Y-113136560D01*
X136110764Y-112930235D01*
X135904439Y-112760908D01*
X135669044Y-112635086D01*
X135413625Y-112557606D01*
X135148000Y-112531444D01*
X134882374Y-112557606D01*
X134626955Y-112635086D01*
X134391560Y-112760908D01*
X134185235Y-112930236D01*
X134015908Y-113136561D01*
X133890086Y-113371956D01*
X133878000Y-113411798D01*
X133865914Y-113371955D01*
X133740092Y-113136560D01*
X133570764Y-112930235D01*
X133364439Y-112760908D01*
X133129044Y-112635086D01*
X132873625Y-112557606D01*
X132608000Y-112531444D01*
X132342374Y-112557606D01*
X132086955Y-112635086D01*
X131851560Y-112760908D01*
X131645235Y-112930236D01*
X131475908Y-113136561D01*
X131350086Y-113371956D01*
X131338000Y-113411798D01*
X131325914Y-113371955D01*
X131200092Y-113136560D01*
X131030764Y-112930235D01*
X130824439Y-112760908D01*
X130589044Y-112635086D01*
X130333625Y-112557606D01*
X130068000Y-112531444D01*
X129802374Y-112557606D01*
X129546955Y-112635086D01*
X129311560Y-112760908D01*
X129105235Y-112930236D01*
X128935908Y-113136561D01*
X128885826Y-113230258D01*
X128886072Y-113173000D01*
X128873812Y-113048518D01*
X128837502Y-112928820D01*
X128778537Y-112818506D01*
X128699185Y-112721815D01*
X128602494Y-112642463D01*
X128492180Y-112583498D01*
X128372482Y-112547188D01*
X128248000Y-112534928D01*
X127813750Y-112538000D01*
X127655000Y-112696750D01*
X127655000Y-114046000D01*
X127675000Y-114046000D01*
X127675000Y-114300000D01*
X127655000Y-114300000D01*
X127655000Y-114320000D01*
X127401000Y-114320000D01*
X127401000Y-114300000D01*
X127381000Y-114300000D01*
X127381000Y-114046000D01*
X127401000Y-114046000D01*
X127401000Y-112696750D01*
X127242250Y-112538000D01*
X127142700Y-112537296D01*
X127142700Y-108132091D01*
X127262375Y-108168394D01*
X127528000Y-108194556D01*
X127793626Y-108168394D01*
X128049045Y-108090914D01*
X128284440Y-107965092D01*
X128490765Y-107795765D01*
X128660092Y-107589440D01*
X128785914Y-107354045D01*
X128798000Y-107314202D01*
X128810086Y-107354045D01*
X128935908Y-107589440D01*
X129105236Y-107795765D01*
X129311561Y-107965092D01*
X129546956Y-108090914D01*
X129802375Y-108168394D01*
X130068000Y-108194556D01*
X130333626Y-108168394D01*
X130589045Y-108090914D01*
X130824440Y-107965092D01*
X131030765Y-107795765D01*
X131200092Y-107589440D01*
X131325914Y-107354045D01*
X131338000Y-107314202D01*
X131350086Y-107354045D01*
X131475908Y-107589440D01*
X131645236Y-107795765D01*
X131851561Y-107965092D01*
X132086956Y-108090914D01*
X132342375Y-108168394D01*
X132608000Y-108194556D01*
X132873626Y-108168394D01*
X133129045Y-108090914D01*
X133364440Y-107965092D01*
X133570765Y-107795765D01*
X133740092Y-107589440D01*
X133865914Y-107354045D01*
X133878000Y-107314202D01*
X133890086Y-107354045D01*
X134015908Y-107589440D01*
X134185236Y-107795765D01*
X134391561Y-107965092D01*
X134626956Y-108090914D01*
X134882375Y-108168394D01*
X135148000Y-108194556D01*
X135413626Y-108168394D01*
X135669045Y-108090914D01*
X135904440Y-107965092D01*
X136110765Y-107795765D01*
X136280092Y-107589440D01*
X136405914Y-107354045D01*
X136418000Y-107314202D01*
X136430086Y-107354045D01*
X136555908Y-107589440D01*
X136725236Y-107795765D01*
X136931561Y-107965092D01*
X137166956Y-108090914D01*
X137422375Y-108168394D01*
X137688000Y-108194556D01*
X137953626Y-108168394D01*
X137982701Y-108159574D01*
X137982701Y-109949597D01*
X137859851Y-110072447D01*
X137738771Y-110096532D01*
X137568611Y-110167014D01*
X137415472Y-110269338D01*
X137285238Y-110399572D01*
X137182914Y-110552711D01*
X137112432Y-110722871D01*
X137076500Y-110903511D01*
X137076500Y-111087689D01*
X137112432Y-111268329D01*
X137182914Y-111438489D01*
X137285238Y-111591628D01*
X137415472Y-111721862D01*
X137568611Y-111824186D01*
X137738771Y-111894668D01*
X137919411Y-111930600D01*
X138103589Y-111930600D01*
X138284229Y-111894668D01*
X138454389Y-111824186D01*
X138607528Y-111721862D01*
X138737762Y-111591628D01*
X138840086Y-111438489D01*
X138910568Y-111268329D01*
X138934653Y-111147249D01*
X139253702Y-110828199D01*
X139282701Y-110804401D01*
X139309032Y-110772317D01*
X139377674Y-110688677D01*
X139448246Y-110556647D01*
X139452265Y-110543397D01*
X139491703Y-110413386D01*
X139502700Y-110301733D01*
X139502700Y-110301723D01*
X139506376Y-110264400D01*
X139502700Y-110227077D01*
X139502700Y-107981736D01*
X139706956Y-108090914D01*
X139962375Y-108168394D01*
X140228000Y-108194556D01*
X140493626Y-108168394D01*
X140568401Y-108145711D01*
X140568401Y-110450063D01*
X140499814Y-110552711D01*
X140429332Y-110722871D01*
X140393400Y-110903511D01*
X140393400Y-111087689D01*
X140429332Y-111268329D01*
X140499814Y-111438489D01*
X140602138Y-111591628D01*
X140732372Y-111721862D01*
X140885511Y-111824186D01*
X141055671Y-111894668D01*
X141236311Y-111930600D01*
X141420489Y-111930600D01*
X141601129Y-111894668D01*
X141771289Y-111824186D01*
X141924428Y-111721862D01*
X142054662Y-111591628D01*
X142156986Y-111438489D01*
X142227468Y-111268329D01*
X142263400Y-111087689D01*
X142263400Y-110903511D01*
X142227468Y-110722871D01*
X142156986Y-110552711D01*
X142088400Y-110450065D01*
X142088400Y-108006164D01*
X142246956Y-108090914D01*
X142502375Y-108168394D01*
X142768000Y-108194556D01*
X143033626Y-108168394D01*
X143277901Y-108094295D01*
X143277901Y-110391209D01*
X143269538Y-110399572D01*
X143167214Y-110552711D01*
X143096732Y-110722871D01*
X143060800Y-110903511D01*
X143060800Y-111087689D01*
X143096732Y-111268329D01*
X143167214Y-111438489D01*
X143269538Y-111591628D01*
X143399772Y-111721862D01*
X143552911Y-111824186D01*
X143723071Y-111894668D01*
X143903711Y-111930600D01*
X144087889Y-111930600D01*
X144153685Y-111917512D01*
X158897783Y-111917512D01*
X158939213Y-112197130D01*
X159034397Y-112463292D01*
X159101329Y-112588514D01*
X159345298Y-112660097D01*
X160158395Y-111847000D01*
X160517605Y-111847000D01*
X161330702Y-112660097D01*
X161574671Y-112588514D01*
X161695571Y-112333004D01*
X161764300Y-112058816D01*
X161778217Y-111776488D01*
X161736787Y-111496870D01*
X161641603Y-111230708D01*
X161574671Y-111105486D01*
X161330702Y-111033903D01*
X160517605Y-111847000D01*
X160158395Y-111847000D01*
X159345298Y-111033903D01*
X159101329Y-111105486D01*
X158980429Y-111360996D01*
X158911700Y-111635184D01*
X158897783Y-111917512D01*
X144153685Y-111917512D01*
X144268529Y-111894668D01*
X144438689Y-111824186D01*
X144591828Y-111721862D01*
X144722062Y-111591628D01*
X144824386Y-111438489D01*
X144894868Y-111268329D01*
X144930800Y-111087689D01*
X144930800Y-110903511D01*
X144894868Y-110722871D01*
X144824386Y-110552711D01*
X144797900Y-110513072D01*
X144797900Y-108094234D01*
X145042375Y-108168394D01*
X145308000Y-108194556D01*
X145573626Y-108168394D01*
X145829045Y-108090914D01*
X146064440Y-107965092D01*
X146246872Y-107815374D01*
X146831705Y-108400208D01*
X146855499Y-108429201D01*
X146884492Y-108452995D01*
X146884496Y-108452999D01*
X146922709Y-108484359D01*
X146971224Y-108524174D01*
X147103253Y-108594746D01*
X147246514Y-108638203D01*
X147358167Y-108649200D01*
X147358176Y-108649200D01*
X147395499Y-108652876D01*
X147432822Y-108649200D01*
X148281678Y-108649200D01*
X148319000Y-108652876D01*
X148356322Y-108649200D01*
X148356333Y-108649200D01*
X148467986Y-108638203D01*
X148611247Y-108594746D01*
X148743276Y-108524174D01*
X148859001Y-108429201D01*
X148882804Y-108400198D01*
X149459290Y-107823712D01*
X149631561Y-107965092D01*
X149661763Y-107981235D01*
X147610852Y-110032147D01*
X147489771Y-110056232D01*
X147319611Y-110126714D01*
X147166472Y-110229038D01*
X147036238Y-110359272D01*
X146933914Y-110512411D01*
X146863432Y-110682571D01*
X146827500Y-110863211D01*
X146827500Y-111047389D01*
X146863432Y-111228029D01*
X146933914Y-111398189D01*
X147036238Y-111551328D01*
X147166472Y-111681562D01*
X147319611Y-111783886D01*
X147489771Y-111854368D01*
X147670411Y-111890300D01*
X147854589Y-111890300D01*
X148035229Y-111854368D01*
X148205389Y-111783886D01*
X148358528Y-111681562D01*
X148488762Y-111551328D01*
X148591086Y-111398189D01*
X148661568Y-111228029D01*
X148685653Y-111106948D01*
X151424401Y-108368201D01*
X151424401Y-109365297D01*
X151118151Y-109671547D01*
X150997071Y-109695632D01*
X150826911Y-109766114D01*
X150673772Y-109868438D01*
X150543538Y-109998672D01*
X150441214Y-110151811D01*
X150370732Y-110321971D01*
X150334800Y-110502611D01*
X150334800Y-110686789D01*
X150370732Y-110867429D01*
X150441214Y-111037589D01*
X150543538Y-111190728D01*
X150673772Y-111320962D01*
X150826911Y-111423286D01*
X150997071Y-111493768D01*
X151177711Y-111529700D01*
X151361889Y-111529700D01*
X151542529Y-111493768D01*
X151712689Y-111423286D01*
X151865828Y-111320962D01*
X151996062Y-111190728D01*
X152098386Y-111037589D01*
X152168868Y-110867429D01*
X152192953Y-110746349D01*
X152695403Y-110243899D01*
X152724401Y-110220101D01*
X152819374Y-110104376D01*
X152889946Y-109972347D01*
X152933403Y-109829086D01*
X152944400Y-109717433D01*
X152944400Y-109717425D01*
X152948076Y-109680100D01*
X152944400Y-109642775D01*
X152944400Y-97230733D01*
X152948077Y-97193400D01*
X152933403Y-97044414D01*
X152889946Y-96901153D01*
X152819374Y-96769124D01*
X152748199Y-96682397D01*
X152724401Y-96653399D01*
X152695404Y-96629602D01*
X150495002Y-94429201D01*
X150495002Y-94306490D01*
X150704472Y-94429559D01*
X150769203Y-94417458D01*
X151015201Y-94314199D01*
X151236327Y-94164933D01*
X151424084Y-93975395D01*
X151571256Y-93752869D01*
X151672188Y-93505907D01*
X151723000Y-93244000D01*
X151723000Y-92964000D01*
X150495000Y-92964000D01*
X150495000Y-92984000D01*
X150241000Y-92984000D01*
X150241000Y-92964000D01*
X150221000Y-92964000D01*
X150221000Y-92710000D01*
X150241000Y-92710000D01*
X150241000Y-91367511D01*
X150495000Y-91367511D01*
X150495000Y-92710000D01*
X151723000Y-92710000D01*
X151723000Y-92430000D01*
X151672188Y-92168093D01*
X151571256Y-91921131D01*
X151424084Y-91698605D01*
X151236327Y-91509067D01*
X151015201Y-91359801D01*
X150769203Y-91256542D01*
X150704472Y-91244441D01*
X150495000Y-91367511D01*
X150241000Y-91367511D01*
X150031528Y-91244441D01*
X149966797Y-91256542D01*
X149720799Y-91359801D01*
X149499673Y-91509067D01*
X149311916Y-91698605D01*
X149164744Y-91921131D01*
X149099505Y-92080759D01*
X149085914Y-92035955D01*
X148960092Y-91800560D01*
X148790764Y-91594235D01*
X148584439Y-91424908D01*
X148349044Y-91299086D01*
X148093625Y-91221606D01*
X147828000Y-91195444D01*
X147562374Y-91221606D01*
X147306955Y-91299086D01*
X147071560Y-91424908D01*
X146865235Y-91594236D01*
X146695908Y-91800561D01*
X146570086Y-92035956D01*
X146558000Y-92075798D01*
X146545914Y-92035955D01*
X146420092Y-91800560D01*
X146250764Y-91594235D01*
X146044439Y-91424908D01*
X145809044Y-91299086D01*
X145553625Y-91221606D01*
X145288000Y-91195444D01*
X145022374Y-91221606D01*
X144766955Y-91299086D01*
X144531560Y-91424908D01*
X144325235Y-91594236D01*
X144155908Y-91800561D01*
X144030086Y-92035956D01*
X144018000Y-92075798D01*
X144005914Y-92035955D01*
X143880092Y-91800560D01*
X143710764Y-91594235D01*
X143504439Y-91424908D01*
X143269044Y-91299086D01*
X143013625Y-91221606D01*
X142748000Y-91195444D01*
X142482374Y-91221606D01*
X142226955Y-91299086D01*
X141991560Y-91424908D01*
X141785235Y-91594236D01*
X141615908Y-91800561D01*
X141490086Y-92035956D01*
X141478000Y-92075798D01*
X141465914Y-92035955D01*
X141340092Y-91800560D01*
X141170764Y-91594235D01*
X140964439Y-91424908D01*
X140729044Y-91299086D01*
X140473625Y-91221606D01*
X140208000Y-91195444D01*
X139942374Y-91221606D01*
X139686955Y-91299086D01*
X139530867Y-91382517D01*
X139518552Y-91367511D01*
X139478001Y-91318099D01*
X139448998Y-91294297D01*
X139396253Y-91241552D01*
X139372168Y-91120471D01*
X139301686Y-90950311D01*
X139199362Y-90797172D01*
X139069128Y-90666938D01*
X138915989Y-90564614D01*
X138786311Y-90510900D01*
X138915989Y-90457186D01*
X139069128Y-90354862D01*
X139199362Y-90224628D01*
X139262958Y-90129449D01*
X139319138Y-90213528D01*
X139449372Y-90343762D01*
X139602511Y-90446086D01*
X139772671Y-90516568D01*
X139953311Y-90552500D01*
X140137489Y-90552500D01*
X140318129Y-90516568D01*
X140488289Y-90446086D01*
X140641428Y-90343762D01*
X140771662Y-90213528D01*
X140873986Y-90060389D01*
X140944468Y-89890229D01*
X140968553Y-89769148D01*
X143259003Y-87478699D01*
X143288001Y-87454901D01*
X143382974Y-87339176D01*
X143453546Y-87207147D01*
X143497003Y-87063886D01*
X143508000Y-86952233D01*
X143511677Y-86914900D01*
X143508000Y-86877567D01*
X143508000Y-86626170D01*
X143710765Y-86459765D01*
X143880092Y-86253440D01*
X144005914Y-86018045D01*
X144018000Y-85978202D01*
X144030086Y-86018045D01*
X144155908Y-86253440D01*
X144325236Y-86459765D01*
X144531561Y-86629092D01*
X144766956Y-86754914D01*
X145022375Y-86832394D01*
X145127455Y-86842744D01*
X143352652Y-88617547D01*
X143231571Y-88641632D01*
X143061411Y-88712114D01*
X142908272Y-88814438D01*
X142778038Y-88944672D01*
X142675714Y-89097811D01*
X142605232Y-89267971D01*
X142569300Y-89448611D01*
X142569300Y-89632789D01*
X142605232Y-89813429D01*
X142675714Y-89983589D01*
X142778038Y-90136728D01*
X142908272Y-90266962D01*
X143061411Y-90369286D01*
X143231571Y-90439768D01*
X143412211Y-90475700D01*
X143596389Y-90475700D01*
X143777029Y-90439768D01*
X143947189Y-90369286D01*
X144100328Y-90266962D01*
X144230562Y-90136728D01*
X144332886Y-89983589D01*
X144403368Y-89813429D01*
X144427453Y-89692348D01*
X147293703Y-86826099D01*
X147322701Y-86802301D01*
X147350700Y-86768184D01*
X147562375Y-86832394D01*
X147828000Y-86858556D01*
X148093626Y-86832394D01*
X148349045Y-86754914D01*
X148584440Y-86629092D01*
X148790765Y-86459765D01*
X148960092Y-86253440D01*
X149085914Y-86018045D01*
X149098000Y-85978202D01*
X149110086Y-86018045D01*
X149235908Y-86253440D01*
X149405236Y-86459765D01*
X149611561Y-86629092D01*
X149652580Y-86651017D01*
X147621099Y-88682500D01*
X147494711Y-88682500D01*
X147314071Y-88718432D01*
X147143911Y-88788914D01*
X146990772Y-88891238D01*
X146860538Y-89021472D01*
X146758214Y-89174611D01*
X146687732Y-89344771D01*
X146651800Y-89525411D01*
X146651800Y-89709589D01*
X146687732Y-89890229D01*
X146758214Y-90060389D01*
X146860538Y-90213528D01*
X146990772Y-90343762D01*
X147143911Y-90446086D01*
X147314071Y-90516568D01*
X147494711Y-90552500D01*
X147678889Y-90552500D01*
X147859529Y-90516568D01*
X148029689Y-90446086D01*
X148182828Y-90343762D01*
X148313062Y-90213528D01*
X148363185Y-90138514D01*
X148441438Y-90255628D01*
X148571672Y-90385862D01*
X148724811Y-90488186D01*
X148894971Y-90558668D01*
X149075611Y-90594600D01*
X149259789Y-90594600D01*
X149440429Y-90558668D01*
X149610589Y-90488186D01*
X149746000Y-90397707D01*
X149881411Y-90488186D01*
X150051571Y-90558668D01*
X150232211Y-90594600D01*
X150416389Y-90594600D01*
X150482185Y-90581512D01*
X158897783Y-90581512D01*
X158939213Y-90861130D01*
X159034397Y-91127292D01*
X159101329Y-91252514D01*
X159345298Y-91324097D01*
X160158395Y-90511000D01*
X159345298Y-89697903D01*
X159101329Y-89769486D01*
X158980429Y-90024996D01*
X158911700Y-90299184D01*
X158897783Y-90581512D01*
X150482185Y-90581512D01*
X150597029Y-90558668D01*
X150767189Y-90488186D01*
X150920328Y-90385862D01*
X151050562Y-90255628D01*
X151152886Y-90102489D01*
X151223368Y-89932329D01*
X151247453Y-89811248D01*
X153186301Y-87872401D01*
X153186301Y-88227197D01*
X152719151Y-88694347D01*
X152598071Y-88718432D01*
X152427911Y-88788914D01*
X152274772Y-88891238D01*
X152144538Y-89021472D01*
X152042214Y-89174611D01*
X151971732Y-89344771D01*
X151935800Y-89525411D01*
X151935800Y-89709589D01*
X151971732Y-89890229D01*
X152042214Y-90060389D01*
X152144538Y-90213528D01*
X152274772Y-90343762D01*
X152427911Y-90446086D01*
X152598071Y-90516568D01*
X152778711Y-90552500D01*
X152962889Y-90552500D01*
X153143529Y-90516568D01*
X153313689Y-90446086D01*
X153466828Y-90343762D01*
X153597062Y-90213528D01*
X153699386Y-90060389D01*
X153711075Y-90032168D01*
X153720114Y-90053989D01*
X153822438Y-90207128D01*
X153952672Y-90337362D01*
X154105811Y-90439686D01*
X154275971Y-90510168D01*
X154456611Y-90546100D01*
X154640789Y-90546100D01*
X154821429Y-90510168D01*
X154991589Y-90439686D01*
X155144728Y-90337362D01*
X155274962Y-90207128D01*
X155377286Y-90053989D01*
X155447768Y-89883829D01*
X155483700Y-89703189D01*
X155483700Y-89519011D01*
X155447768Y-89338371D01*
X155377286Y-89168211D01*
X155308700Y-89065565D01*
X155308700Y-86516590D01*
X155315762Y-86509528D01*
X155418086Y-86356389D01*
X155488568Y-86186229D01*
X155524500Y-86005589D01*
X155524500Y-85821411D01*
X155488568Y-85640771D01*
X155418086Y-85470611D01*
X155315762Y-85317472D01*
X155305496Y-85307206D01*
X163593827Y-77018875D01*
X163761737Y-77108625D01*
X164044224Y-77194316D01*
X164338000Y-77223251D01*
X164631777Y-77194316D01*
X164914264Y-77108625D01*
X165174606Y-76969469D01*
X165402797Y-76782197D01*
X165590069Y-76554006D01*
X165608000Y-76520459D01*
X165625931Y-76554006D01*
X165813203Y-76782197D01*
X166041395Y-76969469D01*
X166301737Y-77108625D01*
X166584224Y-77194316D01*
X166878000Y-77223251D01*
X167171777Y-77194316D01*
X167454264Y-77108625D01*
X167714606Y-76969469D01*
X167942797Y-76782197D01*
X168130069Y-76554006D01*
X168148000Y-76520459D01*
X168165931Y-76554006D01*
X168353203Y-76782197D01*
X168581395Y-76969469D01*
X168841737Y-77108625D01*
X169124224Y-77194316D01*
X169418000Y-77223251D01*
X169711777Y-77194316D01*
X169994264Y-77108625D01*
X170254606Y-76969469D01*
X170482797Y-76782197D01*
X170670069Y-76554006D01*
X170688000Y-76520459D01*
X170705931Y-76554006D01*
X170893203Y-76782197D01*
X171121395Y-76969469D01*
X171381737Y-77108625D01*
X171664224Y-77194316D01*
X171958000Y-77223251D01*
X172251777Y-77194316D01*
X172534264Y-77108625D01*
X172794606Y-76969469D01*
X173022797Y-76782197D01*
X173210069Y-76554006D01*
X173228000Y-76520459D01*
X173245931Y-76554006D01*
X173433203Y-76782197D01*
X173661395Y-76969469D01*
X173921737Y-77108625D01*
X174204224Y-77194316D01*
X174498000Y-77223251D01*
X174791777Y-77194316D01*
X175074264Y-77108625D01*
X175334606Y-76969469D01*
X175562797Y-76782197D01*
X175750069Y-76554006D01*
X175889225Y-76293663D01*
X175974916Y-76011176D01*
X175996600Y-75791018D01*
X175996600Y-75338981D01*
X175974916Y-75118823D01*
X175889225Y-74836336D01*
X175750069Y-74575994D01*
X175562797Y-74347803D01*
X175334605Y-74160531D01*
X175074263Y-74021375D01*
X174791776Y-73935684D01*
X174498000Y-73906749D01*
X174204223Y-73935684D01*
X173921736Y-74021375D01*
X173661394Y-74160531D01*
X173433203Y-74347803D01*
X173245931Y-74575995D01*
X173228000Y-74609541D01*
X173210069Y-74575994D01*
X173022797Y-74347803D01*
X172794605Y-74160531D01*
X172534263Y-74021375D01*
X172251776Y-73935684D01*
X171958000Y-73906749D01*
X171664223Y-73935684D01*
X171381736Y-74021375D01*
X171121394Y-74160531D01*
X170893203Y-74347803D01*
X170705931Y-74575995D01*
X170688000Y-74609541D01*
X170670069Y-74575994D01*
X170482797Y-74347803D01*
X170254605Y-74160531D01*
X169994263Y-74021375D01*
X169711776Y-73935684D01*
X169418000Y-73906749D01*
X169124223Y-73935684D01*
X168841736Y-74021375D01*
X168581394Y-74160531D01*
X168353203Y-74347803D01*
X168165931Y-74575995D01*
X168148000Y-74609541D01*
X168130069Y-74575994D01*
X167942797Y-74347803D01*
X167714605Y-74160531D01*
X167454263Y-74021375D01*
X167171776Y-73935684D01*
X166878000Y-73906749D01*
X166584223Y-73935684D01*
X166301736Y-74021375D01*
X166041394Y-74160531D01*
X165952493Y-74233491D01*
X165454001Y-73735000D01*
X175219909Y-73735000D01*
X176328001Y-74843093D01*
X176328000Y-85944125D01*
X176324565Y-85979000D01*
X176328000Y-86013875D01*
X176328000Y-86013876D01*
X176338273Y-86118183D01*
X176378872Y-86252019D01*
X176444800Y-86375362D01*
X176533525Y-86483474D01*
X176560617Y-86505708D01*
X178868001Y-88813093D01*
X178868001Y-88863294D01*
X178738113Y-88733406D01*
X178301298Y-88441536D01*
X177815935Y-88240492D01*
X177300677Y-88138000D01*
X176775323Y-88138000D01*
X176260065Y-88240492D01*
X175774702Y-88441536D01*
X175337887Y-88733406D01*
X174966406Y-89104887D01*
X174674536Y-89541702D01*
X174473492Y-90027065D01*
X174371000Y-90542323D01*
X174371000Y-91067677D01*
X174473492Y-91582935D01*
X174674536Y-92068298D01*
X174966406Y-92505113D01*
X175337887Y-92876594D01*
X175774702Y-93168464D01*
X176260065Y-93369508D01*
X176775323Y-93472000D01*
X177300677Y-93472000D01*
X177815935Y-93369508D01*
X178301298Y-93168464D01*
X178738113Y-92876594D01*
X178868001Y-92746706D01*
X178868000Y-116803293D01*
X178738113Y-116673406D01*
X178301298Y-116381536D01*
X177815935Y-116180492D01*
X177300677Y-116078000D01*
X176775323Y-116078000D01*
X176260065Y-116180492D01*
X175774702Y-116381536D01*
X175337887Y-116673406D01*
X174966406Y-117044887D01*
X174674536Y-117481702D01*
X174473492Y-117967065D01*
X174371000Y-118482323D01*
X174371000Y-119007677D01*
X174473492Y-119522935D01*
X174674536Y-120008298D01*
X174966406Y-120445113D01*
X175337887Y-120816594D01*
X175774702Y-121108464D01*
X176260065Y-121309508D01*
X176775323Y-121412000D01*
X177300677Y-121412000D01*
X177815935Y-121309508D01*
X178301298Y-121108464D01*
X178738113Y-120816594D01*
X178868000Y-120686707D01*
X178868000Y-120990908D01*
X176560617Y-123298292D01*
X176533526Y-123320525D01*
X176511293Y-123347616D01*
X176444801Y-123428637D01*
X176378872Y-123551981D01*
X176338274Y-123685816D01*
X176324565Y-123825000D01*
X176328001Y-123859885D01*
X176328000Y-125655000D01*
X158303078Y-125655000D01*
X160299400Y-123658678D01*
X160299400Y-124051019D01*
X160321084Y-124271177D01*
X160406775Y-124553664D01*
X160545931Y-124814006D01*
X160733203Y-125042197D01*
X160961395Y-125229469D01*
X161221737Y-125368625D01*
X161504224Y-125454316D01*
X161798000Y-125483251D01*
X162091777Y-125454316D01*
X162374264Y-125368625D01*
X162634606Y-125229469D01*
X162862797Y-125042197D01*
X163050069Y-124814006D01*
X163068000Y-124780459D01*
X163085931Y-124814006D01*
X163273203Y-125042197D01*
X163501395Y-125229469D01*
X163761737Y-125368625D01*
X164044224Y-125454316D01*
X164338000Y-125483251D01*
X164631777Y-125454316D01*
X164914264Y-125368625D01*
X165174606Y-125229469D01*
X165402797Y-125042197D01*
X165590069Y-124814006D01*
X165608000Y-124780459D01*
X165625931Y-124814006D01*
X165813203Y-125042197D01*
X166041395Y-125229469D01*
X166301737Y-125368625D01*
X166584224Y-125454316D01*
X166878000Y-125483251D01*
X167171777Y-125454316D01*
X167454264Y-125368625D01*
X167714606Y-125229469D01*
X167942797Y-125042197D01*
X168130069Y-124814006D01*
X168148000Y-124780459D01*
X168165931Y-124814006D01*
X168353203Y-125042197D01*
X168581395Y-125229469D01*
X168841737Y-125368625D01*
X169124224Y-125454316D01*
X169418000Y-125483251D01*
X169711777Y-125454316D01*
X169994264Y-125368625D01*
X170254606Y-125229469D01*
X170482797Y-125042197D01*
X170670069Y-124814006D01*
X170688000Y-124780459D01*
X170705931Y-124814006D01*
X170893203Y-125042197D01*
X171121395Y-125229469D01*
X171381737Y-125368625D01*
X171664224Y-125454316D01*
X171958000Y-125483251D01*
X172251777Y-125454316D01*
X172534264Y-125368625D01*
X172794606Y-125229469D01*
X173022797Y-125042197D01*
X173210069Y-124814006D01*
X173228000Y-124780459D01*
X173245931Y-124814006D01*
X173433203Y-125042197D01*
X173661395Y-125229469D01*
X173921737Y-125368625D01*
X174204224Y-125454316D01*
X174498000Y-125483251D01*
X174791777Y-125454316D01*
X175074264Y-125368625D01*
X175334606Y-125229469D01*
X175562797Y-125042197D01*
X175750069Y-124814006D01*
X175889225Y-124553663D01*
X175974916Y-124271176D01*
X175996600Y-124051018D01*
X175996600Y-123598981D01*
X175974916Y-123378823D01*
X175889225Y-123096336D01*
X175750069Y-122835994D01*
X175562797Y-122607803D01*
X175334605Y-122420531D01*
X175074263Y-122281375D01*
X174791776Y-122195684D01*
X174498000Y-122166749D01*
X174204223Y-122195684D01*
X173921736Y-122281375D01*
X173661394Y-122420531D01*
X173433203Y-122607803D01*
X173245931Y-122835995D01*
X173228000Y-122869541D01*
X173210069Y-122835994D01*
X173022797Y-122607803D01*
X172794605Y-122420531D01*
X172534263Y-122281375D01*
X172251776Y-122195684D01*
X171958000Y-122166749D01*
X171664223Y-122195684D01*
X171381736Y-122281375D01*
X171121394Y-122420531D01*
X170893203Y-122607803D01*
X170705931Y-122835995D01*
X170688000Y-122869541D01*
X170670069Y-122835994D01*
X170482797Y-122607803D01*
X170254605Y-122420531D01*
X169994263Y-122281375D01*
X169711776Y-122195684D01*
X169418000Y-122166749D01*
X169124223Y-122195684D01*
X168841736Y-122281375D01*
X168581394Y-122420531D01*
X168353203Y-122607803D01*
X168165931Y-122835995D01*
X168148000Y-122869541D01*
X168130069Y-122835994D01*
X167942797Y-122607803D01*
X167714605Y-122420531D01*
X167454263Y-122281375D01*
X167171776Y-122195684D01*
X166878000Y-122166749D01*
X166584223Y-122195684D01*
X166301736Y-122281375D01*
X166041394Y-122420531D01*
X165813203Y-122607803D01*
X165625931Y-122835995D01*
X165608000Y-122869541D01*
X165590069Y-122835994D01*
X165402797Y-122607803D01*
X165174605Y-122420531D01*
X164914263Y-122281375D01*
X164631776Y-122195684D01*
X164338000Y-122166749D01*
X164044223Y-122195684D01*
X163761736Y-122281375D01*
X163501394Y-122420531D01*
X163273203Y-122607803D01*
X163085931Y-122835995D01*
X163068000Y-122869541D01*
X163050069Y-122835994D01*
X162862797Y-122607803D01*
X162634605Y-122420531D01*
X162374263Y-122281375D01*
X162091776Y-122195684D01*
X161798000Y-122166749D01*
X161790601Y-122167478D01*
X165574651Y-118383428D01*
X165608417Y-118355717D01*
X165719011Y-118220959D01*
X165801189Y-118067213D01*
X165851795Y-117900390D01*
X165864600Y-117770377D01*
X165864600Y-117770369D01*
X165868881Y-117726900D01*
X165864600Y-117683431D01*
X165864600Y-115029900D01*
X169896200Y-115029900D01*
X169896200Y-115429900D01*
X169944707Y-115668396D01*
X170038810Y-115892846D01*
X170174893Y-116094625D01*
X170347726Y-116265978D01*
X170550667Y-116400321D01*
X170775918Y-116492491D01*
X170813591Y-116496362D01*
X171004200Y-116371631D01*
X171004200Y-115029900D01*
X171258200Y-115029900D01*
X171258200Y-116371631D01*
X171448809Y-116496362D01*
X171486482Y-116492491D01*
X171711733Y-116400321D01*
X171914674Y-116265978D01*
X172087507Y-116094625D01*
X172223590Y-115892846D01*
X172317693Y-115668396D01*
X172366200Y-115429900D01*
X172366200Y-115029900D01*
X171258200Y-115029900D01*
X171004200Y-115029900D01*
X169896200Y-115029900D01*
X165864600Y-115029900D01*
X165864600Y-114375900D01*
X169896200Y-114375900D01*
X169896200Y-114775900D01*
X171004200Y-114775900D01*
X171004200Y-113434169D01*
X171258200Y-113434169D01*
X171258200Y-114775900D01*
X172366200Y-114775900D01*
X172366200Y-114375900D01*
X172317693Y-114137404D01*
X172223590Y-113912954D01*
X172087507Y-113711175D01*
X171914674Y-113539822D01*
X171711733Y-113405479D01*
X171486482Y-113313309D01*
X171448809Y-113309438D01*
X171258200Y-113434169D01*
X171004200Y-113434169D01*
X170813591Y-113309438D01*
X170775918Y-113313309D01*
X170550667Y-113405479D01*
X170347726Y-113539822D01*
X170174893Y-113711175D01*
X170038810Y-113912954D01*
X169944707Y-114137404D01*
X169896200Y-114375900D01*
X165864600Y-114375900D01*
X165864600Y-112117702D01*
X170382903Y-112117702D01*
X170454486Y-112361671D01*
X170709996Y-112482571D01*
X170984184Y-112551300D01*
X171266512Y-112565217D01*
X171546130Y-112523787D01*
X171812292Y-112428603D01*
X171937514Y-112361671D01*
X172009097Y-112117702D01*
X171196000Y-111304605D01*
X170382903Y-112117702D01*
X165864600Y-112117702D01*
X165864600Y-111195512D01*
X169755783Y-111195512D01*
X169797213Y-111475130D01*
X169892397Y-111741292D01*
X169959329Y-111866514D01*
X170203298Y-111938097D01*
X171016395Y-111125000D01*
X171375605Y-111125000D01*
X172188702Y-111938097D01*
X172432671Y-111866514D01*
X172553571Y-111611004D01*
X172622300Y-111336816D01*
X172636217Y-111054488D01*
X172594787Y-110774870D01*
X172499603Y-110508708D01*
X172432671Y-110383486D01*
X172188702Y-110311903D01*
X171375605Y-111125000D01*
X171016395Y-111125000D01*
X170203298Y-110311903D01*
X169959329Y-110383486D01*
X169838429Y-110638996D01*
X169769700Y-110913184D01*
X169755783Y-111195512D01*
X165864600Y-111195512D01*
X165864600Y-110132298D01*
X170382903Y-110132298D01*
X171196000Y-110945395D01*
X172009097Y-110132298D01*
X171937514Y-109888329D01*
X171682004Y-109767429D01*
X171407816Y-109698700D01*
X171125488Y-109684783D01*
X170845870Y-109726213D01*
X170579708Y-109821397D01*
X170454486Y-109888329D01*
X170382903Y-110132298D01*
X165864600Y-110132298D01*
X165864600Y-108815702D01*
X170382903Y-108815702D01*
X170454486Y-109059671D01*
X170709996Y-109180571D01*
X170984184Y-109249300D01*
X171266512Y-109263217D01*
X171546130Y-109221787D01*
X171812292Y-109126603D01*
X171937514Y-109059671D01*
X172009097Y-108815702D01*
X171196000Y-108002605D01*
X170382903Y-108815702D01*
X165864600Y-108815702D01*
X165864600Y-107893512D01*
X169755783Y-107893512D01*
X169797213Y-108173130D01*
X169892397Y-108439292D01*
X169959329Y-108564514D01*
X170203298Y-108636097D01*
X171016395Y-107823000D01*
X171375605Y-107823000D01*
X172188702Y-108636097D01*
X172432671Y-108564514D01*
X172553571Y-108309004D01*
X172622300Y-108034816D01*
X172636217Y-107752488D01*
X172594787Y-107472870D01*
X172499603Y-107206708D01*
X172432671Y-107081486D01*
X172188702Y-107009903D01*
X171375605Y-107823000D01*
X171016395Y-107823000D01*
X170203298Y-107009903D01*
X169959329Y-107081486D01*
X169838429Y-107336996D01*
X169769700Y-107611184D01*
X169755783Y-107893512D01*
X165864600Y-107893512D01*
X165864600Y-106830298D01*
X170382903Y-106830298D01*
X171196000Y-107643395D01*
X172009097Y-106830298D01*
X171937514Y-106586329D01*
X171682004Y-106465429D01*
X171407816Y-106396700D01*
X171125488Y-106382783D01*
X170845870Y-106424213D01*
X170579708Y-106519397D01*
X170454486Y-106586329D01*
X170382903Y-106830298D01*
X165864600Y-106830298D01*
X165864600Y-105513702D01*
X170382903Y-105513702D01*
X170454486Y-105757671D01*
X170709996Y-105878571D01*
X170984184Y-105947300D01*
X171266512Y-105961217D01*
X171546130Y-105919787D01*
X171812292Y-105824603D01*
X171937514Y-105757671D01*
X172009097Y-105513702D01*
X171196000Y-104700605D01*
X170382903Y-105513702D01*
X165864600Y-105513702D01*
X165864600Y-104591512D01*
X169755783Y-104591512D01*
X169797213Y-104871130D01*
X169892397Y-105137292D01*
X169959329Y-105262514D01*
X170203298Y-105334097D01*
X171016395Y-104521000D01*
X171375605Y-104521000D01*
X172188702Y-105334097D01*
X172432671Y-105262514D01*
X172553571Y-105007004D01*
X172622300Y-104732816D01*
X172636217Y-104450488D01*
X172594787Y-104170870D01*
X172499603Y-103904708D01*
X172432671Y-103779486D01*
X172188702Y-103707903D01*
X171375605Y-104521000D01*
X171016395Y-104521000D01*
X170203298Y-103707903D01*
X169959329Y-103779486D01*
X169838429Y-104034996D01*
X169769700Y-104309184D01*
X169755783Y-104591512D01*
X165864600Y-104591512D01*
X165864600Y-103528298D01*
X170382903Y-103528298D01*
X171196000Y-104341395D01*
X172009097Y-103528298D01*
X171937514Y-103284329D01*
X171682004Y-103163429D01*
X171407816Y-103094700D01*
X171125488Y-103080783D01*
X170845870Y-103122213D01*
X170579708Y-103217397D01*
X170454486Y-103284329D01*
X170382903Y-103528298D01*
X165864600Y-103528298D01*
X165864600Y-102211702D01*
X170382903Y-102211702D01*
X170454486Y-102455671D01*
X170709996Y-102576571D01*
X170984184Y-102645300D01*
X171266512Y-102659217D01*
X171546130Y-102617787D01*
X171812292Y-102522603D01*
X171937514Y-102455671D01*
X172009097Y-102211702D01*
X171196000Y-101398605D01*
X170382903Y-102211702D01*
X165864600Y-102211702D01*
X165864600Y-101289512D01*
X169755783Y-101289512D01*
X169797213Y-101569130D01*
X169892397Y-101835292D01*
X169959329Y-101960514D01*
X170203298Y-102032097D01*
X171016395Y-101219000D01*
X171375605Y-101219000D01*
X172188702Y-102032097D01*
X172432671Y-101960514D01*
X172553571Y-101705004D01*
X172622300Y-101430816D01*
X172636217Y-101148488D01*
X172594787Y-100868870D01*
X172499603Y-100602708D01*
X172432671Y-100477486D01*
X172188702Y-100405903D01*
X171375605Y-101219000D01*
X171016395Y-101219000D01*
X170203298Y-100405903D01*
X169959329Y-100477486D01*
X169838429Y-100732996D01*
X169769700Y-101007184D01*
X169755783Y-101289512D01*
X165864600Y-101289512D01*
X165864600Y-100226298D01*
X170382903Y-100226298D01*
X171196000Y-101039395D01*
X172009097Y-100226298D01*
X171937514Y-99982329D01*
X171682004Y-99861429D01*
X171407816Y-99792700D01*
X171125488Y-99778783D01*
X170845870Y-99820213D01*
X170579708Y-99915397D01*
X170454486Y-99982329D01*
X170382903Y-100226298D01*
X165864600Y-100226298D01*
X165864600Y-98909702D01*
X170382903Y-98909702D01*
X170454486Y-99153671D01*
X170709996Y-99274571D01*
X170984184Y-99343300D01*
X171266512Y-99357217D01*
X171546130Y-99315787D01*
X171812292Y-99220603D01*
X171937514Y-99153671D01*
X172009097Y-98909702D01*
X171196000Y-98096605D01*
X170382903Y-98909702D01*
X165864600Y-98909702D01*
X165864600Y-97987512D01*
X169755783Y-97987512D01*
X169797213Y-98267130D01*
X169892397Y-98533292D01*
X169959329Y-98658514D01*
X170203298Y-98730097D01*
X171016395Y-97917000D01*
X171375605Y-97917000D01*
X172188702Y-98730097D01*
X172432671Y-98658514D01*
X172553571Y-98403004D01*
X172622300Y-98128816D01*
X172636217Y-97846488D01*
X172594787Y-97566870D01*
X172499603Y-97300708D01*
X172432671Y-97175486D01*
X172188702Y-97103903D01*
X171375605Y-97917000D01*
X171016395Y-97917000D01*
X170203298Y-97103903D01*
X169959329Y-97175486D01*
X169838429Y-97430996D01*
X169769700Y-97705184D01*
X169755783Y-97987512D01*
X165864600Y-97987512D01*
X165864600Y-96924298D01*
X170382903Y-96924298D01*
X171196000Y-97737395D01*
X172009097Y-96924298D01*
X171937514Y-96680329D01*
X171682004Y-96559429D01*
X171407816Y-96490700D01*
X171125488Y-96476783D01*
X170845870Y-96518213D01*
X170579708Y-96613397D01*
X170454486Y-96680329D01*
X170382903Y-96924298D01*
X165864600Y-96924298D01*
X165864600Y-95607702D01*
X170382903Y-95607702D01*
X170454486Y-95851671D01*
X170709996Y-95972571D01*
X170984184Y-96041300D01*
X171266512Y-96055217D01*
X171546130Y-96013787D01*
X171812292Y-95918603D01*
X171937514Y-95851671D01*
X172009097Y-95607702D01*
X171196000Y-94794605D01*
X170382903Y-95607702D01*
X165864600Y-95607702D01*
X165864600Y-94685512D01*
X169755783Y-94685512D01*
X169797213Y-94965130D01*
X169892397Y-95231292D01*
X169959329Y-95356514D01*
X170203298Y-95428097D01*
X171016395Y-94615000D01*
X171375605Y-94615000D01*
X172188702Y-95428097D01*
X172432671Y-95356514D01*
X172553571Y-95101004D01*
X172622300Y-94826816D01*
X172636217Y-94544488D01*
X172594787Y-94264870D01*
X172499603Y-93998708D01*
X172432671Y-93873486D01*
X172188702Y-93801903D01*
X171375605Y-94615000D01*
X171016395Y-94615000D01*
X170203298Y-93801903D01*
X169959329Y-93873486D01*
X169838429Y-94128996D01*
X169769700Y-94403184D01*
X169755783Y-94685512D01*
X165864600Y-94685512D01*
X165864600Y-93622298D01*
X170382903Y-93622298D01*
X171196000Y-94435395D01*
X172009097Y-93622298D01*
X171937514Y-93378329D01*
X171682004Y-93257429D01*
X171407816Y-93188700D01*
X171125488Y-93174783D01*
X170845870Y-93216213D01*
X170579708Y-93311397D01*
X170454486Y-93378329D01*
X170382903Y-93622298D01*
X165864600Y-93622298D01*
X165864600Y-92305702D01*
X170382903Y-92305702D01*
X170454486Y-92549671D01*
X170709996Y-92670571D01*
X170984184Y-92739300D01*
X171266512Y-92753217D01*
X171546130Y-92711787D01*
X171812292Y-92616603D01*
X171937514Y-92549671D01*
X172009097Y-92305702D01*
X171196000Y-91492605D01*
X170382903Y-92305702D01*
X165864600Y-92305702D01*
X165864600Y-91383512D01*
X169755783Y-91383512D01*
X169797213Y-91663130D01*
X169892397Y-91929292D01*
X169959329Y-92054514D01*
X170203298Y-92126097D01*
X171016395Y-91313000D01*
X171375605Y-91313000D01*
X172188702Y-92126097D01*
X172432671Y-92054514D01*
X172553571Y-91799004D01*
X172622300Y-91524816D01*
X172636217Y-91242488D01*
X172594787Y-90962870D01*
X172499603Y-90696708D01*
X172432671Y-90571486D01*
X172188702Y-90499903D01*
X171375605Y-91313000D01*
X171016395Y-91313000D01*
X170203298Y-90499903D01*
X169959329Y-90571486D01*
X169838429Y-90826996D01*
X169769700Y-91101184D01*
X169755783Y-91383512D01*
X165864600Y-91383512D01*
X165864600Y-90320298D01*
X170382903Y-90320298D01*
X171196000Y-91133395D01*
X172009097Y-90320298D01*
X171937514Y-90076329D01*
X171682004Y-89955429D01*
X171407816Y-89886700D01*
X171125488Y-89872783D01*
X170845870Y-89914213D01*
X170579708Y-90009397D01*
X170454486Y-90076329D01*
X170382903Y-90320298D01*
X165864600Y-90320298D01*
X165864600Y-88360039D01*
X169804096Y-88360039D01*
X169844754Y-88494087D01*
X169964963Y-88748420D01*
X170132481Y-88974414D01*
X170340869Y-89163385D01*
X170582119Y-89308070D01*
X170846960Y-89402909D01*
X171069000Y-89281624D01*
X171069000Y-88138000D01*
X171323000Y-88138000D01*
X171323000Y-89281624D01*
X171545040Y-89402909D01*
X171809881Y-89308070D01*
X172051131Y-89163385D01*
X172259519Y-88974414D01*
X172427037Y-88748420D01*
X172547246Y-88494087D01*
X172587904Y-88360039D01*
X172465915Y-88138000D01*
X171323000Y-88138000D01*
X171069000Y-88138000D01*
X169926085Y-88138000D01*
X169804096Y-88360039D01*
X165864600Y-88360039D01*
X165864600Y-87661961D01*
X169804096Y-87661961D01*
X169926085Y-87884000D01*
X171069000Y-87884000D01*
X171069000Y-86740376D01*
X171323000Y-86740376D01*
X171323000Y-87884000D01*
X172465915Y-87884000D01*
X172587904Y-87661961D01*
X172547246Y-87527913D01*
X172427037Y-87273580D01*
X172259519Y-87047586D01*
X172051131Y-86858615D01*
X171809881Y-86713930D01*
X171545040Y-86619091D01*
X171323000Y-86740376D01*
X171069000Y-86740376D01*
X170846960Y-86619091D01*
X170582119Y-86713930D01*
X170340869Y-86858615D01*
X170132481Y-87047586D01*
X169964963Y-87273580D01*
X169844754Y-87527913D01*
X169804096Y-87661961D01*
X165864600Y-87661961D01*
X165864600Y-87485065D01*
X165868881Y-87441599D01*
X165864600Y-87398133D01*
X165864600Y-87398123D01*
X165851795Y-87268110D01*
X165801189Y-87101287D01*
X165719011Y-86947541D01*
X165662716Y-86878946D01*
X165636132Y-86846553D01*
X165636130Y-86846551D01*
X165608417Y-86812783D01*
X165574649Y-86785070D01*
X164434354Y-85644775D01*
X164543033Y-85512349D01*
X164657711Y-85297801D01*
X164728330Y-85065002D01*
X164746200Y-84883565D01*
X164746200Y-84549900D01*
X169896200Y-84549900D01*
X169896200Y-84949900D01*
X169944707Y-85188396D01*
X170038810Y-85412846D01*
X170174893Y-85614625D01*
X170347726Y-85785978D01*
X170550667Y-85920321D01*
X170775918Y-86012491D01*
X170813591Y-86016362D01*
X171004200Y-85891631D01*
X171004200Y-84549900D01*
X169896200Y-84549900D01*
X164746200Y-84549900D01*
X164746200Y-83962236D01*
X164739667Y-83895900D01*
X169896200Y-83895900D01*
X169896200Y-84295900D01*
X171004200Y-84295900D01*
X171004200Y-82954169D01*
X171258200Y-82954169D01*
X171258200Y-84295900D01*
X171278200Y-84295900D01*
X171278200Y-84549900D01*
X171258200Y-84549900D01*
X171258200Y-85891631D01*
X171448809Y-86016362D01*
X171486482Y-86012491D01*
X171711733Y-85920321D01*
X171914674Y-85785978D01*
X172087507Y-85614625D01*
X172223590Y-85412846D01*
X172317693Y-85188396D01*
X172366200Y-84949900D01*
X172366200Y-84922888D01*
X172433195Y-85084627D01*
X172586080Y-85313435D01*
X172780665Y-85508020D01*
X173009473Y-85660905D01*
X173263710Y-85766214D01*
X173533608Y-85819900D01*
X173808792Y-85819900D01*
X174078690Y-85766214D01*
X174332927Y-85660905D01*
X174561735Y-85508020D01*
X174756320Y-85313435D01*
X174909205Y-85084627D01*
X175014514Y-84830390D01*
X175068200Y-84560492D01*
X175068200Y-84285308D01*
X175014514Y-84015410D01*
X174909205Y-83761173D01*
X174756320Y-83532365D01*
X174561735Y-83337780D01*
X174332927Y-83184895D01*
X174078690Y-83079586D01*
X173808792Y-83025900D01*
X173533608Y-83025900D01*
X173263710Y-83079586D01*
X173009473Y-83184895D01*
X172780665Y-83337780D01*
X172586080Y-83532365D01*
X172433195Y-83761173D01*
X172366200Y-83922912D01*
X172366200Y-83895900D01*
X172317693Y-83657404D01*
X172223590Y-83432954D01*
X172087507Y-83231175D01*
X171914674Y-83059822D01*
X171711733Y-82925479D01*
X171486482Y-82833309D01*
X171448809Y-82829438D01*
X171258200Y-82954169D01*
X171004200Y-82954169D01*
X170813591Y-82829438D01*
X170775918Y-82833309D01*
X170550667Y-82925479D01*
X170347726Y-83059822D01*
X170174893Y-83231175D01*
X170038810Y-83432954D01*
X169944707Y-83657404D01*
X169896200Y-83895900D01*
X164739667Y-83895900D01*
X164728330Y-83780799D01*
X164657711Y-83547999D01*
X164543033Y-83333451D01*
X164388702Y-83145398D01*
X164200649Y-82991067D01*
X163986101Y-82876389D01*
X163753302Y-82805770D01*
X163511200Y-82781925D01*
X163269099Y-82805770D01*
X163036300Y-82876389D01*
X162821752Y-82991067D01*
X162633699Y-83145398D01*
X162479368Y-83333451D01*
X162364689Y-83547999D01*
X162294070Y-83780798D01*
X162276200Y-83962235D01*
X162276200Y-84883564D01*
X162294070Y-85065001D01*
X162364689Y-85297800D01*
X162479367Y-85512348D01*
X162626201Y-85691267D01*
X162626201Y-85929721D01*
X162621919Y-85973200D01*
X162639005Y-86146690D01*
X162689612Y-86313513D01*
X162771790Y-86467259D01*
X162854668Y-86568246D01*
X162854671Y-86568249D01*
X162882384Y-86602017D01*
X162916151Y-86629729D01*
X162987821Y-86701399D01*
X162896273Y-86739320D01*
X162661241Y-86896363D01*
X162461363Y-87096241D01*
X162392782Y-87198880D01*
X161418504Y-86224603D01*
X161394701Y-86195599D01*
X161278976Y-86100626D01*
X161146947Y-86030054D01*
X161003686Y-85986597D01*
X160892033Y-85975600D01*
X160892022Y-85975600D01*
X160854700Y-85971924D01*
X160817378Y-85975600D01*
X159640022Y-85975600D01*
X159602699Y-85971924D01*
X159565376Y-85975600D01*
X159565367Y-85975600D01*
X159453714Y-85986597D01*
X159310453Y-86030054D01*
X159195468Y-86091516D01*
X159045071Y-86121432D01*
X158874911Y-86191914D01*
X158721772Y-86294238D01*
X158591538Y-86424472D01*
X158489214Y-86577611D01*
X158418732Y-86747771D01*
X158382800Y-86928411D01*
X158382800Y-87112589D01*
X158418732Y-87293229D01*
X158489214Y-87463389D01*
X158591538Y-87616528D01*
X158721772Y-87746762D01*
X158874911Y-87849086D01*
X158904644Y-87861402D01*
X158903000Y-87869665D01*
X158903000Y-88152335D01*
X158958147Y-88429574D01*
X159066320Y-88690727D01*
X159223363Y-88925759D01*
X159423241Y-89125637D01*
X159623869Y-89259692D01*
X159596486Y-89274329D01*
X159524903Y-89518298D01*
X160338000Y-90331395D01*
X160352143Y-90317253D01*
X160531748Y-90496858D01*
X160517605Y-90511000D01*
X160531748Y-90525143D01*
X160352143Y-90704748D01*
X160338000Y-90690605D01*
X159524903Y-91503702D01*
X159596486Y-91747671D01*
X159851996Y-91868571D01*
X160126184Y-91937300D01*
X160408512Y-91951217D01*
X160688130Y-91909787D01*
X160809700Y-91866311D01*
X160809701Y-107623720D01*
X160514439Y-107918983D01*
X160479335Y-107912000D01*
X160196665Y-107912000D01*
X159919426Y-107967147D01*
X159658273Y-108075320D01*
X159423241Y-108232363D01*
X159223363Y-108432241D01*
X159066320Y-108667273D01*
X158958147Y-108928426D01*
X158903000Y-109205665D01*
X158903000Y-109488335D01*
X158958147Y-109765574D01*
X159066320Y-110026727D01*
X159223363Y-110261759D01*
X159423241Y-110461637D01*
X159623869Y-110595692D01*
X159596486Y-110610329D01*
X159524903Y-110854298D01*
X160338000Y-111667395D01*
X161151097Y-110854298D01*
X161079514Y-110610329D01*
X161050659Y-110596676D01*
X161252759Y-110461637D01*
X161452637Y-110261759D01*
X161609680Y-110026727D01*
X161717853Y-109765574D01*
X161773000Y-109488335D01*
X161773000Y-109205665D01*
X161766017Y-109170561D01*
X162289749Y-108646830D01*
X162323517Y-108619117D01*
X162355803Y-108579777D01*
X162461363Y-108737759D01*
X162661241Y-108937637D01*
X162896273Y-109094680D01*
X163157426Y-109202853D01*
X163434665Y-109258000D01*
X163717335Y-109258000D01*
X163994574Y-109202853D01*
X164094600Y-109161421D01*
X164094600Y-109786579D01*
X163994574Y-109745147D01*
X163717335Y-109690000D01*
X163434665Y-109690000D01*
X163157426Y-109745147D01*
X162896273Y-109853320D01*
X162661241Y-110010363D01*
X162461363Y-110210241D01*
X162304320Y-110445273D01*
X162196147Y-110706426D01*
X162141000Y-110983665D01*
X162141000Y-111266335D01*
X162196147Y-111543574D01*
X162304320Y-111804727D01*
X162461363Y-112039759D01*
X162661241Y-112239637D01*
X162896273Y-112396680D01*
X163157426Y-112504853D01*
X163434665Y-112560000D01*
X163717335Y-112560000D01*
X163994574Y-112504853D01*
X164094600Y-112463421D01*
X164094600Y-113414383D01*
X163986101Y-113356389D01*
X163753302Y-113285770D01*
X163511200Y-113261925D01*
X163269099Y-113285770D01*
X163036300Y-113356389D01*
X162821752Y-113471067D01*
X162633699Y-113625398D01*
X162479368Y-113813451D01*
X162364689Y-114027999D01*
X162294070Y-114260798D01*
X162276200Y-114442235D01*
X162276200Y-115363564D01*
X162294070Y-115545001D01*
X162364689Y-115777800D01*
X162479367Y-115992348D01*
X162633698Y-116180402D01*
X162821751Y-116334733D01*
X163036299Y-116449411D01*
X163269098Y-116520030D01*
X163511200Y-116543875D01*
X163753301Y-116520030D01*
X163986100Y-116449411D01*
X164094600Y-116391417D01*
X164094600Y-117360321D01*
X158167262Y-123287660D01*
X158109225Y-123096336D01*
X157970069Y-122835994D01*
X157782797Y-122607803D01*
X157554605Y-122420531D01*
X157294263Y-122281375D01*
X157011776Y-122195684D01*
X156718000Y-122166749D01*
X156424223Y-122195684D01*
X156141736Y-122281375D01*
X155881394Y-122420531D01*
X155653203Y-122607803D01*
X155465931Y-122835995D01*
X155444576Y-122875947D01*
X155296486Y-122673271D01*
X155080035Y-122474267D01*
X154828919Y-122321314D01*
X154552789Y-122220291D01*
X154537026Y-122217642D01*
X154305000Y-122338783D01*
X154305000Y-123698000D01*
X154325000Y-123698000D01*
X154325000Y-123952000D01*
X154305000Y-123952000D01*
X154305000Y-123972000D01*
X154051000Y-123972000D01*
X154051000Y-123952000D01*
X151765000Y-123952000D01*
X151765000Y-123972000D01*
X151511000Y-123972000D01*
X151511000Y-123952000D01*
X151491000Y-123952000D01*
X151491000Y-123698000D01*
X151511000Y-123698000D01*
X151511000Y-122338783D01*
X151765000Y-122338783D01*
X151765000Y-123698000D01*
X154051000Y-123698000D01*
X154051000Y-122338783D01*
X153818974Y-122217642D01*
X153803211Y-122220291D01*
X153527081Y-122321314D01*
X153275965Y-122474267D01*
X153059514Y-122673271D01*
X152908000Y-122880633D01*
X152756486Y-122673271D01*
X152540035Y-122474267D01*
X152288919Y-122321314D01*
X152012789Y-122220291D01*
X151997026Y-122217642D01*
X151765000Y-122338783D01*
X151511000Y-122338783D01*
X151278974Y-122217642D01*
X151263211Y-122220291D01*
X150987081Y-122321314D01*
X150735965Y-122474267D01*
X150519514Y-122673271D01*
X150371424Y-122875947D01*
X150350069Y-122835994D01*
X150162797Y-122607803D01*
X149934605Y-122420531D01*
X149674263Y-122281375D01*
X149391776Y-122195684D01*
X149098000Y-122166749D01*
X148804223Y-122195684D01*
X148521736Y-122281375D01*
X148261394Y-122420531D01*
X148033203Y-122607803D01*
X147845931Y-122835995D01*
X147828000Y-122869541D01*
X147810069Y-122835994D01*
X147622797Y-122607803D01*
X147394605Y-122420531D01*
X147134263Y-122281375D01*
X146851776Y-122195684D01*
X146558000Y-122166749D01*
X146264223Y-122195684D01*
X145981736Y-122281375D01*
X145721394Y-122420531D01*
X145493203Y-122607803D01*
X145305931Y-122835995D01*
X145288000Y-122869541D01*
X145270069Y-122835994D01*
X145082797Y-122607803D01*
X144854605Y-122420531D01*
X144594263Y-122281375D01*
X144311776Y-122195684D01*
X144018000Y-122166749D01*
X143724223Y-122195684D01*
X143441736Y-122281375D01*
X143181394Y-122420531D01*
X142953203Y-122607803D01*
X142765931Y-122835995D01*
X142748000Y-122869541D01*
X142730069Y-122835994D01*
X142542797Y-122607803D01*
X142314605Y-122420531D01*
X142054263Y-122281375D01*
X141771776Y-122195684D01*
X141478000Y-122166749D01*
X141184223Y-122195684D01*
X140901736Y-122281375D01*
X140641394Y-122420531D01*
X140413203Y-122607803D01*
X140225931Y-122835995D01*
X140208000Y-122869541D01*
X140190069Y-122835994D01*
X140002797Y-122607803D01*
X139774605Y-122420531D01*
X139514263Y-122281375D01*
X139231776Y-122195684D01*
X138938000Y-122166749D01*
X138644223Y-122195684D01*
X138361736Y-122281375D01*
X138101394Y-122420531D01*
X137873203Y-122607803D01*
X137685931Y-122835995D01*
X137546775Y-123096337D01*
X137461084Y-123378824D01*
X137439400Y-123598982D01*
X137439400Y-124051019D01*
X137461084Y-124271177D01*
X137546775Y-124553664D01*
X137685931Y-124814006D01*
X137873203Y-125042197D01*
X138101395Y-125229469D01*
X138361737Y-125368625D01*
X138644224Y-125454316D01*
X138938000Y-125483251D01*
X139231777Y-125454316D01*
X139514264Y-125368625D01*
X139774606Y-125229469D01*
X140002797Y-125042197D01*
X140190069Y-124814006D01*
X140208000Y-124780459D01*
X140225931Y-124814006D01*
X140413203Y-125042197D01*
X140641395Y-125229469D01*
X140901737Y-125368625D01*
X141184224Y-125454316D01*
X141478000Y-125483251D01*
X141771777Y-125454316D01*
X142054264Y-125368625D01*
X142314606Y-125229469D01*
X142542797Y-125042197D01*
X142730069Y-124814006D01*
X142748000Y-124780459D01*
X142765931Y-124814006D01*
X142953203Y-125042197D01*
X143181395Y-125229469D01*
X143441737Y-125368625D01*
X143724224Y-125454316D01*
X144018000Y-125483251D01*
X144311777Y-125454316D01*
X144594264Y-125368625D01*
X144854606Y-125229469D01*
X145082797Y-125042197D01*
X145270069Y-124814006D01*
X145288000Y-124780459D01*
X145305931Y-124814006D01*
X145493203Y-125042197D01*
X145721395Y-125229469D01*
X145981737Y-125368625D01*
X146264224Y-125454316D01*
X146558000Y-125483251D01*
X146851777Y-125454316D01*
X147134264Y-125368625D01*
X147394606Y-125229469D01*
X147622797Y-125042197D01*
X147810069Y-124814006D01*
X147828000Y-124780459D01*
X147845931Y-124814006D01*
X148033203Y-125042197D01*
X148261395Y-125229469D01*
X148521737Y-125368625D01*
X148804224Y-125454316D01*
X149098000Y-125483251D01*
X149391777Y-125454316D01*
X149456196Y-125434775D01*
X149676421Y-125655000D01*
X126909707Y-125655000D01*
X127039594Y-125525113D01*
X127331464Y-125088298D01*
X127532508Y-124602935D01*
X127635000Y-124087677D01*
X127635000Y-123562323D01*
X127532508Y-123047065D01*
X127331464Y-122561702D01*
X127039594Y-122124887D01*
X126668113Y-121753406D01*
X126231298Y-121461536D01*
X125745935Y-121260492D01*
X125230677Y-121158000D01*
X124705323Y-121158000D01*
X124190065Y-121260492D01*
X123704702Y-121461536D01*
X123267887Y-121753406D01*
X122896406Y-122124887D01*
X122604536Y-122561702D01*
X122403492Y-123047065D01*
X122301000Y-123562323D01*
X122301000Y-124087677D01*
X122403492Y-124602935D01*
X122604536Y-125088298D01*
X122896406Y-125525113D01*
X123026293Y-125655000D01*
X111708000Y-125655000D01*
X111708000Y-93837000D01*
X121069928Y-93837000D01*
X121082188Y-93961482D01*
X121118498Y-94081180D01*
X121177463Y-94191494D01*
X121256815Y-94288185D01*
X121353506Y-94367537D01*
X121463820Y-94426502D01*
X121583518Y-94462812D01*
X121708000Y-94475072D01*
X122142250Y-94472000D01*
X122301000Y-94313250D01*
X122301000Y-92964000D01*
X121231750Y-92964000D01*
X121073000Y-93122750D01*
X121069928Y-93837000D01*
X111708000Y-93837000D01*
X111708000Y-91837000D01*
X121069928Y-91837000D01*
X121073000Y-92551250D01*
X121231750Y-92710000D01*
X122301000Y-92710000D01*
X122301000Y-91360750D01*
X122142250Y-91202000D01*
X121708000Y-91198928D01*
X121583518Y-91211188D01*
X121463820Y-91247498D01*
X121353506Y-91306463D01*
X121256815Y-91385815D01*
X121177463Y-91482506D01*
X121118498Y-91592820D01*
X121082188Y-91712518D01*
X121069928Y-91837000D01*
X111708000Y-91837000D01*
X111708000Y-73735000D01*
X124296293Y-73735000D01*
X124166406Y-73864887D01*
%TA.AperFunction,Conductor*%
D23*
G36*
X124166406Y-73864887D02*
G01*
X123874536Y-74301702D01*
X123673492Y-74787065D01*
X123571000Y-75302323D01*
X123571000Y-75827677D01*
X123673492Y-76342935D01*
X123874536Y-76828298D01*
X124166406Y-77265113D01*
X124537887Y-77636594D01*
X124974702Y-77928464D01*
X125460065Y-78129508D01*
X125975323Y-78232000D01*
X126500677Y-78232000D01*
X127015935Y-78129508D01*
X127501298Y-77928464D01*
X127938113Y-77636594D01*
X128309594Y-77265113D01*
X128601464Y-76828298D01*
X128657001Y-76694219D01*
X128729203Y-76782197D01*
X128957395Y-76969469D01*
X129217737Y-77108625D01*
X129500224Y-77194316D01*
X129794000Y-77223251D01*
X130087777Y-77194316D01*
X130370264Y-77108625D01*
X130630606Y-76969469D01*
X130858797Y-76782197D01*
X131046069Y-76554006D01*
X131064000Y-76520459D01*
X131081931Y-76554006D01*
X131269203Y-76782197D01*
X131497395Y-76969469D01*
X131757737Y-77108625D01*
X132040224Y-77194316D01*
X132334000Y-77223251D01*
X132627777Y-77194316D01*
X132910264Y-77108625D01*
X133170606Y-76969469D01*
X133398797Y-76782197D01*
X133586069Y-76554006D01*
X133604000Y-76520459D01*
X133621931Y-76554006D01*
X133809203Y-76782197D01*
X134037395Y-76969469D01*
X134297737Y-77108625D01*
X134580224Y-77194316D01*
X134874000Y-77223251D01*
X135167777Y-77194316D01*
X135450264Y-77108625D01*
X135710606Y-76969469D01*
X135938797Y-76782197D01*
X136126069Y-76554006D01*
X136147424Y-76514053D01*
X136295514Y-76716729D01*
X136511965Y-76915733D01*
X136763081Y-77068686D01*
X137039211Y-77169709D01*
X137054974Y-77172358D01*
X137287000Y-77051217D01*
X137287000Y-75692000D01*
X137267000Y-75692000D01*
X137267000Y-75438000D01*
X137287000Y-75438000D01*
X137287000Y-74078783D01*
X137054974Y-73957642D01*
X137039211Y-73960291D01*
X136763081Y-74061314D01*
X136511965Y-74214267D01*
X136295514Y-74413271D01*
X136147424Y-74615947D01*
X136126069Y-74575994D01*
X135938797Y-74347803D01*
X135710605Y-74160531D01*
X135450263Y-74021375D01*
X135167776Y-73935684D01*
X134874000Y-73906749D01*
X134580223Y-73935684D01*
X134297736Y-74021375D01*
X134037394Y-74160531D01*
X133809203Y-74347803D01*
X133621931Y-74575995D01*
X133604000Y-74609541D01*
X133586069Y-74575994D01*
X133398797Y-74347803D01*
X133170605Y-74160531D01*
X132910263Y-74021375D01*
X132627776Y-73935684D01*
X132334000Y-73906749D01*
X132040223Y-73935684D01*
X131757736Y-74021375D01*
X131497394Y-74160531D01*
X131269203Y-74347803D01*
X131081931Y-74575995D01*
X131064000Y-74609541D01*
X131046069Y-74575994D01*
X130858797Y-74347803D01*
X130630605Y-74160531D01*
X130370263Y-74021375D01*
X130087776Y-73935684D01*
X129794000Y-73906749D01*
X129500223Y-73935684D01*
X129217736Y-74021375D01*
X128957394Y-74160531D01*
X128729203Y-74347803D01*
X128657001Y-74435781D01*
X128601464Y-74301702D01*
X128309594Y-73864887D01*
X128179707Y-73735000D01*
X138870598Y-73735000D01*
X138355264Y-74250334D01*
X138316035Y-74214267D01*
X138064919Y-74061314D01*
X137788789Y-73960291D01*
X137773026Y-73957642D01*
X137541000Y-74078783D01*
X137541000Y-75438000D01*
X137561000Y-75438000D01*
X137561000Y-75692000D01*
X137541000Y-75692000D01*
X137541000Y-77051217D01*
X137773026Y-77172358D01*
X137788789Y-77169709D01*
X137994701Y-77094376D01*
X137994701Y-77565397D01*
X133347003Y-82213096D01*
X133317999Y-82236899D01*
X133262871Y-82304074D01*
X133223026Y-82352624D01*
X133194051Y-82406832D01*
X133152454Y-82484654D01*
X133108997Y-82627915D01*
X133098000Y-82739568D01*
X133098000Y-82739578D01*
X133094324Y-82776900D01*
X133098000Y-82814223D01*
X133098000Y-83675736D01*
X132853625Y-83601606D01*
X132588000Y-83575444D01*
X132322374Y-83601606D01*
X132066955Y-83679086D01*
X131831560Y-83804908D01*
X131625235Y-83974236D01*
X131455908Y-84180561D01*
X131330086Y-84415956D01*
X131318000Y-84455798D01*
X131305914Y-84415955D01*
X131180092Y-84180560D01*
X131010764Y-83974235D01*
X130804439Y-83804908D01*
X130569044Y-83679086D01*
X130313625Y-83601606D01*
X130048000Y-83575444D01*
X129782374Y-83601606D01*
X129526955Y-83679086D01*
X129291560Y-83804908D01*
X129085235Y-83974236D01*
X128915908Y-84180561D01*
X128790086Y-84415956D01*
X128778000Y-84455798D01*
X128765914Y-84415955D01*
X128640092Y-84180560D01*
X128470764Y-83974235D01*
X128264439Y-83804908D01*
X128029044Y-83679086D01*
X127773625Y-83601606D01*
X127508000Y-83575444D01*
X127242374Y-83601606D01*
X126986955Y-83679086D01*
X126751560Y-83804908D01*
X126545235Y-83974236D01*
X126375908Y-84180561D01*
X126250086Y-84415956D01*
X126238000Y-84455798D01*
X126225914Y-84415955D01*
X126100092Y-84180560D01*
X125930764Y-83974235D01*
X125724439Y-83804908D01*
X125489044Y-83679086D01*
X125233625Y-83601606D01*
X124968000Y-83575444D01*
X124702374Y-83601606D01*
X124446955Y-83679086D01*
X124211560Y-83804908D01*
X124005235Y-83974236D01*
X123835908Y-84180561D01*
X123710086Y-84415956D01*
X123698000Y-84455798D01*
X123685914Y-84415955D01*
X123560092Y-84180560D01*
X123390764Y-83974235D01*
X123184439Y-83804908D01*
X122949044Y-83679086D01*
X122693625Y-83601606D01*
X122428000Y-83575444D01*
X122162374Y-83601606D01*
X121906955Y-83679086D01*
X121671560Y-83804908D01*
X121465235Y-83974236D01*
X121295908Y-84180561D01*
X121170086Y-84415956D01*
X121092606Y-84671375D01*
X121073000Y-84870437D01*
X121073000Y-85563564D01*
X121092606Y-85762626D01*
X121170086Y-86018045D01*
X121295908Y-86253440D01*
X121465236Y-86459765D01*
X121671561Y-86629092D01*
X121906956Y-86754914D01*
X122162375Y-86832394D01*
X122428000Y-86858556D01*
X122693626Y-86832394D01*
X122949045Y-86754914D01*
X123184440Y-86629092D01*
X123390765Y-86459765D01*
X123560092Y-86253440D01*
X123685914Y-86018045D01*
X123698000Y-85978202D01*
X123710086Y-86018045D01*
X123835908Y-86253440D01*
X124005236Y-86459765D01*
X124211561Y-86629092D01*
X124446956Y-86754914D01*
X124702375Y-86832394D01*
X124968000Y-86858556D01*
X125233626Y-86832394D01*
X125489045Y-86754914D01*
X125724440Y-86629092D01*
X125930765Y-86459765D01*
X126100092Y-86253440D01*
X126225914Y-86018045D01*
X126238000Y-85978202D01*
X126250086Y-86018045D01*
X126375908Y-86253440D01*
X126545236Y-86459765D01*
X126751561Y-86629092D01*
X126986956Y-86754914D01*
X127242375Y-86832394D01*
X127508000Y-86858556D01*
X127773626Y-86832394D01*
X128029045Y-86754914D01*
X128264440Y-86629092D01*
X128470765Y-86459765D01*
X128640092Y-86253440D01*
X128765914Y-86018045D01*
X128778000Y-85978202D01*
X128790086Y-86018045D01*
X128915908Y-86253440D01*
X129085236Y-86459765D01*
X129291561Y-86629092D01*
X129526956Y-86754914D01*
X129782375Y-86832394D01*
X130048000Y-86858556D01*
X130313626Y-86832394D01*
X130569045Y-86754914D01*
X130804440Y-86629092D01*
X131010765Y-86459765D01*
X131180092Y-86253440D01*
X131305914Y-86018045D01*
X131318000Y-85978202D01*
X131330086Y-86018045D01*
X131455908Y-86253440D01*
X131625236Y-86459765D01*
X131831561Y-86629092D01*
X132066956Y-86754914D01*
X132322375Y-86832394D01*
X132588000Y-86858556D01*
X132853626Y-86832394D01*
X133098001Y-86758264D01*
X133098001Y-88636797D01*
X133013451Y-88721347D01*
X132892371Y-88745432D01*
X132722211Y-88815914D01*
X132569072Y-88918238D01*
X132438838Y-89048472D01*
X132336514Y-89201611D01*
X132266032Y-89371771D01*
X132230100Y-89552411D01*
X132230100Y-89736589D01*
X132266032Y-89917229D01*
X132336514Y-90087389D01*
X132438838Y-90240528D01*
X132569072Y-90370762D01*
X132722211Y-90473086D01*
X132892371Y-90543568D01*
X133073011Y-90579500D01*
X133257189Y-90579500D01*
X133437829Y-90543568D01*
X133607989Y-90473086D01*
X133761128Y-90370762D01*
X133891362Y-90240528D01*
X133976855Y-90112578D01*
X134072438Y-90255628D01*
X134202672Y-90385862D01*
X134355811Y-90488186D01*
X134525971Y-90558668D01*
X134706611Y-90594600D01*
X134890789Y-90594600D01*
X135071429Y-90558668D01*
X135241589Y-90488186D01*
X135394728Y-90385862D01*
X135524962Y-90255628D01*
X135627286Y-90102489D01*
X135697768Y-89932329D01*
X135714698Y-89847216D01*
X135723632Y-89892129D01*
X135794114Y-90062289D01*
X135896438Y-90215428D01*
X136026672Y-90345662D01*
X136179811Y-90447986D01*
X136349971Y-90518468D01*
X136530611Y-90554400D01*
X136714789Y-90554400D01*
X136895429Y-90518468D01*
X137065589Y-90447986D01*
X137218728Y-90345662D01*
X137348962Y-90215428D01*
X137451286Y-90062289D01*
X137521768Y-89892129D01*
X137546985Y-89765356D01*
X137574032Y-89901329D01*
X137644514Y-90071489D01*
X137746838Y-90224628D01*
X137877072Y-90354862D01*
X138030211Y-90457186D01*
X138159889Y-90510900D01*
X138030211Y-90564614D01*
X137877072Y-90666938D01*
X137746838Y-90797172D01*
X137644514Y-90950311D01*
X137574032Y-91120471D01*
X137556943Y-91206382D01*
X137402374Y-91221606D01*
X137146955Y-91299086D01*
X136911560Y-91424908D01*
X136910535Y-91425749D01*
X136882000Y-91331679D01*
X136882000Y-91301111D01*
X136846068Y-91120471D01*
X136775586Y-90950311D01*
X136673262Y-90797172D01*
X136543028Y-90666938D01*
X136389889Y-90564614D01*
X136219729Y-90494132D01*
X136039089Y-90458200D01*
X135854911Y-90458200D01*
X135674271Y-90494132D01*
X135504111Y-90564614D01*
X135350972Y-90666938D01*
X135220738Y-90797172D01*
X135118414Y-90950311D01*
X135047932Y-91120471D01*
X135031121Y-91204986D01*
X134862374Y-91221606D01*
X134606955Y-91299086D01*
X134371560Y-91424908D01*
X134165235Y-91594236D01*
X133995908Y-91800561D01*
X133870086Y-92035956D01*
X133858000Y-92075798D01*
X133845914Y-92035955D01*
X133720092Y-91800560D01*
X133550764Y-91594235D01*
X133344439Y-91424908D01*
X133109044Y-91299086D01*
X132853625Y-91221606D01*
X132588000Y-91195444D01*
X132322374Y-91221606D01*
X132066955Y-91299086D01*
X131831560Y-91424908D01*
X131625235Y-91594236D01*
X131455908Y-91800561D01*
X131330086Y-92035956D01*
X131318000Y-92075798D01*
X131305914Y-92035955D01*
X131180092Y-91800560D01*
X131010764Y-91594235D01*
X130804439Y-91424908D01*
X130569044Y-91299086D01*
X130313625Y-91221606D01*
X130048000Y-91195444D01*
X129782374Y-91221606D01*
X129526955Y-91299086D01*
X129291560Y-91424908D01*
X129085235Y-91594236D01*
X128915908Y-91800561D01*
X128790086Y-92035956D01*
X128778000Y-92075798D01*
X128765914Y-92035955D01*
X128640092Y-91800560D01*
X128470764Y-91594235D01*
X128264439Y-91424908D01*
X128029044Y-91299086D01*
X127773625Y-91221606D01*
X127508000Y-91195444D01*
X127242374Y-91221606D01*
X126986955Y-91299086D01*
X126751560Y-91424908D01*
X126545235Y-91594236D01*
X126375908Y-91800561D01*
X126250086Y-92035956D01*
X126238000Y-92075798D01*
X126225914Y-92035955D01*
X126100092Y-91800560D01*
X125930764Y-91594235D01*
X125724439Y-91424908D01*
X125489044Y-91299086D01*
X125233625Y-91221606D01*
X124968000Y-91195444D01*
X124702374Y-91221606D01*
X124446955Y-91299086D01*
X124211560Y-91424908D01*
X124005235Y-91594236D01*
X123835908Y-91800561D01*
X123785826Y-91894258D01*
X123786072Y-91837000D01*
X123773812Y-91712518D01*
X123737502Y-91592820D01*
X123678537Y-91482506D01*
X123599185Y-91385815D01*
X123502494Y-91306463D01*
X123392180Y-91247498D01*
X123272482Y-91211188D01*
X123148000Y-91198928D01*
X122713750Y-91202000D01*
X122555000Y-91360750D01*
X122555000Y-92710000D01*
X122575000Y-92710000D01*
X122575000Y-92964000D01*
X122555000Y-92964000D01*
X122555000Y-94313250D01*
X122713750Y-94472000D01*
X123148000Y-94475072D01*
X123272482Y-94462812D01*
X123392180Y-94426502D01*
X123502494Y-94367537D01*
X123599185Y-94288185D01*
X123678537Y-94191494D01*
X123737502Y-94081180D01*
X123773812Y-93961482D01*
X123786072Y-93837000D01*
X123785826Y-93779743D01*
X123835908Y-93873440D01*
X124005236Y-94079765D01*
X124211561Y-94249092D01*
X124446956Y-94374914D01*
X124702375Y-94452394D01*
X124968000Y-94478556D01*
X125233626Y-94452394D01*
X125489045Y-94374914D01*
X125724440Y-94249092D01*
X125930765Y-94079765D01*
X126100092Y-93873440D01*
X126225914Y-93638045D01*
X126238000Y-93598202D01*
X126250086Y-93638045D01*
X126375908Y-93873440D01*
X126545236Y-94079765D01*
X126751561Y-94249092D01*
X126986956Y-94374914D01*
X127242375Y-94452394D01*
X127508000Y-94478556D01*
X127773626Y-94452394D01*
X127985301Y-94388184D01*
X128013300Y-94422301D01*
X128042298Y-94446099D01*
X129558800Y-95962602D01*
X129558800Y-98247714D01*
X129301335Y-98196500D01*
X129018665Y-98196500D01*
X128741426Y-98251647D01*
X128480273Y-98359820D01*
X128245241Y-98516863D01*
X128045363Y-98716741D01*
X127888320Y-98951773D01*
X127780147Y-99212926D01*
X127725000Y-99490165D01*
X127725000Y-99772835D01*
X127780147Y-100050074D01*
X127888320Y-100311227D01*
X128045363Y-100546259D01*
X128245241Y-100746137D01*
X128480273Y-100903180D01*
X128741426Y-101011353D01*
X129018665Y-101066500D01*
X129301335Y-101066500D01*
X129558801Y-101015286D01*
X129558801Y-104662098D01*
X129556998Y-104663901D01*
X129528000Y-104687699D01*
X129504202Y-104716697D01*
X129504201Y-104716698D01*
X129433026Y-104803424D01*
X129362454Y-104935454D01*
X129338558Y-105014233D01*
X129318998Y-105078714D01*
X129312945Y-105140168D01*
X129311560Y-105140908D01*
X129105235Y-105310236D01*
X128935908Y-105516561D01*
X128810086Y-105751956D01*
X128798000Y-105791798D01*
X128785914Y-105751955D01*
X128660092Y-105516560D01*
X128490764Y-105310235D01*
X128284439Y-105140908D01*
X128049044Y-105015086D01*
X127793625Y-104937606D01*
X127528000Y-104911444D01*
X127262374Y-104937606D01*
X127006955Y-105015086D01*
X126771560Y-105140908D01*
X126565235Y-105310236D01*
X126395908Y-105516561D01*
X126314962Y-105668000D01*
X126301176Y-105668000D01*
X126257700Y-105663718D01*
X126214223Y-105668000D01*
X126084210Y-105680805D01*
X125917387Y-105731411D01*
X125763641Y-105813589D01*
X125628883Y-105924183D01*
X125518289Y-106058941D01*
X125436111Y-106212687D01*
X125385505Y-106379510D01*
X125368418Y-106553000D01*
X125372700Y-106596477D01*
X125372701Y-115592121D01*
X125368419Y-115635600D01*
X125385505Y-115809090D01*
X125436112Y-115975913D01*
X125518290Y-116129659D01*
X125601168Y-116230646D01*
X125601171Y-116230649D01*
X125628884Y-116264417D01*
X125662652Y-116292130D01*
X131013183Y-121642662D01*
X131003463Y-121654506D01*
X130944498Y-121764820D01*
X130908188Y-121884518D01*
X130895928Y-122009000D01*
X130895928Y-123609000D01*
X130908188Y-123733482D01*
X130944498Y-123853180D01*
X131003463Y-123963494D01*
X131082815Y-124060185D01*
X131179506Y-124139537D01*
X131289820Y-124198502D01*
X131409518Y-124234812D01*
X131534000Y-124247072D01*
X133134000Y-124247072D01*
X133258482Y-124234812D01*
X133378180Y-124198502D01*
X133488494Y-124139537D01*
X133585185Y-124060185D01*
X133664537Y-123963494D01*
X133723502Y-123853180D01*
X133739117Y-123801702D01*
X134020903Y-123801702D01*
X134092486Y-124045671D01*
X134347996Y-124166571D01*
X134622184Y-124235300D01*
X134904512Y-124249217D01*
X135184130Y-124207787D01*
X135450292Y-124112603D01*
X135575514Y-124045671D01*
X135647097Y-123801702D01*
X134834000Y-122988605D01*
X134020903Y-123801702D01*
X133739117Y-123801702D01*
X133759812Y-123733482D01*
X133772072Y-123609000D01*
X133772072Y-123601785D01*
X133841298Y-123622097D01*
X134654395Y-122809000D01*
X135013605Y-122809000D01*
X135826702Y-123622097D01*
X136070671Y-123550514D01*
X136191571Y-123295004D01*
X136260300Y-123020816D01*
X136274217Y-122738488D01*
X136232787Y-122458870D01*
X136137603Y-122192708D01*
X136070671Y-122067486D01*
X135826702Y-121995903D01*
X135013605Y-122809000D01*
X134654395Y-122809000D01*
X133841298Y-121995903D01*
X133772072Y-122016215D01*
X133772072Y-122009000D01*
X133759812Y-121884518D01*
X133739118Y-121816298D01*
X134020903Y-121816298D01*
X134834000Y-122629395D01*
X135647097Y-121816298D01*
X135575514Y-121572329D01*
X135320004Y-121451429D01*
X135045816Y-121382700D01*
X134763488Y-121368783D01*
X134483870Y-121410213D01*
X134217708Y-121505397D01*
X134092486Y-121572329D01*
X134020903Y-121816298D01*
X133739118Y-121816298D01*
X133723502Y-121764820D01*
X133664537Y-121654506D01*
X133585185Y-121557815D01*
X133488494Y-121478463D01*
X133378180Y-121419498D01*
X133258482Y-121383188D01*
X133215427Y-121378948D01*
X133206195Y-121285210D01*
X133155589Y-121118387D01*
X133073411Y-120964641D01*
X132962817Y-120829883D01*
X132828059Y-120719289D01*
X132674313Y-120637111D01*
X132507490Y-120586505D01*
X132455016Y-120581337D01*
X127655002Y-115781324D01*
X127655002Y-115649252D01*
X127813750Y-115808000D01*
X128248000Y-115811072D01*
X128372482Y-115798812D01*
X128492180Y-115762502D01*
X128602494Y-115703537D01*
X128699185Y-115624185D01*
X128778537Y-115527494D01*
X128837502Y-115417180D01*
X128873812Y-115297482D01*
X128886072Y-115173000D01*
X128885826Y-115115743D01*
X128935908Y-115209440D01*
X129105236Y-115415765D01*
X129311561Y-115585092D01*
X129546956Y-115710914D01*
X129802375Y-115788394D01*
X130068000Y-115814556D01*
X130333626Y-115788394D01*
X130589045Y-115710914D01*
X130824440Y-115585092D01*
X131030765Y-115415765D01*
X131200092Y-115209440D01*
X131325914Y-114974045D01*
X131338000Y-114934202D01*
X131350086Y-114974045D01*
X131475908Y-115209440D01*
X131645236Y-115415765D01*
X131851561Y-115585092D01*
X132086956Y-115710914D01*
X132342375Y-115788394D01*
X132608000Y-115814556D01*
X132873626Y-115788394D01*
X133129045Y-115710914D01*
X133364440Y-115585092D01*
X133570765Y-115415765D01*
X133740092Y-115209440D01*
X133865914Y-114974045D01*
X133878000Y-114934202D01*
X133890086Y-114974045D01*
X134015908Y-115209440D01*
X134185236Y-115415765D01*
X134391561Y-115585092D01*
X134626956Y-115710914D01*
X134882375Y-115788394D01*
X135148000Y-115814556D01*
X135413626Y-115788394D01*
X135669045Y-115710914D01*
X135904440Y-115585092D01*
X136110765Y-115415765D01*
X136280092Y-115209440D01*
X136405914Y-114974045D01*
X136418000Y-114934202D01*
X136430086Y-114974045D01*
X136555908Y-115209440D01*
X136725236Y-115415765D01*
X136931561Y-115585092D01*
X137166956Y-115710914D01*
X137422375Y-115788394D01*
X137688000Y-115814556D01*
X137953626Y-115788394D01*
X138209045Y-115710914D01*
X138444440Y-115585092D01*
X138650765Y-115415765D01*
X138820092Y-115209440D01*
X138945914Y-114974045D01*
X138958000Y-114934202D01*
X138970086Y-114974045D01*
X139095908Y-115209440D01*
X139265236Y-115415765D01*
X139471561Y-115585092D01*
X139706956Y-115710914D01*
X139962375Y-115788394D01*
X140228000Y-115814556D01*
X140493626Y-115788394D01*
X140749045Y-115710914D01*
X140984440Y-115585092D01*
X141190765Y-115415765D01*
X141360092Y-115209440D01*
X141485914Y-114974045D01*
X141498000Y-114934202D01*
X141510086Y-114974045D01*
X141635908Y-115209440D01*
X141805236Y-115415765D01*
X142011561Y-115585092D01*
X142246956Y-115710914D01*
X142502375Y-115788394D01*
X142768000Y-115814556D01*
X143033626Y-115788394D01*
X143289045Y-115710914D01*
X143524440Y-115585092D01*
X143730765Y-115415765D01*
X143900092Y-115209440D01*
X144025914Y-114974045D01*
X144038000Y-114934202D01*
X144050086Y-114974045D01*
X144175908Y-115209440D01*
X144345236Y-115415765D01*
X144551561Y-115585092D01*
X144786956Y-115710914D01*
X145042375Y-115788394D01*
X145308000Y-115814556D01*
X145573626Y-115788394D01*
X145829045Y-115710914D01*
X146064440Y-115585092D01*
X146270765Y-115415765D01*
X146440092Y-115209440D01*
X146565914Y-114974045D01*
X146578000Y-114934202D01*
X146590086Y-114974045D01*
X146715908Y-115209440D01*
X146885236Y-115415765D01*
X147091561Y-115585092D01*
X147326956Y-115710914D01*
X147582375Y-115788394D01*
X147848000Y-115814556D01*
X148113626Y-115788394D01*
X148369045Y-115710914D01*
X148604440Y-115585092D01*
X148810765Y-115415765D01*
X148980092Y-115209440D01*
X149105914Y-114974045D01*
X149119505Y-114929241D01*
X149184744Y-115088869D01*
X149331916Y-115311395D01*
X149519673Y-115500933D01*
X149740799Y-115650199D01*
X149986797Y-115753458D01*
X150051528Y-115765559D01*
X150261000Y-115642489D01*
X150261000Y-114300000D01*
X150515000Y-114300000D01*
X150515000Y-115642489D01*
X150724472Y-115765559D01*
X150789203Y-115753458D01*
X151035201Y-115650199D01*
X151256327Y-115500933D01*
X151444084Y-115311395D01*
X151591256Y-115088869D01*
X151692188Y-114841907D01*
X151743000Y-114580000D01*
X151743000Y-114300000D01*
X150515000Y-114300000D01*
X150261000Y-114300000D01*
X150241000Y-114300000D01*
X150241000Y-114046000D01*
X150261000Y-114046000D01*
X150261000Y-112703511D01*
X150515000Y-112703511D01*
X150515000Y-114046000D01*
X151743000Y-114046000D01*
X151743000Y-113766000D01*
X151692188Y-113504093D01*
X151591256Y-113257131D01*
X151444084Y-113034605D01*
X151256327Y-112845067D01*
X151248380Y-112839702D01*
X159524903Y-112839702D01*
X159596486Y-113083671D01*
X159851996Y-113204571D01*
X160126184Y-113273300D01*
X160408512Y-113287217D01*
X160688130Y-113245787D01*
X160954292Y-113150603D01*
X161079514Y-113083671D01*
X161151097Y-112839702D01*
X160338000Y-112026605D01*
X159524903Y-112839702D01*
X151248380Y-112839702D01*
X151035201Y-112695801D01*
X150789203Y-112592542D01*
X150724472Y-112580441D01*
X150515000Y-112703511D01*
X150261000Y-112703511D01*
X150051528Y-112580441D01*
X149986797Y-112592542D01*
X149740799Y-112695801D01*
X149519673Y-112845067D01*
X149331916Y-113034605D01*
X149184744Y-113257131D01*
X149119505Y-113416759D01*
X149105914Y-113371955D01*
X148980092Y-113136560D01*
X148810764Y-112930235D01*
X148604439Y-112760908D01*
X148369044Y-112635086D01*
X148113625Y-112557606D01*
X147848000Y-112531444D01*
X147582374Y-112557606D01*
X147326955Y-112635086D01*
X147091560Y-112760908D01*
X146885235Y-112930236D01*
X146715908Y-113136561D01*
X146590086Y-113371956D01*
X146578000Y-113411798D01*
X146565914Y-113371955D01*
X146440092Y-113136560D01*
X146270764Y-112930235D01*
X146064439Y-112760908D01*
X145829044Y-112635086D01*
X145573625Y-112557606D01*
X145308000Y-112531444D01*
X145042374Y-112557606D01*
X144786955Y-112635086D01*
X144551560Y-112760908D01*
X144345235Y-112930236D01*
X144175908Y-113136561D01*
X144050086Y-113371956D01*
X144038000Y-113411798D01*
X144025914Y-113371955D01*
X143900092Y-113136560D01*
X143730764Y-112930235D01*
X143524439Y-112760908D01*
X143289044Y-112635086D01*
X143033625Y-112557606D01*
X142768000Y-112531444D01*
X142502374Y-112557606D01*
X142246955Y-112635086D01*
X142011560Y-112760908D01*
X141805235Y-112930236D01*
X141635908Y-113136561D01*
X141510086Y-113371956D01*
X141498000Y-113411798D01*
X141485914Y-113371955D01*
X141360092Y-113136560D01*
X141190764Y-112930235D01*
X140984439Y-112760908D01*
X140749044Y-112635086D01*
X140493625Y-112557606D01*
X140228000Y-112531444D01*
X139962374Y-112557606D01*
X139706955Y-112635086D01*
X139471560Y-112760908D01*
X139265235Y-112930236D01*
X139095908Y-113136561D01*
X138970086Y-113371956D01*
X138958000Y-113411798D01*
X138945914Y-113371955D01*
X138820092Y-113136560D01*
X138650764Y-112930235D01*
X138444439Y-112760908D01*
X138209044Y-112635086D01*
X137953625Y-112557606D01*
X137688000Y-112531444D01*
X137422374Y-112557606D01*
X137166955Y-112635086D01*
X136931560Y-112760908D01*
X136725235Y-112930236D01*
X136555908Y-113136561D01*
X136430086Y-113371956D01*
X136418000Y-113411798D01*
X136405914Y-113371955D01*
X136280092Y-113136560D01*
X136110764Y-112930235D01*
X135904439Y-112760908D01*
X135669044Y-112635086D01*
X135413625Y-112557606D01*
X135148000Y-112531444D01*
X134882374Y-112557606D01*
X134626955Y-112635086D01*
X134391560Y-112760908D01*
X134185235Y-112930236D01*
X134015908Y-113136561D01*
X133890086Y-113371956D01*
X133878000Y-113411798D01*
X133865914Y-113371955D01*
X133740092Y-113136560D01*
X133570764Y-112930235D01*
X133364439Y-112760908D01*
X133129044Y-112635086D01*
X132873625Y-112557606D01*
X132608000Y-112531444D01*
X132342374Y-112557606D01*
X132086955Y-112635086D01*
X131851560Y-112760908D01*
X131645235Y-112930236D01*
X131475908Y-113136561D01*
X131350086Y-113371956D01*
X131338000Y-113411798D01*
X131325914Y-113371955D01*
X131200092Y-113136560D01*
X131030764Y-112930235D01*
X130824439Y-112760908D01*
X130589044Y-112635086D01*
X130333625Y-112557606D01*
X130068000Y-112531444D01*
X129802374Y-112557606D01*
X129546955Y-112635086D01*
X129311560Y-112760908D01*
X129105235Y-112930236D01*
X128935908Y-113136561D01*
X128885826Y-113230258D01*
X128886072Y-113173000D01*
X128873812Y-113048518D01*
X128837502Y-112928820D01*
X128778537Y-112818506D01*
X128699185Y-112721815D01*
X128602494Y-112642463D01*
X128492180Y-112583498D01*
X128372482Y-112547188D01*
X128248000Y-112534928D01*
X127813750Y-112538000D01*
X127655000Y-112696750D01*
X127655000Y-114046000D01*
X127675000Y-114046000D01*
X127675000Y-114300000D01*
X127655000Y-114300000D01*
X127655000Y-114320000D01*
X127401000Y-114320000D01*
X127401000Y-114300000D01*
X127381000Y-114300000D01*
X127381000Y-114046000D01*
X127401000Y-114046000D01*
X127401000Y-112696750D01*
X127242250Y-112538000D01*
X127142700Y-112537296D01*
X127142700Y-108132091D01*
X127262375Y-108168394D01*
X127528000Y-108194556D01*
X127793626Y-108168394D01*
X128049045Y-108090914D01*
X128284440Y-107965092D01*
X128490765Y-107795765D01*
X128660092Y-107589440D01*
X128785914Y-107354045D01*
X128798000Y-107314202D01*
X128810086Y-107354045D01*
X128935908Y-107589440D01*
X129105236Y-107795765D01*
X129311561Y-107965092D01*
X129546956Y-108090914D01*
X129802375Y-108168394D01*
X130068000Y-108194556D01*
X130333626Y-108168394D01*
X130589045Y-108090914D01*
X130824440Y-107965092D01*
X131030765Y-107795765D01*
X131200092Y-107589440D01*
X131325914Y-107354045D01*
X131338000Y-107314202D01*
X131350086Y-107354045D01*
X131475908Y-107589440D01*
X131645236Y-107795765D01*
X131851561Y-107965092D01*
X132086956Y-108090914D01*
X132342375Y-108168394D01*
X132608000Y-108194556D01*
X132873626Y-108168394D01*
X133129045Y-108090914D01*
X133364440Y-107965092D01*
X133570765Y-107795765D01*
X133740092Y-107589440D01*
X133865914Y-107354045D01*
X133878000Y-107314202D01*
X133890086Y-107354045D01*
X134015908Y-107589440D01*
X134185236Y-107795765D01*
X134391561Y-107965092D01*
X134626956Y-108090914D01*
X134882375Y-108168394D01*
X135148000Y-108194556D01*
X135413626Y-108168394D01*
X135669045Y-108090914D01*
X135904440Y-107965092D01*
X136110765Y-107795765D01*
X136280092Y-107589440D01*
X136405914Y-107354045D01*
X136418000Y-107314202D01*
X136430086Y-107354045D01*
X136555908Y-107589440D01*
X136725236Y-107795765D01*
X136931561Y-107965092D01*
X137166956Y-108090914D01*
X137422375Y-108168394D01*
X137688000Y-108194556D01*
X137953626Y-108168394D01*
X137982701Y-108159574D01*
X137982701Y-109949597D01*
X137859851Y-110072447D01*
X137738771Y-110096532D01*
X137568611Y-110167014D01*
X137415472Y-110269338D01*
X137285238Y-110399572D01*
X137182914Y-110552711D01*
X137112432Y-110722871D01*
X137076500Y-110903511D01*
X137076500Y-111087689D01*
X137112432Y-111268329D01*
X137182914Y-111438489D01*
X137285238Y-111591628D01*
X137415472Y-111721862D01*
X137568611Y-111824186D01*
X137738771Y-111894668D01*
X137919411Y-111930600D01*
X138103589Y-111930600D01*
X138284229Y-111894668D01*
X138454389Y-111824186D01*
X138607528Y-111721862D01*
X138737762Y-111591628D01*
X138840086Y-111438489D01*
X138910568Y-111268329D01*
X138934653Y-111147249D01*
X139253702Y-110828199D01*
X139282701Y-110804401D01*
X139309032Y-110772317D01*
X139377674Y-110688677D01*
X139448246Y-110556647D01*
X139452265Y-110543397D01*
X139491703Y-110413386D01*
X139502700Y-110301733D01*
X139502700Y-110301723D01*
X139506376Y-110264400D01*
X139502700Y-110227077D01*
X139502700Y-107981736D01*
X139706956Y-108090914D01*
X139962375Y-108168394D01*
X140228000Y-108194556D01*
X140493626Y-108168394D01*
X140568401Y-108145711D01*
X140568401Y-110450063D01*
X140499814Y-110552711D01*
X140429332Y-110722871D01*
X140393400Y-110903511D01*
X140393400Y-111087689D01*
X140429332Y-111268329D01*
X140499814Y-111438489D01*
X140602138Y-111591628D01*
X140732372Y-111721862D01*
X140885511Y-111824186D01*
X141055671Y-111894668D01*
X141236311Y-111930600D01*
X141420489Y-111930600D01*
X141601129Y-111894668D01*
X141771289Y-111824186D01*
X141924428Y-111721862D01*
X142054662Y-111591628D01*
X142156986Y-111438489D01*
X142227468Y-111268329D01*
X142263400Y-111087689D01*
X142263400Y-110903511D01*
X142227468Y-110722871D01*
X142156986Y-110552711D01*
X142088400Y-110450065D01*
X142088400Y-108006164D01*
X142246956Y-108090914D01*
X142502375Y-108168394D01*
X142768000Y-108194556D01*
X143033626Y-108168394D01*
X143277901Y-108094295D01*
X143277901Y-110391209D01*
X143269538Y-110399572D01*
X143167214Y-110552711D01*
X143096732Y-110722871D01*
X143060800Y-110903511D01*
X143060800Y-111087689D01*
X143096732Y-111268329D01*
X143167214Y-111438489D01*
X143269538Y-111591628D01*
X143399772Y-111721862D01*
X143552911Y-111824186D01*
X143723071Y-111894668D01*
X143903711Y-111930600D01*
X144087889Y-111930600D01*
X144153685Y-111917512D01*
X158897783Y-111917512D01*
X158939213Y-112197130D01*
X159034397Y-112463292D01*
X159101329Y-112588514D01*
X159345298Y-112660097D01*
X160158395Y-111847000D01*
X160517605Y-111847000D01*
X161330702Y-112660097D01*
X161574671Y-112588514D01*
X161695571Y-112333004D01*
X161764300Y-112058816D01*
X161778217Y-111776488D01*
X161736787Y-111496870D01*
X161641603Y-111230708D01*
X161574671Y-111105486D01*
X161330702Y-111033903D01*
X160517605Y-111847000D01*
X160158395Y-111847000D01*
X159345298Y-111033903D01*
X159101329Y-111105486D01*
X158980429Y-111360996D01*
X158911700Y-111635184D01*
X158897783Y-111917512D01*
X144153685Y-111917512D01*
X144268529Y-111894668D01*
X144438689Y-111824186D01*
X144591828Y-111721862D01*
X144722062Y-111591628D01*
X144824386Y-111438489D01*
X144894868Y-111268329D01*
X144930800Y-111087689D01*
X144930800Y-110903511D01*
X144894868Y-110722871D01*
X144824386Y-110552711D01*
X144797900Y-110513072D01*
X144797900Y-108094234D01*
X145042375Y-108168394D01*
X145308000Y-108194556D01*
X145573626Y-108168394D01*
X145829045Y-108090914D01*
X146064440Y-107965092D01*
X146246872Y-107815374D01*
X146831705Y-108400208D01*
X146855499Y-108429201D01*
X146884492Y-108452995D01*
X146884496Y-108452999D01*
X146922709Y-108484359D01*
X146971224Y-108524174D01*
X147103253Y-108594746D01*
X147246514Y-108638203D01*
X147358167Y-108649200D01*
X147358176Y-108649200D01*
X147395499Y-108652876D01*
X147432822Y-108649200D01*
X148281678Y-108649200D01*
X148319000Y-108652876D01*
X148356322Y-108649200D01*
X148356333Y-108649200D01*
X148467986Y-108638203D01*
X148611247Y-108594746D01*
X148743276Y-108524174D01*
X148859001Y-108429201D01*
X148882804Y-108400198D01*
X149459290Y-107823712D01*
X149631561Y-107965092D01*
X149661763Y-107981235D01*
X147610852Y-110032147D01*
X147489771Y-110056232D01*
X147319611Y-110126714D01*
X147166472Y-110229038D01*
X147036238Y-110359272D01*
X146933914Y-110512411D01*
X146863432Y-110682571D01*
X146827500Y-110863211D01*
X146827500Y-111047389D01*
X146863432Y-111228029D01*
X146933914Y-111398189D01*
X147036238Y-111551328D01*
X147166472Y-111681562D01*
X147319611Y-111783886D01*
X147489771Y-111854368D01*
X147670411Y-111890300D01*
X147854589Y-111890300D01*
X148035229Y-111854368D01*
X148205389Y-111783886D01*
X148358528Y-111681562D01*
X148488762Y-111551328D01*
X148591086Y-111398189D01*
X148661568Y-111228029D01*
X148685653Y-111106948D01*
X151424401Y-108368201D01*
X151424401Y-109365297D01*
X151118151Y-109671547D01*
X150997071Y-109695632D01*
X150826911Y-109766114D01*
X150673772Y-109868438D01*
X150543538Y-109998672D01*
X150441214Y-110151811D01*
X150370732Y-110321971D01*
X150334800Y-110502611D01*
X150334800Y-110686789D01*
X150370732Y-110867429D01*
X150441214Y-111037589D01*
X150543538Y-111190728D01*
X150673772Y-111320962D01*
X150826911Y-111423286D01*
X150997071Y-111493768D01*
X151177711Y-111529700D01*
X151361889Y-111529700D01*
X151542529Y-111493768D01*
X151712689Y-111423286D01*
X151865828Y-111320962D01*
X151996062Y-111190728D01*
X152098386Y-111037589D01*
X152168868Y-110867429D01*
X152192953Y-110746349D01*
X152695403Y-110243899D01*
X152724401Y-110220101D01*
X152819374Y-110104376D01*
X152889946Y-109972347D01*
X152933403Y-109829086D01*
X152944400Y-109717433D01*
X152944400Y-109717425D01*
X152948076Y-109680100D01*
X152944400Y-109642775D01*
X152944400Y-97230733D01*
X152948077Y-97193400D01*
X152933403Y-97044414D01*
X152889946Y-96901153D01*
X152819374Y-96769124D01*
X152748199Y-96682397D01*
X152724401Y-96653399D01*
X152695404Y-96629602D01*
X150495002Y-94429201D01*
X150495002Y-94306490D01*
X150704472Y-94429559D01*
X150769203Y-94417458D01*
X151015201Y-94314199D01*
X151236327Y-94164933D01*
X151424084Y-93975395D01*
X151571256Y-93752869D01*
X151672188Y-93505907D01*
X151723000Y-93244000D01*
X151723000Y-92964000D01*
X150495000Y-92964000D01*
X150495000Y-92984000D01*
X150241000Y-92984000D01*
X150241000Y-92964000D01*
X150221000Y-92964000D01*
X150221000Y-92710000D01*
X150241000Y-92710000D01*
X150241000Y-91367511D01*
X150495000Y-91367511D01*
X150495000Y-92710000D01*
X151723000Y-92710000D01*
X151723000Y-92430000D01*
X151672188Y-92168093D01*
X151571256Y-91921131D01*
X151424084Y-91698605D01*
X151236327Y-91509067D01*
X151015201Y-91359801D01*
X150769203Y-91256542D01*
X150704472Y-91244441D01*
X150495000Y-91367511D01*
X150241000Y-91367511D01*
X150031528Y-91244441D01*
X149966797Y-91256542D01*
X149720799Y-91359801D01*
X149499673Y-91509067D01*
X149311916Y-91698605D01*
X149164744Y-91921131D01*
X149099505Y-92080759D01*
X149085914Y-92035955D01*
X148960092Y-91800560D01*
X148790764Y-91594235D01*
X148584439Y-91424908D01*
X148349044Y-91299086D01*
X148093625Y-91221606D01*
X147828000Y-91195444D01*
X147562374Y-91221606D01*
X147306955Y-91299086D01*
X147071560Y-91424908D01*
X146865235Y-91594236D01*
X146695908Y-91800561D01*
X146570086Y-92035956D01*
X146558000Y-92075798D01*
X146545914Y-92035955D01*
X146420092Y-91800560D01*
X146250764Y-91594235D01*
X146044439Y-91424908D01*
X145809044Y-91299086D01*
X145553625Y-91221606D01*
X145288000Y-91195444D01*
X145022374Y-91221606D01*
X144766955Y-91299086D01*
X144531560Y-91424908D01*
X144325235Y-91594236D01*
X144155908Y-91800561D01*
X144030086Y-92035956D01*
X144018000Y-92075798D01*
X144005914Y-92035955D01*
X143880092Y-91800560D01*
X143710764Y-91594235D01*
X143504439Y-91424908D01*
X143269044Y-91299086D01*
X143013625Y-91221606D01*
X142748000Y-91195444D01*
X142482374Y-91221606D01*
X142226955Y-91299086D01*
X141991560Y-91424908D01*
X141785235Y-91594236D01*
X141615908Y-91800561D01*
X141490086Y-92035956D01*
X141478000Y-92075798D01*
X141465914Y-92035955D01*
X141340092Y-91800560D01*
X141170764Y-91594235D01*
X140964439Y-91424908D01*
X140729044Y-91299086D01*
X140473625Y-91221606D01*
X140208000Y-91195444D01*
X139942374Y-91221606D01*
X139686955Y-91299086D01*
X139530867Y-91382517D01*
X139518552Y-91367511D01*
X139478001Y-91318099D01*
X139448998Y-91294297D01*
X139396253Y-91241552D01*
X139372168Y-91120471D01*
X139301686Y-90950311D01*
X139199362Y-90797172D01*
X139069128Y-90666938D01*
X138915989Y-90564614D01*
X138786311Y-90510900D01*
X138915989Y-90457186D01*
X139069128Y-90354862D01*
X139199362Y-90224628D01*
X139262958Y-90129449D01*
X139319138Y-90213528D01*
X139449372Y-90343762D01*
X139602511Y-90446086D01*
X139772671Y-90516568D01*
X139953311Y-90552500D01*
X140137489Y-90552500D01*
X140318129Y-90516568D01*
X140488289Y-90446086D01*
X140641428Y-90343762D01*
X140771662Y-90213528D01*
X140873986Y-90060389D01*
X140944468Y-89890229D01*
X140968553Y-89769148D01*
X143259003Y-87478699D01*
X143288001Y-87454901D01*
X143382974Y-87339176D01*
X143453546Y-87207147D01*
X143497003Y-87063886D01*
X143508000Y-86952233D01*
X143511677Y-86914900D01*
X143508000Y-86877567D01*
X143508000Y-86626170D01*
X143710765Y-86459765D01*
X143880092Y-86253440D01*
X144005914Y-86018045D01*
X144018000Y-85978202D01*
X144030086Y-86018045D01*
X144155908Y-86253440D01*
X144325236Y-86459765D01*
X144531561Y-86629092D01*
X144766956Y-86754914D01*
X145022375Y-86832394D01*
X145127455Y-86842744D01*
X143352652Y-88617547D01*
X143231571Y-88641632D01*
X143061411Y-88712114D01*
X142908272Y-88814438D01*
X142778038Y-88944672D01*
X142675714Y-89097811D01*
X142605232Y-89267971D01*
X142569300Y-89448611D01*
X142569300Y-89632789D01*
X142605232Y-89813429D01*
X142675714Y-89983589D01*
X142778038Y-90136728D01*
X142908272Y-90266962D01*
X143061411Y-90369286D01*
X143231571Y-90439768D01*
X143412211Y-90475700D01*
X143596389Y-90475700D01*
X143777029Y-90439768D01*
X143947189Y-90369286D01*
X144100328Y-90266962D01*
X144230562Y-90136728D01*
X144332886Y-89983589D01*
X144403368Y-89813429D01*
X144427453Y-89692348D01*
X147293703Y-86826099D01*
X147322701Y-86802301D01*
X147350700Y-86768184D01*
X147562375Y-86832394D01*
X147828000Y-86858556D01*
X148093626Y-86832394D01*
X148349045Y-86754914D01*
X148584440Y-86629092D01*
X148790765Y-86459765D01*
X148960092Y-86253440D01*
X149085914Y-86018045D01*
X149098000Y-85978202D01*
X149110086Y-86018045D01*
X149235908Y-86253440D01*
X149405236Y-86459765D01*
X149611561Y-86629092D01*
X149652580Y-86651017D01*
X147621099Y-88682500D01*
X147494711Y-88682500D01*
X147314071Y-88718432D01*
X147143911Y-88788914D01*
X146990772Y-88891238D01*
X146860538Y-89021472D01*
X146758214Y-89174611D01*
X146687732Y-89344771D01*
X146651800Y-89525411D01*
X146651800Y-89709589D01*
X146687732Y-89890229D01*
X146758214Y-90060389D01*
X146860538Y-90213528D01*
X146990772Y-90343762D01*
X147143911Y-90446086D01*
X147314071Y-90516568D01*
X147494711Y-90552500D01*
X147678889Y-90552500D01*
X147859529Y-90516568D01*
X148029689Y-90446086D01*
X148182828Y-90343762D01*
X148313062Y-90213528D01*
X148363185Y-90138514D01*
X148441438Y-90255628D01*
X148571672Y-90385862D01*
X148724811Y-90488186D01*
X148894971Y-90558668D01*
X149075611Y-90594600D01*
X149259789Y-90594600D01*
X149440429Y-90558668D01*
X149610589Y-90488186D01*
X149746000Y-90397707D01*
X149881411Y-90488186D01*
X150051571Y-90558668D01*
X150232211Y-90594600D01*
X150416389Y-90594600D01*
X150482185Y-90581512D01*
X158897783Y-90581512D01*
X158939213Y-90861130D01*
X159034397Y-91127292D01*
X159101329Y-91252514D01*
X159345298Y-91324097D01*
X160158395Y-90511000D01*
X159345298Y-89697903D01*
X159101329Y-89769486D01*
X158980429Y-90024996D01*
X158911700Y-90299184D01*
X158897783Y-90581512D01*
X150482185Y-90581512D01*
X150597029Y-90558668D01*
X150767189Y-90488186D01*
X150920328Y-90385862D01*
X151050562Y-90255628D01*
X151152886Y-90102489D01*
X151223368Y-89932329D01*
X151247453Y-89811248D01*
X153186301Y-87872401D01*
X153186301Y-88227197D01*
X152719151Y-88694347D01*
X152598071Y-88718432D01*
X152427911Y-88788914D01*
X152274772Y-88891238D01*
X152144538Y-89021472D01*
X152042214Y-89174611D01*
X151971732Y-89344771D01*
X151935800Y-89525411D01*
X151935800Y-89709589D01*
X151971732Y-89890229D01*
X152042214Y-90060389D01*
X152144538Y-90213528D01*
X152274772Y-90343762D01*
X152427911Y-90446086D01*
X152598071Y-90516568D01*
X152778711Y-90552500D01*
X152962889Y-90552500D01*
X153143529Y-90516568D01*
X153313689Y-90446086D01*
X153466828Y-90343762D01*
X153597062Y-90213528D01*
X153699386Y-90060389D01*
X153711075Y-90032168D01*
X153720114Y-90053989D01*
X153822438Y-90207128D01*
X153952672Y-90337362D01*
X154105811Y-90439686D01*
X154275971Y-90510168D01*
X154456611Y-90546100D01*
X154640789Y-90546100D01*
X154821429Y-90510168D01*
X154991589Y-90439686D01*
X155144728Y-90337362D01*
X155274962Y-90207128D01*
X155377286Y-90053989D01*
X155447768Y-89883829D01*
X155483700Y-89703189D01*
X155483700Y-89519011D01*
X155447768Y-89338371D01*
X155377286Y-89168211D01*
X155308700Y-89065565D01*
X155308700Y-86516590D01*
X155315762Y-86509528D01*
X155418086Y-86356389D01*
X155488568Y-86186229D01*
X155524500Y-86005589D01*
X155524500Y-85821411D01*
X155488568Y-85640771D01*
X155418086Y-85470611D01*
X155315762Y-85317472D01*
X155305496Y-85307206D01*
X163593827Y-77018875D01*
X163761737Y-77108625D01*
X164044224Y-77194316D01*
X164338000Y-77223251D01*
X164631777Y-77194316D01*
X164914264Y-77108625D01*
X165174606Y-76969469D01*
X165402797Y-76782197D01*
X165590069Y-76554006D01*
X165608000Y-76520459D01*
X165625931Y-76554006D01*
X165813203Y-76782197D01*
X166041395Y-76969469D01*
X166301737Y-77108625D01*
X166584224Y-77194316D01*
X166878000Y-77223251D01*
X167171777Y-77194316D01*
X167454264Y-77108625D01*
X167714606Y-76969469D01*
X167942797Y-76782197D01*
X168130069Y-76554006D01*
X168148000Y-76520459D01*
X168165931Y-76554006D01*
X168353203Y-76782197D01*
X168581395Y-76969469D01*
X168841737Y-77108625D01*
X169124224Y-77194316D01*
X169418000Y-77223251D01*
X169711777Y-77194316D01*
X169994264Y-77108625D01*
X170254606Y-76969469D01*
X170482797Y-76782197D01*
X170670069Y-76554006D01*
X170688000Y-76520459D01*
X170705931Y-76554006D01*
X170893203Y-76782197D01*
X171121395Y-76969469D01*
X171381737Y-77108625D01*
X171664224Y-77194316D01*
X171958000Y-77223251D01*
X172251777Y-77194316D01*
X172534264Y-77108625D01*
X172794606Y-76969469D01*
X173022797Y-76782197D01*
X173210069Y-76554006D01*
X173228000Y-76520459D01*
X173245931Y-76554006D01*
X173433203Y-76782197D01*
X173661395Y-76969469D01*
X173921737Y-77108625D01*
X174204224Y-77194316D01*
X174498000Y-77223251D01*
X174791777Y-77194316D01*
X175074264Y-77108625D01*
X175334606Y-76969469D01*
X175562797Y-76782197D01*
X175750069Y-76554006D01*
X175889225Y-76293663D01*
X175974916Y-76011176D01*
X175996600Y-75791018D01*
X175996600Y-75338981D01*
X175974916Y-75118823D01*
X175889225Y-74836336D01*
X175750069Y-74575994D01*
X175562797Y-74347803D01*
X175334605Y-74160531D01*
X175074263Y-74021375D01*
X174791776Y-73935684D01*
X174498000Y-73906749D01*
X174204223Y-73935684D01*
X173921736Y-74021375D01*
X173661394Y-74160531D01*
X173433203Y-74347803D01*
X173245931Y-74575995D01*
X173228000Y-74609541D01*
X173210069Y-74575994D01*
X173022797Y-74347803D01*
X172794605Y-74160531D01*
X172534263Y-74021375D01*
X172251776Y-73935684D01*
X171958000Y-73906749D01*
X171664223Y-73935684D01*
X171381736Y-74021375D01*
X171121394Y-74160531D01*
X170893203Y-74347803D01*
X170705931Y-74575995D01*
X170688000Y-74609541D01*
X170670069Y-74575994D01*
X170482797Y-74347803D01*
X170254605Y-74160531D01*
X169994263Y-74021375D01*
X169711776Y-73935684D01*
X169418000Y-73906749D01*
X169124223Y-73935684D01*
X168841736Y-74021375D01*
X168581394Y-74160531D01*
X168353203Y-74347803D01*
X168165931Y-74575995D01*
X168148000Y-74609541D01*
X168130069Y-74575994D01*
X167942797Y-74347803D01*
X167714605Y-74160531D01*
X167454263Y-74021375D01*
X167171776Y-73935684D01*
X166878000Y-73906749D01*
X166584223Y-73935684D01*
X166301736Y-74021375D01*
X166041394Y-74160531D01*
X165952493Y-74233491D01*
X165454001Y-73735000D01*
X175219909Y-73735000D01*
X176328001Y-74843093D01*
X176328000Y-85944125D01*
X176324565Y-85979000D01*
X176328000Y-86013875D01*
X176328000Y-86013876D01*
X176338273Y-86118183D01*
X176378872Y-86252019D01*
X176444800Y-86375362D01*
X176533525Y-86483474D01*
X176560617Y-86505708D01*
X178868001Y-88813093D01*
X178868001Y-88863294D01*
X178738113Y-88733406D01*
X178301298Y-88441536D01*
X177815935Y-88240492D01*
X177300677Y-88138000D01*
X176775323Y-88138000D01*
X176260065Y-88240492D01*
X175774702Y-88441536D01*
X175337887Y-88733406D01*
X174966406Y-89104887D01*
X174674536Y-89541702D01*
X174473492Y-90027065D01*
X174371000Y-90542323D01*
X174371000Y-91067677D01*
X174473492Y-91582935D01*
X174674536Y-92068298D01*
X174966406Y-92505113D01*
X175337887Y-92876594D01*
X175774702Y-93168464D01*
X176260065Y-93369508D01*
X176775323Y-93472000D01*
X177300677Y-93472000D01*
X177815935Y-93369508D01*
X178301298Y-93168464D01*
X178738113Y-92876594D01*
X178868001Y-92746706D01*
X178868000Y-116803293D01*
X178738113Y-116673406D01*
X178301298Y-116381536D01*
X177815935Y-116180492D01*
X177300677Y-116078000D01*
X176775323Y-116078000D01*
X176260065Y-116180492D01*
X175774702Y-116381536D01*
X175337887Y-116673406D01*
X174966406Y-117044887D01*
X174674536Y-117481702D01*
X174473492Y-117967065D01*
X174371000Y-118482323D01*
X174371000Y-119007677D01*
X174473492Y-119522935D01*
X174674536Y-120008298D01*
X174966406Y-120445113D01*
X175337887Y-120816594D01*
X175774702Y-121108464D01*
X176260065Y-121309508D01*
X176775323Y-121412000D01*
X177300677Y-121412000D01*
X177815935Y-121309508D01*
X178301298Y-121108464D01*
X178738113Y-120816594D01*
X178868000Y-120686707D01*
X178868000Y-120990908D01*
X176560617Y-123298292D01*
X176533526Y-123320525D01*
X176511293Y-123347616D01*
X176444801Y-123428637D01*
X176378872Y-123551981D01*
X176338274Y-123685816D01*
X176324565Y-123825000D01*
X176328001Y-123859885D01*
X176328000Y-125655000D01*
X158303078Y-125655000D01*
X160299400Y-123658678D01*
X160299400Y-124051019D01*
X160321084Y-124271177D01*
X160406775Y-124553664D01*
X160545931Y-124814006D01*
X160733203Y-125042197D01*
X160961395Y-125229469D01*
X161221737Y-125368625D01*
X161504224Y-125454316D01*
X161798000Y-125483251D01*
X162091777Y-125454316D01*
X162374264Y-125368625D01*
X162634606Y-125229469D01*
X162862797Y-125042197D01*
X163050069Y-124814006D01*
X163068000Y-124780459D01*
X163085931Y-124814006D01*
X163273203Y-125042197D01*
X163501395Y-125229469D01*
X163761737Y-125368625D01*
X164044224Y-125454316D01*
X164338000Y-125483251D01*
X164631777Y-125454316D01*
X164914264Y-125368625D01*
X165174606Y-125229469D01*
X165402797Y-125042197D01*
X165590069Y-124814006D01*
X165608000Y-124780459D01*
X165625931Y-124814006D01*
X165813203Y-125042197D01*
X166041395Y-125229469D01*
X166301737Y-125368625D01*
X166584224Y-125454316D01*
X166878000Y-125483251D01*
X167171777Y-125454316D01*
X167454264Y-125368625D01*
X167714606Y-125229469D01*
X167942797Y-125042197D01*
X168130069Y-124814006D01*
X168148000Y-124780459D01*
X168165931Y-124814006D01*
X168353203Y-125042197D01*
X168581395Y-125229469D01*
X168841737Y-125368625D01*
X169124224Y-125454316D01*
X169418000Y-125483251D01*
X169711777Y-125454316D01*
X169994264Y-125368625D01*
X170254606Y-125229469D01*
X170482797Y-125042197D01*
X170670069Y-124814006D01*
X170688000Y-124780459D01*
X170705931Y-124814006D01*
X170893203Y-125042197D01*
X171121395Y-125229469D01*
X171381737Y-125368625D01*
X171664224Y-125454316D01*
X171958000Y-125483251D01*
X172251777Y-125454316D01*
X172534264Y-125368625D01*
X172794606Y-125229469D01*
X173022797Y-125042197D01*
X173210069Y-124814006D01*
X173228000Y-124780459D01*
X173245931Y-124814006D01*
X173433203Y-125042197D01*
X173661395Y-125229469D01*
X173921737Y-125368625D01*
X174204224Y-125454316D01*
X174498000Y-125483251D01*
X174791777Y-125454316D01*
X175074264Y-125368625D01*
X175334606Y-125229469D01*
X175562797Y-125042197D01*
X175750069Y-124814006D01*
X175889225Y-124553663D01*
X175974916Y-124271176D01*
X175996600Y-124051018D01*
X175996600Y-123598981D01*
X175974916Y-123378823D01*
X175889225Y-123096336D01*
X175750069Y-122835994D01*
X175562797Y-122607803D01*
X175334605Y-122420531D01*
X175074263Y-122281375D01*
X174791776Y-122195684D01*
X174498000Y-122166749D01*
X174204223Y-122195684D01*
X173921736Y-122281375D01*
X173661394Y-122420531D01*
X173433203Y-122607803D01*
X173245931Y-122835995D01*
X173228000Y-122869541D01*
X173210069Y-122835994D01*
X173022797Y-122607803D01*
X172794605Y-122420531D01*
X172534263Y-122281375D01*
X172251776Y-122195684D01*
X171958000Y-122166749D01*
X171664223Y-122195684D01*
X171381736Y-122281375D01*
X171121394Y-122420531D01*
X170893203Y-122607803D01*
X170705931Y-122835995D01*
X170688000Y-122869541D01*
X170670069Y-122835994D01*
X170482797Y-122607803D01*
X170254605Y-122420531D01*
X169994263Y-122281375D01*
X169711776Y-122195684D01*
X169418000Y-122166749D01*
X169124223Y-122195684D01*
X168841736Y-122281375D01*
X168581394Y-122420531D01*
X168353203Y-122607803D01*
X168165931Y-122835995D01*
X168148000Y-122869541D01*
X168130069Y-122835994D01*
X167942797Y-122607803D01*
X167714605Y-122420531D01*
X167454263Y-122281375D01*
X167171776Y-122195684D01*
X166878000Y-122166749D01*
X166584223Y-122195684D01*
X166301736Y-122281375D01*
X166041394Y-122420531D01*
X165813203Y-122607803D01*
X165625931Y-122835995D01*
X165608000Y-122869541D01*
X165590069Y-122835994D01*
X165402797Y-122607803D01*
X165174605Y-122420531D01*
X164914263Y-122281375D01*
X164631776Y-122195684D01*
X164338000Y-122166749D01*
X164044223Y-122195684D01*
X163761736Y-122281375D01*
X163501394Y-122420531D01*
X163273203Y-122607803D01*
X163085931Y-122835995D01*
X163068000Y-122869541D01*
X163050069Y-122835994D01*
X162862797Y-122607803D01*
X162634605Y-122420531D01*
X162374263Y-122281375D01*
X162091776Y-122195684D01*
X161798000Y-122166749D01*
X161790601Y-122167478D01*
X165574651Y-118383428D01*
X165608417Y-118355717D01*
X165719011Y-118220959D01*
X165801189Y-118067213D01*
X165851795Y-117900390D01*
X165864600Y-117770377D01*
X165864600Y-117770369D01*
X165868881Y-117726900D01*
X165864600Y-117683431D01*
X165864600Y-115029900D01*
X169896200Y-115029900D01*
X169896200Y-115429900D01*
X169944707Y-115668396D01*
X170038810Y-115892846D01*
X170174893Y-116094625D01*
X170347726Y-116265978D01*
X170550667Y-116400321D01*
X170775918Y-116492491D01*
X170813591Y-116496362D01*
X171004200Y-116371631D01*
X171004200Y-115029900D01*
X171258200Y-115029900D01*
X171258200Y-116371631D01*
X171448809Y-116496362D01*
X171486482Y-116492491D01*
X171711733Y-116400321D01*
X171914674Y-116265978D01*
X172087507Y-116094625D01*
X172223590Y-115892846D01*
X172317693Y-115668396D01*
X172366200Y-115429900D01*
X172366200Y-115029900D01*
X171258200Y-115029900D01*
X171004200Y-115029900D01*
X169896200Y-115029900D01*
X165864600Y-115029900D01*
X165864600Y-114375900D01*
X169896200Y-114375900D01*
X169896200Y-114775900D01*
X171004200Y-114775900D01*
X171004200Y-113434169D01*
X171258200Y-113434169D01*
X171258200Y-114775900D01*
X172366200Y-114775900D01*
X172366200Y-114375900D01*
X172317693Y-114137404D01*
X172223590Y-113912954D01*
X172087507Y-113711175D01*
X171914674Y-113539822D01*
X171711733Y-113405479D01*
X171486482Y-113313309D01*
X171448809Y-113309438D01*
X171258200Y-113434169D01*
X171004200Y-113434169D01*
X170813591Y-113309438D01*
X170775918Y-113313309D01*
X170550667Y-113405479D01*
X170347726Y-113539822D01*
X170174893Y-113711175D01*
X170038810Y-113912954D01*
X169944707Y-114137404D01*
X169896200Y-114375900D01*
X165864600Y-114375900D01*
X165864600Y-112117702D01*
X170382903Y-112117702D01*
X170454486Y-112361671D01*
X170709996Y-112482571D01*
X170984184Y-112551300D01*
X171266512Y-112565217D01*
X171546130Y-112523787D01*
X171812292Y-112428603D01*
X171937514Y-112361671D01*
X172009097Y-112117702D01*
X171196000Y-111304605D01*
X170382903Y-112117702D01*
X165864600Y-112117702D01*
X165864600Y-111195512D01*
X169755783Y-111195512D01*
X169797213Y-111475130D01*
X169892397Y-111741292D01*
X169959329Y-111866514D01*
X170203298Y-111938097D01*
X171016395Y-111125000D01*
X171375605Y-111125000D01*
X172188702Y-111938097D01*
X172432671Y-111866514D01*
X172553571Y-111611004D01*
X172622300Y-111336816D01*
X172636217Y-111054488D01*
X172594787Y-110774870D01*
X172499603Y-110508708D01*
X172432671Y-110383486D01*
X172188702Y-110311903D01*
X171375605Y-111125000D01*
X171016395Y-111125000D01*
X170203298Y-110311903D01*
X169959329Y-110383486D01*
X169838429Y-110638996D01*
X169769700Y-110913184D01*
X169755783Y-111195512D01*
X165864600Y-111195512D01*
X165864600Y-110132298D01*
X170382903Y-110132298D01*
X171196000Y-110945395D01*
X172009097Y-110132298D01*
X171937514Y-109888329D01*
X171682004Y-109767429D01*
X171407816Y-109698700D01*
X171125488Y-109684783D01*
X170845870Y-109726213D01*
X170579708Y-109821397D01*
X170454486Y-109888329D01*
X170382903Y-110132298D01*
X165864600Y-110132298D01*
X165864600Y-108815702D01*
X170382903Y-108815702D01*
X170454486Y-109059671D01*
X170709996Y-109180571D01*
X170984184Y-109249300D01*
X171266512Y-109263217D01*
X171546130Y-109221787D01*
X171812292Y-109126603D01*
X171937514Y-109059671D01*
X172009097Y-108815702D01*
X171196000Y-108002605D01*
X170382903Y-108815702D01*
X165864600Y-108815702D01*
X165864600Y-107893512D01*
X169755783Y-107893512D01*
X169797213Y-108173130D01*
X169892397Y-108439292D01*
X169959329Y-108564514D01*
X170203298Y-108636097D01*
X171016395Y-107823000D01*
X171375605Y-107823000D01*
X172188702Y-108636097D01*
X172432671Y-108564514D01*
X172553571Y-108309004D01*
X172622300Y-108034816D01*
X172636217Y-107752488D01*
X172594787Y-107472870D01*
X172499603Y-107206708D01*
X172432671Y-107081486D01*
X172188702Y-107009903D01*
X171375605Y-107823000D01*
X171016395Y-107823000D01*
X170203298Y-107009903D01*
X169959329Y-107081486D01*
X169838429Y-107336996D01*
X169769700Y-107611184D01*
X169755783Y-107893512D01*
X165864600Y-107893512D01*
X165864600Y-106830298D01*
X170382903Y-106830298D01*
X171196000Y-107643395D01*
X172009097Y-106830298D01*
X171937514Y-106586329D01*
X171682004Y-106465429D01*
X171407816Y-106396700D01*
X171125488Y-106382783D01*
X170845870Y-106424213D01*
X170579708Y-106519397D01*
X170454486Y-106586329D01*
X170382903Y-106830298D01*
X165864600Y-106830298D01*
X165864600Y-105513702D01*
X170382903Y-105513702D01*
X170454486Y-105757671D01*
X170709996Y-105878571D01*
X170984184Y-105947300D01*
X171266512Y-105961217D01*
X171546130Y-105919787D01*
X171812292Y-105824603D01*
X171937514Y-105757671D01*
X172009097Y-105513702D01*
X171196000Y-104700605D01*
X170382903Y-105513702D01*
X165864600Y-105513702D01*
X165864600Y-104591512D01*
X169755783Y-104591512D01*
X169797213Y-104871130D01*
X169892397Y-105137292D01*
X169959329Y-105262514D01*
X170203298Y-105334097D01*
X171016395Y-104521000D01*
X171375605Y-104521000D01*
X172188702Y-105334097D01*
X172432671Y-105262514D01*
X172553571Y-105007004D01*
X172622300Y-104732816D01*
X172636217Y-104450488D01*
X172594787Y-104170870D01*
X172499603Y-103904708D01*
X172432671Y-103779486D01*
X172188702Y-103707903D01*
X171375605Y-104521000D01*
X171016395Y-104521000D01*
X170203298Y-103707903D01*
X169959329Y-103779486D01*
X169838429Y-104034996D01*
X169769700Y-104309184D01*
X169755783Y-104591512D01*
X165864600Y-104591512D01*
X165864600Y-103528298D01*
X170382903Y-103528298D01*
X171196000Y-104341395D01*
X172009097Y-103528298D01*
X171937514Y-103284329D01*
X171682004Y-103163429D01*
X171407816Y-103094700D01*
X171125488Y-103080783D01*
X170845870Y-103122213D01*
X170579708Y-103217397D01*
X170454486Y-103284329D01*
X170382903Y-103528298D01*
X165864600Y-103528298D01*
X165864600Y-102211702D01*
X170382903Y-102211702D01*
X170454486Y-102455671D01*
X170709996Y-102576571D01*
X170984184Y-102645300D01*
X171266512Y-102659217D01*
X171546130Y-102617787D01*
X171812292Y-102522603D01*
X171937514Y-102455671D01*
X172009097Y-102211702D01*
X171196000Y-101398605D01*
X170382903Y-102211702D01*
X165864600Y-102211702D01*
X165864600Y-101289512D01*
X169755783Y-101289512D01*
X169797213Y-101569130D01*
X169892397Y-101835292D01*
X169959329Y-101960514D01*
X170203298Y-102032097D01*
X171016395Y-101219000D01*
X171375605Y-101219000D01*
X172188702Y-102032097D01*
X172432671Y-101960514D01*
X172553571Y-101705004D01*
X172622300Y-101430816D01*
X172636217Y-101148488D01*
X172594787Y-100868870D01*
X172499603Y-100602708D01*
X172432671Y-100477486D01*
X172188702Y-100405903D01*
X171375605Y-101219000D01*
X171016395Y-101219000D01*
X170203298Y-100405903D01*
X169959329Y-100477486D01*
X169838429Y-100732996D01*
X169769700Y-101007184D01*
X169755783Y-101289512D01*
X165864600Y-101289512D01*
X165864600Y-100226298D01*
X170382903Y-100226298D01*
X171196000Y-101039395D01*
X172009097Y-100226298D01*
X171937514Y-99982329D01*
X171682004Y-99861429D01*
X171407816Y-99792700D01*
X171125488Y-99778783D01*
X170845870Y-99820213D01*
X170579708Y-99915397D01*
X170454486Y-99982329D01*
X170382903Y-100226298D01*
X165864600Y-100226298D01*
X165864600Y-98909702D01*
X170382903Y-98909702D01*
X170454486Y-99153671D01*
X170709996Y-99274571D01*
X170984184Y-99343300D01*
X171266512Y-99357217D01*
X171546130Y-99315787D01*
X171812292Y-99220603D01*
X171937514Y-99153671D01*
X172009097Y-98909702D01*
X171196000Y-98096605D01*
X170382903Y-98909702D01*
X165864600Y-98909702D01*
X165864600Y-97987512D01*
X169755783Y-97987512D01*
X169797213Y-98267130D01*
X169892397Y-98533292D01*
X169959329Y-98658514D01*
X170203298Y-98730097D01*
X171016395Y-97917000D01*
X171375605Y-97917000D01*
X172188702Y-98730097D01*
X172432671Y-98658514D01*
X172553571Y-98403004D01*
X172622300Y-98128816D01*
X172636217Y-97846488D01*
X172594787Y-97566870D01*
X172499603Y-97300708D01*
X172432671Y-97175486D01*
X172188702Y-97103903D01*
X171375605Y-97917000D01*
X171016395Y-97917000D01*
X170203298Y-97103903D01*
X169959329Y-97175486D01*
X169838429Y-97430996D01*
X169769700Y-97705184D01*
X169755783Y-97987512D01*
X165864600Y-97987512D01*
X165864600Y-96924298D01*
X170382903Y-96924298D01*
X171196000Y-97737395D01*
X172009097Y-96924298D01*
X171937514Y-96680329D01*
X171682004Y-96559429D01*
X171407816Y-96490700D01*
X171125488Y-96476783D01*
X170845870Y-96518213D01*
X170579708Y-96613397D01*
X170454486Y-96680329D01*
X170382903Y-96924298D01*
X165864600Y-96924298D01*
X165864600Y-95607702D01*
X170382903Y-95607702D01*
X170454486Y-95851671D01*
X170709996Y-95972571D01*
X170984184Y-96041300D01*
X171266512Y-96055217D01*
X171546130Y-96013787D01*
X171812292Y-95918603D01*
X171937514Y-95851671D01*
X172009097Y-95607702D01*
X171196000Y-94794605D01*
X170382903Y-95607702D01*
X165864600Y-95607702D01*
X165864600Y-94685512D01*
X169755783Y-94685512D01*
X169797213Y-94965130D01*
X169892397Y-95231292D01*
X169959329Y-95356514D01*
X170203298Y-95428097D01*
X171016395Y-94615000D01*
X171375605Y-94615000D01*
X172188702Y-95428097D01*
X172432671Y-95356514D01*
X172553571Y-95101004D01*
X172622300Y-94826816D01*
X172636217Y-94544488D01*
X172594787Y-94264870D01*
X172499603Y-93998708D01*
X172432671Y-93873486D01*
X172188702Y-93801903D01*
X171375605Y-94615000D01*
X171016395Y-94615000D01*
X170203298Y-93801903D01*
X169959329Y-93873486D01*
X169838429Y-94128996D01*
X169769700Y-94403184D01*
X169755783Y-94685512D01*
X165864600Y-94685512D01*
X165864600Y-93622298D01*
X170382903Y-93622298D01*
X171196000Y-94435395D01*
X172009097Y-93622298D01*
X171937514Y-93378329D01*
X171682004Y-93257429D01*
X171407816Y-93188700D01*
X171125488Y-93174783D01*
X170845870Y-93216213D01*
X170579708Y-93311397D01*
X170454486Y-93378329D01*
X170382903Y-93622298D01*
X165864600Y-93622298D01*
X165864600Y-92305702D01*
X170382903Y-92305702D01*
X170454486Y-92549671D01*
X170709996Y-92670571D01*
X170984184Y-92739300D01*
X171266512Y-92753217D01*
X171546130Y-92711787D01*
X171812292Y-92616603D01*
X171937514Y-92549671D01*
X172009097Y-92305702D01*
X171196000Y-91492605D01*
X170382903Y-92305702D01*
X165864600Y-92305702D01*
X165864600Y-91383512D01*
X169755783Y-91383512D01*
X169797213Y-91663130D01*
X169892397Y-91929292D01*
X169959329Y-92054514D01*
X170203298Y-92126097D01*
X171016395Y-91313000D01*
X171375605Y-91313000D01*
X172188702Y-92126097D01*
X172432671Y-92054514D01*
X172553571Y-91799004D01*
X172622300Y-91524816D01*
X172636217Y-91242488D01*
X172594787Y-90962870D01*
X172499603Y-90696708D01*
X172432671Y-90571486D01*
X172188702Y-90499903D01*
X171375605Y-91313000D01*
X171016395Y-91313000D01*
X170203298Y-90499903D01*
X169959329Y-90571486D01*
X169838429Y-90826996D01*
X169769700Y-91101184D01*
X169755783Y-91383512D01*
X165864600Y-91383512D01*
X165864600Y-90320298D01*
X170382903Y-90320298D01*
X171196000Y-91133395D01*
X172009097Y-90320298D01*
X171937514Y-90076329D01*
X171682004Y-89955429D01*
X171407816Y-89886700D01*
X171125488Y-89872783D01*
X170845870Y-89914213D01*
X170579708Y-90009397D01*
X170454486Y-90076329D01*
X170382903Y-90320298D01*
X165864600Y-90320298D01*
X165864600Y-88360039D01*
X169804096Y-88360039D01*
X169844754Y-88494087D01*
X169964963Y-88748420D01*
X170132481Y-88974414D01*
X170340869Y-89163385D01*
X170582119Y-89308070D01*
X170846960Y-89402909D01*
X171069000Y-89281624D01*
X171069000Y-88138000D01*
X171323000Y-88138000D01*
X171323000Y-89281624D01*
X171545040Y-89402909D01*
X171809881Y-89308070D01*
X172051131Y-89163385D01*
X172259519Y-88974414D01*
X172427037Y-88748420D01*
X172547246Y-88494087D01*
X172587904Y-88360039D01*
X172465915Y-88138000D01*
X171323000Y-88138000D01*
X171069000Y-88138000D01*
X169926085Y-88138000D01*
X169804096Y-88360039D01*
X165864600Y-88360039D01*
X165864600Y-87661961D01*
X169804096Y-87661961D01*
X169926085Y-87884000D01*
X171069000Y-87884000D01*
X171069000Y-86740376D01*
X171323000Y-86740376D01*
X171323000Y-87884000D01*
X172465915Y-87884000D01*
X172587904Y-87661961D01*
X172547246Y-87527913D01*
X172427037Y-87273580D01*
X172259519Y-87047586D01*
X172051131Y-86858615D01*
X171809881Y-86713930D01*
X171545040Y-86619091D01*
X171323000Y-86740376D01*
X171069000Y-86740376D01*
X170846960Y-86619091D01*
X170582119Y-86713930D01*
X170340869Y-86858615D01*
X170132481Y-87047586D01*
X169964963Y-87273580D01*
X169844754Y-87527913D01*
X169804096Y-87661961D01*
X165864600Y-87661961D01*
X165864600Y-87485065D01*
X165868881Y-87441599D01*
X165864600Y-87398133D01*
X165864600Y-87398123D01*
X165851795Y-87268110D01*
X165801189Y-87101287D01*
X165719011Y-86947541D01*
X165662716Y-86878946D01*
X165636132Y-86846553D01*
X165636130Y-86846551D01*
X165608417Y-86812783D01*
X165574649Y-86785070D01*
X164434354Y-85644775D01*
X164543033Y-85512349D01*
X164657711Y-85297801D01*
X164728330Y-85065002D01*
X164746200Y-84883565D01*
X164746200Y-84549900D01*
X169896200Y-84549900D01*
X169896200Y-84949900D01*
X169944707Y-85188396D01*
X170038810Y-85412846D01*
X170174893Y-85614625D01*
X170347726Y-85785978D01*
X170550667Y-85920321D01*
X170775918Y-86012491D01*
X170813591Y-86016362D01*
X171004200Y-85891631D01*
X171004200Y-84549900D01*
X169896200Y-84549900D01*
X164746200Y-84549900D01*
X164746200Y-83962236D01*
X164739667Y-83895900D01*
X169896200Y-83895900D01*
X169896200Y-84295900D01*
X171004200Y-84295900D01*
X171004200Y-82954169D01*
X171258200Y-82954169D01*
X171258200Y-84295900D01*
X171278200Y-84295900D01*
X171278200Y-84549900D01*
X171258200Y-84549900D01*
X171258200Y-85891631D01*
X171448809Y-86016362D01*
X171486482Y-86012491D01*
X171711733Y-85920321D01*
X171914674Y-85785978D01*
X172087507Y-85614625D01*
X172223590Y-85412846D01*
X172317693Y-85188396D01*
X172366200Y-84949900D01*
X172366200Y-84922888D01*
X172433195Y-85084627D01*
X172586080Y-85313435D01*
X172780665Y-85508020D01*
X173009473Y-85660905D01*
X173263710Y-85766214D01*
X173533608Y-85819900D01*
X173808792Y-85819900D01*
X174078690Y-85766214D01*
X174332927Y-85660905D01*
X174561735Y-85508020D01*
X174756320Y-85313435D01*
X174909205Y-85084627D01*
X175014514Y-84830390D01*
X175068200Y-84560492D01*
X175068200Y-84285308D01*
X175014514Y-84015410D01*
X174909205Y-83761173D01*
X174756320Y-83532365D01*
X174561735Y-83337780D01*
X174332927Y-83184895D01*
X174078690Y-83079586D01*
X173808792Y-83025900D01*
X173533608Y-83025900D01*
X173263710Y-83079586D01*
X173009473Y-83184895D01*
X172780665Y-83337780D01*
X172586080Y-83532365D01*
X172433195Y-83761173D01*
X172366200Y-83922912D01*
X172366200Y-83895900D01*
X172317693Y-83657404D01*
X172223590Y-83432954D01*
X172087507Y-83231175D01*
X171914674Y-83059822D01*
X171711733Y-82925479D01*
X171486482Y-82833309D01*
X171448809Y-82829438D01*
X171258200Y-82954169D01*
X171004200Y-82954169D01*
X170813591Y-82829438D01*
X170775918Y-82833309D01*
X170550667Y-82925479D01*
X170347726Y-83059822D01*
X170174893Y-83231175D01*
X170038810Y-83432954D01*
X169944707Y-83657404D01*
X169896200Y-83895900D01*
X164739667Y-83895900D01*
X164728330Y-83780799D01*
X164657711Y-83547999D01*
X164543033Y-83333451D01*
X164388702Y-83145398D01*
X164200649Y-82991067D01*
X163986101Y-82876389D01*
X163753302Y-82805770D01*
X163511200Y-82781925D01*
X163269099Y-82805770D01*
X163036300Y-82876389D01*
X162821752Y-82991067D01*
X162633699Y-83145398D01*
X162479368Y-83333451D01*
X162364689Y-83547999D01*
X162294070Y-83780798D01*
X162276200Y-83962235D01*
X162276200Y-84883564D01*
X162294070Y-85065001D01*
X162364689Y-85297800D01*
X162479367Y-85512348D01*
X162626201Y-85691267D01*
X162626201Y-85929721D01*
X162621919Y-85973200D01*
X162639005Y-86146690D01*
X162689612Y-86313513D01*
X162771790Y-86467259D01*
X162854668Y-86568246D01*
X162854671Y-86568249D01*
X162882384Y-86602017D01*
X162916151Y-86629729D01*
X162987821Y-86701399D01*
X162896273Y-86739320D01*
X162661241Y-86896363D01*
X162461363Y-87096241D01*
X162392782Y-87198880D01*
X161418504Y-86224603D01*
X161394701Y-86195599D01*
X161278976Y-86100626D01*
X161146947Y-86030054D01*
X161003686Y-85986597D01*
X160892033Y-85975600D01*
X160892022Y-85975600D01*
X160854700Y-85971924D01*
X160817378Y-85975600D01*
X159640022Y-85975600D01*
X159602699Y-85971924D01*
X159565376Y-85975600D01*
X159565367Y-85975600D01*
X159453714Y-85986597D01*
X159310453Y-86030054D01*
X159195468Y-86091516D01*
X159045071Y-86121432D01*
X158874911Y-86191914D01*
X158721772Y-86294238D01*
X158591538Y-86424472D01*
X158489214Y-86577611D01*
X158418732Y-86747771D01*
X158382800Y-86928411D01*
X158382800Y-87112589D01*
X158418732Y-87293229D01*
X158489214Y-87463389D01*
X158591538Y-87616528D01*
X158721772Y-87746762D01*
X158874911Y-87849086D01*
X158904644Y-87861402D01*
X158903000Y-87869665D01*
X158903000Y-88152335D01*
X158958147Y-88429574D01*
X159066320Y-88690727D01*
X159223363Y-88925759D01*
X159423241Y-89125637D01*
X159623869Y-89259692D01*
X159596486Y-89274329D01*
X159524903Y-89518298D01*
X160338000Y-90331395D01*
X160352143Y-90317253D01*
X160531748Y-90496858D01*
X160517605Y-90511000D01*
X160531748Y-90525143D01*
X160352143Y-90704748D01*
X160338000Y-90690605D01*
X159524903Y-91503702D01*
X159596486Y-91747671D01*
X159851996Y-91868571D01*
X160126184Y-91937300D01*
X160408512Y-91951217D01*
X160688130Y-91909787D01*
X160809700Y-91866311D01*
X160809701Y-107623720D01*
X160514439Y-107918983D01*
X160479335Y-107912000D01*
X160196665Y-107912000D01*
X159919426Y-107967147D01*
X159658273Y-108075320D01*
X159423241Y-108232363D01*
X159223363Y-108432241D01*
X159066320Y-108667273D01*
X158958147Y-108928426D01*
X158903000Y-109205665D01*
X158903000Y-109488335D01*
X158958147Y-109765574D01*
X159066320Y-110026727D01*
X159223363Y-110261759D01*
X159423241Y-110461637D01*
X159623869Y-110595692D01*
X159596486Y-110610329D01*
X159524903Y-110854298D01*
X160338000Y-111667395D01*
X161151097Y-110854298D01*
X161079514Y-110610329D01*
X161050659Y-110596676D01*
X161252759Y-110461637D01*
X161452637Y-110261759D01*
X161609680Y-110026727D01*
X161717853Y-109765574D01*
X161773000Y-109488335D01*
X161773000Y-109205665D01*
X161766017Y-109170561D01*
X162289749Y-108646830D01*
X162323517Y-108619117D01*
X162355803Y-108579777D01*
X162461363Y-108737759D01*
X162661241Y-108937637D01*
X162896273Y-109094680D01*
X163157426Y-109202853D01*
X163434665Y-109258000D01*
X163717335Y-109258000D01*
X163994574Y-109202853D01*
X164094600Y-109161421D01*
X164094600Y-109786579D01*
X163994574Y-109745147D01*
X163717335Y-109690000D01*
X163434665Y-109690000D01*
X163157426Y-109745147D01*
X162896273Y-109853320D01*
X162661241Y-110010363D01*
X162461363Y-110210241D01*
X162304320Y-110445273D01*
X162196147Y-110706426D01*
X162141000Y-110983665D01*
X162141000Y-111266335D01*
X162196147Y-111543574D01*
X162304320Y-111804727D01*
X162461363Y-112039759D01*
X162661241Y-112239637D01*
X162896273Y-112396680D01*
X163157426Y-112504853D01*
X163434665Y-112560000D01*
X163717335Y-112560000D01*
X163994574Y-112504853D01*
X164094600Y-112463421D01*
X164094600Y-113414383D01*
X163986101Y-113356389D01*
X163753302Y-113285770D01*
X163511200Y-113261925D01*
X163269099Y-113285770D01*
X163036300Y-113356389D01*
X162821752Y-113471067D01*
X162633699Y-113625398D01*
X162479368Y-113813451D01*
X162364689Y-114027999D01*
X162294070Y-114260798D01*
X162276200Y-114442235D01*
X162276200Y-115363564D01*
X162294070Y-115545001D01*
X162364689Y-115777800D01*
X162479367Y-115992348D01*
X162633698Y-116180402D01*
X162821751Y-116334733D01*
X163036299Y-116449411D01*
X163269098Y-116520030D01*
X163511200Y-116543875D01*
X163753301Y-116520030D01*
X163986100Y-116449411D01*
X164094600Y-116391417D01*
X164094600Y-117360321D01*
X158167262Y-123287660D01*
X158109225Y-123096336D01*
X157970069Y-122835994D01*
X157782797Y-122607803D01*
X157554605Y-122420531D01*
X157294263Y-122281375D01*
X157011776Y-122195684D01*
X156718000Y-122166749D01*
X156424223Y-122195684D01*
X156141736Y-122281375D01*
X155881394Y-122420531D01*
X155653203Y-122607803D01*
X155465931Y-122835995D01*
X155444576Y-122875947D01*
X155296486Y-122673271D01*
X155080035Y-122474267D01*
X154828919Y-122321314D01*
X154552789Y-122220291D01*
X154537026Y-122217642D01*
X154305000Y-122338783D01*
X154305000Y-123698000D01*
X154325000Y-123698000D01*
X154325000Y-123952000D01*
X154305000Y-123952000D01*
X154305000Y-123972000D01*
X154051000Y-123972000D01*
X154051000Y-123952000D01*
X151765000Y-123952000D01*
X151765000Y-123972000D01*
X151511000Y-123972000D01*
X151511000Y-123952000D01*
X151491000Y-123952000D01*
X151491000Y-123698000D01*
X151511000Y-123698000D01*
X151511000Y-122338783D01*
X151765000Y-122338783D01*
X151765000Y-123698000D01*
X154051000Y-123698000D01*
X154051000Y-122338783D01*
X153818974Y-122217642D01*
X153803211Y-122220291D01*
X153527081Y-122321314D01*
X153275965Y-122474267D01*
X153059514Y-122673271D01*
X152908000Y-122880633D01*
X152756486Y-122673271D01*
X152540035Y-122474267D01*
X152288919Y-122321314D01*
X152012789Y-122220291D01*
X151997026Y-122217642D01*
X151765000Y-122338783D01*
X151511000Y-122338783D01*
X151278974Y-122217642D01*
X151263211Y-122220291D01*
X150987081Y-122321314D01*
X150735965Y-122474267D01*
X150519514Y-122673271D01*
X150371424Y-122875947D01*
X150350069Y-122835994D01*
X150162797Y-122607803D01*
X149934605Y-122420531D01*
X149674263Y-122281375D01*
X149391776Y-122195684D01*
X149098000Y-122166749D01*
X148804223Y-122195684D01*
X148521736Y-122281375D01*
X148261394Y-122420531D01*
X148033203Y-122607803D01*
X147845931Y-122835995D01*
X147828000Y-122869541D01*
X147810069Y-122835994D01*
X147622797Y-122607803D01*
X147394605Y-122420531D01*
X147134263Y-122281375D01*
X146851776Y-122195684D01*
X146558000Y-122166749D01*
X146264223Y-122195684D01*
X145981736Y-122281375D01*
X145721394Y-122420531D01*
X145493203Y-122607803D01*
X145305931Y-122835995D01*
X145288000Y-122869541D01*
X145270069Y-122835994D01*
X145082797Y-122607803D01*
X144854605Y-122420531D01*
X144594263Y-122281375D01*
X144311776Y-122195684D01*
X144018000Y-122166749D01*
X143724223Y-122195684D01*
X143441736Y-122281375D01*
X143181394Y-122420531D01*
X142953203Y-122607803D01*
X142765931Y-122835995D01*
X142748000Y-122869541D01*
X142730069Y-122835994D01*
X142542797Y-122607803D01*
X142314605Y-122420531D01*
X142054263Y-122281375D01*
X141771776Y-122195684D01*
X141478000Y-122166749D01*
X141184223Y-122195684D01*
X140901736Y-122281375D01*
X140641394Y-122420531D01*
X140413203Y-122607803D01*
X140225931Y-122835995D01*
X140208000Y-122869541D01*
X140190069Y-122835994D01*
X140002797Y-122607803D01*
X139774605Y-122420531D01*
X139514263Y-122281375D01*
X139231776Y-122195684D01*
X138938000Y-122166749D01*
X138644223Y-122195684D01*
X138361736Y-122281375D01*
X138101394Y-122420531D01*
X137873203Y-122607803D01*
X137685931Y-122835995D01*
X137546775Y-123096337D01*
X137461084Y-123378824D01*
X137439400Y-123598982D01*
X137439400Y-124051019D01*
X137461084Y-124271177D01*
X137546775Y-124553664D01*
X137685931Y-124814006D01*
X137873203Y-125042197D01*
X138101395Y-125229469D01*
X138361737Y-125368625D01*
X138644224Y-125454316D01*
X138938000Y-125483251D01*
X139231777Y-125454316D01*
X139514264Y-125368625D01*
X139774606Y-125229469D01*
X140002797Y-125042197D01*
X140190069Y-124814006D01*
X140208000Y-124780459D01*
X140225931Y-124814006D01*
X140413203Y-125042197D01*
X140641395Y-125229469D01*
X140901737Y-125368625D01*
X141184224Y-125454316D01*
X141478000Y-125483251D01*
X141771777Y-125454316D01*
X142054264Y-125368625D01*
X142314606Y-125229469D01*
X142542797Y-125042197D01*
X142730069Y-124814006D01*
X142748000Y-124780459D01*
X142765931Y-124814006D01*
X142953203Y-125042197D01*
X143181395Y-125229469D01*
X143441737Y-125368625D01*
X143724224Y-125454316D01*
X144018000Y-125483251D01*
X144311777Y-125454316D01*
X144594264Y-125368625D01*
X144854606Y-125229469D01*
X145082797Y-125042197D01*
X145270069Y-124814006D01*
X145288000Y-124780459D01*
X145305931Y-124814006D01*
X145493203Y-125042197D01*
X145721395Y-125229469D01*
X145981737Y-125368625D01*
X146264224Y-125454316D01*
X146558000Y-125483251D01*
X146851777Y-125454316D01*
X147134264Y-125368625D01*
X147394606Y-125229469D01*
X147622797Y-125042197D01*
X147810069Y-124814006D01*
X147828000Y-124780459D01*
X147845931Y-124814006D01*
X148033203Y-125042197D01*
X148261395Y-125229469D01*
X148521737Y-125368625D01*
X148804224Y-125454316D01*
X149098000Y-125483251D01*
X149391777Y-125454316D01*
X149456196Y-125434775D01*
X149676421Y-125655000D01*
X126909707Y-125655000D01*
X127039594Y-125525113D01*
X127331464Y-125088298D01*
X127532508Y-124602935D01*
X127635000Y-124087677D01*
X127635000Y-123562323D01*
X127532508Y-123047065D01*
X127331464Y-122561702D01*
X127039594Y-122124887D01*
X126668113Y-121753406D01*
X126231298Y-121461536D01*
X125745935Y-121260492D01*
X125230677Y-121158000D01*
X124705323Y-121158000D01*
X124190065Y-121260492D01*
X123704702Y-121461536D01*
X123267887Y-121753406D01*
X122896406Y-122124887D01*
X122604536Y-122561702D01*
X122403492Y-123047065D01*
X122301000Y-123562323D01*
X122301000Y-124087677D01*
X122403492Y-124602935D01*
X122604536Y-125088298D01*
X122896406Y-125525113D01*
X123026293Y-125655000D01*
X111708000Y-125655000D01*
X111708000Y-93837000D01*
X121069928Y-93837000D01*
X121082188Y-93961482D01*
X121118498Y-94081180D01*
X121177463Y-94191494D01*
X121256815Y-94288185D01*
X121353506Y-94367537D01*
X121463820Y-94426502D01*
X121583518Y-94462812D01*
X121708000Y-94475072D01*
X122142250Y-94472000D01*
X122301000Y-94313250D01*
X122301000Y-92964000D01*
X121231750Y-92964000D01*
X121073000Y-93122750D01*
X121069928Y-93837000D01*
X111708000Y-93837000D01*
X111708000Y-91837000D01*
X121069928Y-91837000D01*
X121073000Y-92551250D01*
X121231750Y-92710000D01*
X122301000Y-92710000D01*
X122301000Y-91360750D01*
X122142250Y-91202000D01*
X121708000Y-91198928D01*
X121583518Y-91211188D01*
X121463820Y-91247498D01*
X121353506Y-91306463D01*
X121256815Y-91385815D01*
X121177463Y-91482506D01*
X121118498Y-91592820D01*
X121082188Y-91712518D01*
X121069928Y-91837000D01*
X111708000Y-91837000D01*
X111708000Y-73735000D01*
X124296293Y-73735000D01*
X124166406Y-73864887D01*
G37*
%TD.AperFunction*%
D22*
X136962454Y-94454546D02*
X137033026Y-94586576D01*
X137069733Y-94631303D01*
X137128000Y-94702301D01*
X137156998Y-94726099D01*
X137982700Y-95551802D01*
X137982700Y-98880019D01*
X137772702Y-98818403D01*
X136959605Y-99631500D01*
X137772702Y-100444597D01*
X137982701Y-100382981D01*
X137982701Y-102855157D01*
X137979023Y-102892500D01*
X137982700Y-102929833D01*
X137982700Y-104946426D01*
X137953625Y-104937606D01*
X137688000Y-104911444D01*
X137422374Y-104937606D01*
X137166955Y-105015086D01*
X136931560Y-105140908D01*
X136725235Y-105310236D01*
X136555908Y-105516561D01*
X136430086Y-105751956D01*
X136418000Y-105791798D01*
X136405914Y-105751955D01*
X136280092Y-105516560D01*
X136110764Y-105310235D01*
X135908000Y-105143830D01*
X135908000Y-100683107D01*
X135966903Y-100624204D01*
X136038486Y-100868171D01*
X136293996Y-100989071D01*
X136568184Y-101057800D01*
X136850512Y-101071717D01*
X137130130Y-101030287D01*
X137396292Y-100935103D01*
X137521514Y-100868171D01*
X137593097Y-100624202D01*
X136780000Y-99811105D01*
X136765858Y-99825248D01*
X136586253Y-99645643D01*
X136600395Y-99631500D01*
X136586253Y-99617358D01*
X136765858Y-99437753D01*
X136780000Y-99451895D01*
X137593097Y-98638798D01*
X137521514Y-98394829D01*
X137266004Y-98273929D01*
X136991816Y-98205200D01*
X136709488Y-98191283D01*
X136429870Y-98232713D01*
X136163708Y-98327897D01*
X136038486Y-98394829D01*
X135966903Y-98638796D01*
X135908000Y-98579893D01*
X135908000Y-97911801D01*
X136686904Y-97132898D01*
X136715901Y-97109101D01*
X136758660Y-97056999D01*
X136810874Y-96993377D01*
X136881446Y-96861347D01*
X136899338Y-96802363D01*
X136924903Y-96718086D01*
X136935900Y-96606433D01*
X136935900Y-96606424D01*
X136939576Y-96569101D01*
X136935900Y-96531778D01*
X136935900Y-94367006D01*
X136962454Y-94454546D01*
%TA.AperFunction,Conductor*%
D23*
G36*
X136962454Y-94454546D02*
G01*
X137033026Y-94586576D01*
X137069733Y-94631303D01*
X137128000Y-94702301D01*
X137156998Y-94726099D01*
X137982700Y-95551802D01*
X137982700Y-98880019D01*
X137772702Y-98818403D01*
X136959605Y-99631500D01*
X137772702Y-100444597D01*
X137982701Y-100382981D01*
X137982701Y-102855157D01*
X137979023Y-102892500D01*
X137982700Y-102929833D01*
X137982700Y-104946426D01*
X137953625Y-104937606D01*
X137688000Y-104911444D01*
X137422374Y-104937606D01*
X137166955Y-105015086D01*
X136931560Y-105140908D01*
X136725235Y-105310236D01*
X136555908Y-105516561D01*
X136430086Y-105751956D01*
X136418000Y-105791798D01*
X136405914Y-105751955D01*
X136280092Y-105516560D01*
X136110764Y-105310235D01*
X135908000Y-105143830D01*
X135908000Y-100683107D01*
X135966903Y-100624204D01*
X136038486Y-100868171D01*
X136293996Y-100989071D01*
X136568184Y-101057800D01*
X136850512Y-101071717D01*
X137130130Y-101030287D01*
X137396292Y-100935103D01*
X137521514Y-100868171D01*
X137593097Y-100624202D01*
X136780000Y-99811105D01*
X136765858Y-99825248D01*
X136586253Y-99645643D01*
X136600395Y-99631500D01*
X136586253Y-99617358D01*
X136765858Y-99437753D01*
X136780000Y-99451895D01*
X137593097Y-98638798D01*
X137521514Y-98394829D01*
X137266004Y-98273929D01*
X136991816Y-98205200D01*
X136709488Y-98191283D01*
X136429870Y-98232713D01*
X136163708Y-98327897D01*
X136038486Y-98394829D01*
X135966903Y-98638796D01*
X135908000Y-98579893D01*
X135908000Y-97911801D01*
X136686904Y-97132898D01*
X136715901Y-97109101D01*
X136758660Y-97056999D01*
X136810874Y-96993377D01*
X136881446Y-96861347D01*
X136899338Y-96802363D01*
X136924903Y-96718086D01*
X136935900Y-96606433D01*
X136935900Y-96606424D01*
X136939576Y-96569101D01*
X136935900Y-96531778D01*
X136935900Y-94367006D01*
X136962454Y-94454546D01*
G37*
%TD.AperFunction*%
D22*
X143005748Y-99617358D02*
X142991605Y-99631500D01*
X143005748Y-99645643D01*
X142826143Y-99825248D01*
X142812000Y-99811105D01*
X142797858Y-99825248D01*
X142618253Y-99645643D01*
X142632395Y-99631500D01*
X142618253Y-99617358D01*
X142797858Y-99437753D01*
X142812000Y-99451895D01*
X142826143Y-99437753D01*
X143005748Y-99617358D01*
%TA.AperFunction,Conductor*%
D23*
G36*
X143005748Y-99617358D02*
G01*
X142991605Y-99631500D01*
X143005748Y-99645643D01*
X142826143Y-99825248D01*
X142812000Y-99811105D01*
X142797858Y-99825248D01*
X142618253Y-99645643D01*
X142632395Y-99631500D01*
X142618253Y-99617358D01*
X142797858Y-99437753D01*
X142812000Y-99451895D01*
X142826143Y-99437753D01*
X143005748Y-99617358D01*
G37*
%TD.AperFunction*%
%TD*%
M02*
